<?xml version="1.0" encoding="utf-8"?>
<!-- Generator: Adobe Illustrator 25.4.1, SVG Export Plug-In . SVG Version: 6.00 Build 0)  -->
<svg version="1.1" id="logo" xmlns="http://www.w3.org/2000/svg" xmlns:xlink="http://www.w3.org/1999/xlink" x="0px" y="0px"
	 viewBox="0 0 167.19302 45.66132" style="enable-background:new 0 0 167.19302 45.66132;" xml:space="preserve">
<style type="text/css">
	.st0{fill:#FFFFFF;}
</style>
<g>
	<g>
		<path class="st0" d="M53.75357,23.28362h-3.40234v5.27051h-3.00195V13.47893h5.98438c3.56836,0,5.9834,1.49023,5.9834,4.91308
			c0,2.05762-0.81934,3.40137-2.39355,4.05176v0.12695c1.72168,1.30078,2.54102,3.16992,2.54102,6.00391h-3.44336
			C56.02115,26.26604,55.34927,24.50237,53.75357,23.28362z M53.69009,20.57561c1.46973,0,2.33105-0.75586,2.33105-2.18359
			c0-1.46973-1.05078-2.0791-2.54102-2.0791h-3.12891v4.2627H53.69009z"/>
		<path class="st0" d="M61.29361,23.28362c0-3.44336,2.24707-5.58398,5.79492-5.58398c3.52734,0,5.77441,2.14062,5.77441,5.58398
			c0,3.38086-2.20508,5.58594-5.77441,5.58594S61.29361,26.66447,61.29361,23.28362z M69.77603,23.28362
			c0-1.80469-1.07129-2.89648-2.72949-2.89648c-1.5957,0-2.66602,1.0918-2.66602,2.89648c0,1.84766,1.1543,2.89844,2.70801,2.89844
			C68.70474,26.18205,69.77603,25.13127,69.77603,23.28362z"/>
		<path class="st0" d="M74.62857,23.28362c0-3.44336,2.24609-5.58398,5.79492-5.58398
			c0.31445,0.02051,2.03711,0.04102,3.35938,0.92383v2.83398c-1.23828-0.81836-2.49805-1.0293-3.40137-1.0293
			c-1.5957,0-2.66699,1.05078-2.66699,2.85547c0,1.84766,1.15527,2.85547,2.70898,2.85547c1.0293,0,2.30957-0.35645,3.19141-0.98633
			v2.83398c-0.96582,0.69336-2.70898,0.88281-3.19141,0.88281C76.85416,28.86955,74.62857,26.66447,74.62857,23.28362z"/>
		<path class="st0" d="M86.30435,13.12151h3.00195v8.73437h1.07129l2.47754-3.88379h3.44336l-3.65332,5.20703l3.94727,5.375
			h-3.59082l-2.83398-4.07324H89.3063v4.07324h-3.00195V13.12151z"/>
		<path class="st0" d="M97.1813,23.22112c0-3.31738,2.22656-5.54297,5.375-5.54297c3.21289,0,4.99805,2.07812,4.99805,4.95508
			c0,0.77734-0.08398,1.32227-0.14746,1.67969h-7.11816c0,0.79785,0.75586,2.05762,3.12891,2.05762
			c0.90234,0,2.30957-0.12598,3.50586-0.56738v2.35156c-1.23828,0.50391-2.26758,0.73535-3.71582,0.73535
			C99.2399,28.89006,97.1813,26.60197,97.1813,23.22112z M104.48795,22.2758c0.02148-0.08398,0.02148-0.23047,0.02148-0.31445
			c0-0.88184-0.5459-1.76367-2.01562-1.76367c-1.23828,0-2.22559,0.90234-2.22559,2.07812H104.48795z"/>
		<path class="st0" d="M116.22818,26.20256v2.33105c-0.41992,0.16797-1.44922,0.33594-1.95312,0.33594
			c-1.25977,0-3.73633-0.33594-3.73633-3.80078V20.6176h-1.17578v-2.625h1.32227c0.18945-1.1543,0.50391-2.05664,0.62988-2.41406
			h2.22559v2.41406h2.41406v2.625h-2.41406v4.03125c0,1.6377,0.86133,1.6582,1.70117,1.6582
			C115.38834,26.30705,116.0817,26.22307,116.22818,26.20256z"/>
		<path class="st0" d="M118.81216,13.43694h5.39648c3.92578,0,5.03906,1.67969,5.03906,3.88379
			c0,1.67969-0.60938,2.85547-2.14258,3.35938v0.12695c1.65918,0.50391,2.73047,1.51172,2.73047,3.50586
			c0,3.10742-2.28906,4.24121-5.77441,4.24121h-5.24902V13.43694z M124.0192,25.9301c1.70117,0,2.72949-0.29492,2.72949-1.84766
			c0-1.30273-0.86035-1.95312-2.56152-1.95312h-2.37305v3.80078H124.0192z M124.06119,19.56779
			c1.25977,0,2.09961-0.6084,2.09961-1.78418c0-1.21875-0.75586-1.72266-2.28809-1.72266h-2.03711v3.50684H124.06119z"/>
		<path class="st0" d="M131.74771,23.34709c0-3.33887,2.03711-5.64746,5.08203-5.64746c1.53223,0,2.75,0.69238,3.33789,1.67969
			h0.12598c0.12598-0.44141,0.31543-0.86133,0.50391-1.38672h1.93164v6.86621c0,1.42773,0.23145,1.7002,0.77637,1.7002
			c0.14746,0,0.29492-0.02051,0.44141-0.04102v2.05664c-0.41992,0.16797-1.0293,0.29492-1.5332,0.29492
			c-1.25977,0-1.99414-0.56738-2.12012-1.63867h-0.14746c-0.58789,1.0918-1.91016,1.65918-3.50586,1.65918
			C133.67935,28.89006,131.74771,26.60197,131.74771,23.34709z M139.93716,23.3051c0-1.84766-0.9873-2.96094-2.5625-2.96094
			c-1.46875,0-2.54004,1.11328-2.54004,2.96094c0,1.80566,1.0498,2.96094,2.56152,2.96094
			C139.01334,26.26604,139.93716,25.11076,139.93716,23.3051z"/>
		<path class="st0" d="M145.85904,27.84026l0.02148-2.625c1.00781,0.63086,3.14941,1.25977,4.57715,1.25977
			c0.83984,0,1.49121-0.23047,1.49121-0.81836c0-0.71387-1.00781-0.94531-2.26758-1.23828
			c-1.78516-0.41992-3.84277-1.07129-3.84277-3.38086c0-1.93164,1.6377-3.35938,4.49316-3.35938
			c1.34375,0,2.89746,0.23047,3.96875,0.58789v2.625c-0.9873-0.41992-2.64648-0.83984-3.86328-0.83984
			c-0.83984,0-1.42773,0.20898-1.42773,0.79688c0,0.73535,0.88086,0.88281,2.37207,1.21875
			c1.5957,0.35645,3.7373,0.94434,3.7373,3.2959c0,1.80566-1.17578,3.50684-4.72461,3.50684
			C148.12662,28.86955,146.23795,28.07072,145.85904,27.84026z"/>
		<path class="st0" d="M156.82193,23.22112c0-3.31738,2.22461-5.54297,5.375-5.54297c3.21191,0,4.99609,2.07812,4.99609,4.95508
			c0,0.77734-0.08398,1.32227-0.14648,1.67969h-7.11719c0,0.79785,0.75586,2.05762,3.12793,2.05762
			c0.90332,0,2.30957-0.12598,3.50684-0.56738v2.35156c-1.23926,0.50391-2.26758,0.73535-3.7168,0.73535
			C158.87857,28.89006,156.82193,26.60197,156.82193,23.22112z M164.12857,22.2758c0.02051-0.08398,0.02051-0.23047,0.02051-0.31445
			c0-0.88184-0.5459-1.76367-2.01562-1.76367c-1.23926,0-2.22559,0.90234-2.22559,2.07812H164.12857z"/>
	</g>
	<path class="st0" d="M39.388,43.51892H28.0773v-3.5365h9.49341c0.76733,0,1.38916-0.62201,1.38916-1.38928v-5.56403
		c0-0.71625-0.28442-1.40326-0.79102-1.90973l-8.03589-8.03589v10.70709c0,0.56769-0.45996,1.02783-1.02783,1.02783
		c-0.56763,0-1.02783-0.46014-1.02783-1.02783c0,0,0-18.55286,0-19.37152C28.0773,5.21606,21.73673,0,20.22965,0
		c-1.50684,0-7.84766,5.21606-7.84766,14.41907c0,0.81866,0,19.37152,0,19.37152c0,0.56769-0.46008,1.02783-1.02783,1.02783
		c-0.56763,0-1.02783-0.46014-1.02783-1.02783V23.0835l-8.03577,8.03589c-0.50647,0.50647-0.79114,1.19348-0.79114,1.90973v5.56445
		c0,0.76703,0.62183,1.38885,1.38892,1.38885h9.49365v3.5365H1.07104C0.47949,43.51892,0,43.9986,0,44.59015
		s0.47949,1.07117,1.07104,1.07117H39.388c0.59155,0,1.07129-0.47961,1.07129-1.07117S39.97956,43.51892,39.388,43.51892z
		 M21.25748,43.51892h-2.05566V29.71051c0-0.56763,0.46021-1.02783,1.02783-1.02783c0.56787,0,1.02783,0.46021,1.02783,1.02783
		V43.51892z"/>
</g>
</svg>
