<svg class="svg-logo" xmlns="http://www.w3.org/2000/svg" viewBox="-0.12 -0.03 1061.72 334.55">                 <g itemprop="logo">                     <path d="M79.4,81.4c-17.8,0-34.1,6.3-47.4,16.9l0-92.4C32,2.3,29.7,0,26.1,0C17.6-0.1,5.9,3.9,1.5,15.5C0,19.2-0.1,23-0.1,26.3 c0,9.2,0,143.1,0,144.1l0.1,0c1.5,46,36.5,82.8,79.4,82.8c43.9,0,79.5-38.5,79.5-85.9C158.9,119.8,123.3,81.4,79.4,81.4z M79.4,225.7c-26.3,0-47.6-26.1-47.6-58.4s21.3-58.4,47.6-58.4S127,135,127,167.3S105.7,225.7,79.4,225.7z"/>                     <path d="M255.2,81.4c-43.9,0-79.5,38.5-79.5,85.9c0,47.4,35.6,85.9,79.5,85.9s79.5-38.5,79.5-85.9 C334.7,119.8,299.1,81.4,255.2,81.4z M255.2,225.7c-26.3,0-47.6-26.1-47.6-58.4s21.3-58.4,47.6-58.4s47.6,26.1,47.6,58.4 S281.5,225.7,255.2,225.7z"/>                     <path d="M467.7,227.1c0,3.3,0.1,7.1,1.6,10.8c4.4,11.6,16.1,15.6,24.6,15.5c3.7,0,5.9-2.3,5.9-5.9v-93.7 c0-39.8-32.6-72.4-72.4-72.4h0c-39.8,0-72.4,32.6-72.4,72.4l0,93.7c0,3.6,2.3,5.9,5.9,5.9c8.5,0.1,20.2-3.9,24.6-15.5 c1.4-3.8,1.6-7.6,1.6-10.8c0-7.8,0-77.9,0-77.9c0-22.1,18.1-40.3,40.3-40.3h0c22.1,0,40.3,18.1,40.3,40.3 C467.7,149.1,467.7,219.3,467.7,227.1z"/>                     <path d="M602.4,81.4c-42.9,0-77.9,36.8-79.4,82.8l-0.1,164.4c0,3.6,2.3,5.9,5.9,5.9c8.5,0.1,20.2-3.9,24.6-15.5 c1.4-3.8,1.6-7.6,1.6-10.8l0-72c13.2,10.6,29.6,16.9,47.4,16.9c43.9,0,79.5-38.5,79.5-85.9C681.9,119.8,646.3,81.4,602.4,81.4z M602.4,225.7c-26.3,0-47.6-26.1-47.6-58.4s21.3-58.4,47.6-58.4c26.3,0,47.6,26.1,47.6,58.4S628.7,225.7,602.4,225.7z"/>                     <path d="M732.9,158.5c0-42.9,14.4-45,27.1-45c3.3,0,7.1-0.1,10.8-1.6c11.6-4.4,15.6-16.1,15.5-24.6c0-3.7-2.3-5.9-5.9-5.9l-10.2,0 c-54.3,0-69.4,30.5-69.4,66.4c0,0,0,42.1,0,42.1v3.1l0,54.4c0,3.6,2.3,5.9,5.9,5.9c8.5,0.1,20.2-3.9,24.6-15.5 c1.4-3.8,1.6-7.6,1.6-10.8c0-9.3,0-21.4,0-34.9V158.5z"/>                     <path d="M836.6,87.3c0-3.6-2.3-5.9-5.9-5.9c-8.5-0.1-20.2,3.9-24.6,15.5c-1.4,3.8-1.6,7.6-1.6,10.8c0,5.9,0,139.8,0,139.8 c0,3.6,2.3,5.9,5.9,5.9c8.5,0.1,20.2-3.9,24.6-15.5c1.4-3.8,1.6-7.6,1.6-10.8V87.3z"/>                     <path d="M991,214.9c-2.7-3.2-39.7-47.3-39.7-47.3l24.7-29.5c0,0,12.2-14.6,14.9-17.8c2.1-2.5,4.4-5.5,5.8-9.3 c4-11.7-2.3-22.3-8.9-27.7c-2.8-2.3-6-2-8.4,0.7l-49.1,58.5l-49.1-58.5c-2.3-2.8-5.5-3.1-8.4-0.7c-6.6,5.4-12.9,16-8.9,27.7 c1.3,3.8,3.7,6.8,5.8,9.3c2.7,3.2,5.8,7,14.9,17.8l24.7,29.5c0,0-36.9,44-39.7,47.3c-2.1,2.5-4.4,5.5-5.8,9.3 c-4,11.7,2.3,22.3,8.9,27.7c2.8,2.3,6,2,8.4-0.7l49.1-58.5l49.1,58.5c2.3,2.8,5.5,3.1,8.4,0.7c6.6-5.4,12.9-16,8.9-27.7 C995.4,220.3,993.1,217.4,991,214.9z"/>                     <path d="M1061.6,217.9c0-3.6-2.3-5.9-5.9-5.9c-8.5-0.1-20.2,3.9-24.6,15.5c-1.4,3.8-1.6,7.6-1.6,10.8v9.2c0,3.6,2.3,5.9,5.9,5.9 c8.5,0.1,20.2-3.9,24.6-15.5c1.4-3.8,1.6-7.6,1.6-10.8V217.9z"/>                 </g>             </svg>