<?xml version="1.0" encoding="utf-8"?>
<!-- Generator: Adobe Illustrator 26.0.0, SVG Export Plug-In . SVG Version: 6.00 Build 0)  -->
<svg version="1.1" xmlns="http://www.w3.org/2000/svg" xmlns:xlink="http://www.w3.org/1999/xlink" x="0px" y="0px"
	 viewBox="0 0 160.6 121.7" style="enable-background:new 0 0 160.6 121.7;" xml:space="preserve">
<style type="text/css">
	.st0{opacity:0.4;fill:#373754;enable-background:new    ;}
	.st1{fill:url(#Path_133_00000099633293182062777170000015620520605796702337_);}
	.st2{fill:url(#Path_134_00000095300910050738964470000005613871344720725153_);}
	.st3{fill:url(#Path_135_00000094588139222889351980000002618788040476575367_);}
	.st4{fill:#FFFFFF;}
	.st5{fill:#9D58D4;}
	.st6{clip-path:url(#SVGID_00000093148329400900605250000005808813636296461725_);}
	.st7{fill:#FFD93B;}
	.st8{fill:#D67D67;}
	.st9{fill:#434344;}
	.st10{fill:#B86247;}
</style>
<g id="earth">
</g>
<g id="chat__x26__avatars">
	<g id="bubble_avatar-1" transform="translate(537.222 2417.55)">
		<g id="bubble-1">
			<path id="Path_132" class="st0" d="M-389.9-2388.4L-389.9-2388.4c0.8,0.8-10.5-12.1-10.5-12.1c-2.8-3.1-6.4-2.8-9-2.2
				l-122.6,25.3c-2.6,0.5-5.3,4-5.3,8.9v49c0,3.2,1.5,5.6,3.2,8.2l7.9,13c0.6,1.8,2.4,2.8,4.2,2.5l111.9-23.1l16.4,18.1l0.1-0.2
				l2.9,3.1c0.8,0.8,2.1-0.2,2.1-1.6v-84.9C-388.4-2386-388.9-2387.4-389.9-2388.4z"/>
			<g id="Group_33">
				<g id="Group_32">
					
						<linearGradient id="Path_133_00000169545754702092221800000011345053600536524221_" gradientUnits="userSpaceOnUse" x1="-895.9714" y1="-2833.457" x2="-894.9313" y2="-2833.0042" gradientTransform="matrix(147.3806 0 0 -104.9953 131445.8281 -299825.1875)">
						<stop  offset="0" style="stop-color:#6F82BA"/>
						<stop  offset="1" style="stop-color:#A0D7FF"/>
					</linearGradient>
					<path id="Path_133" style="fill:url(#Path_133_00000169545754702092221800000011345053600536524221_);" d="M-525.3-2383v49
						c0,3.2,1.5,5.6,3.2,8.2l8.1,13.3l136-90.3c0.8,0.8-10.5-12.1-10.5-12.1c-2.8-3.1-6.4-2.8-9-2.2l-122.6,25.3
						C-522.6-2391.4-525.3-2388-525.3-2383z"/>
				</g>
			</g>
			<g id="Group_38">
				<g id="Group_34">
					
						<radialGradient id="Path_134_00000128471162758299363970000002209902960817670534_" cx="-893.3275" cy="-2833.6116" r="0.64" gradientTransform="matrix(93.7027 0 0 -91.2684 83288.4141 -260983.6406)" gradientUnits="userSpaceOnUse">
						<stop  offset="0" style="stop-color:#D3EDFF"/>
						<stop  offset="1" style="stop-color:#A0D7FF"/>
					</radialGradient>
					<path id="Path_134" style="fill:url(#Path_134_00000128471162758299363970000002209902960817670534_);" d="M-514.6-2370.5v55.3
						c0,3.2,2.1,5.4,4.6,4.9l111.9-23.1l19.3,21c0.8,0.8,2.1-0.2,2.1-1.6v-84.9c0-3.2-2.1-5.4-4.6-4.9l-128.7,26.6
						C-512.5-2376.7-514.6-2373.7-514.6-2370.5z"/>
					
						<linearGradient id="Path_135_00000070811929412269986130000014598682750555211955_" gradientUnits="userSpaceOnUse" x1="-880.1329" y1="-2847.894" x2="-881.0269" y2="-2847.106" gradientTransform="matrix(21.468 0 0 -22.518 18517.1875 -66453.9531)">
						<stop  offset="0" style="stop-color:#FBFBFD;stop-opacity:0"/>
						<stop  offset="1.000000e-03" style="stop-color:#A0D7FF;stop-opacity:0"/>
						<stop  offset="1" style="stop-color:#6F82BA;stop-opacity:0.4"/>
					</linearGradient>
					<path id="Path_135" style="fill:url(#Path_135_00000070811929412269986130000014598682750555211955_);" d="M-398.1-2333.4
						l21.5-4.4l-5.1,22.5L-398.1-2333.4z"/>
				</g>
				<g id="Group_37">
					<g id="Group_35">
						<path id="Path_136" class="st4" d="M-397-2373.8l-97.2,20.1c-0.9,0.2-1.6-0.6-1.6-1.7c0-1,0.6-2,1.6-2.3l97.2-20.1
							c0.9-0.2,1.6,0.6,1.6,1.7C-395.4-2375.1-396-2374.2-397-2373.8z"/>
					</g>
					<g id="Group_36">
						<path id="Path_137" class="st4" d="M-397-2355.7l-97.2,20.1c-0.9,0.2-1.6-0.6-1.6-1.7c0-1,0.6-2,1.6-2.3l97.2-20.1
							c0.9-0.2,1.6,0.6,1.6,1.7C-395.4-2357-396-2356.1-397-2355.7z"/>
					</g>
				</g>
			</g>
		</g>
		<g id="avatar-1" transform="translate(-197.567 -237.895)">
			
				<ellipse id="Ellipse_438" transform="matrix(0.217 -0.9762 0.9762 0.217 1876.162 -1966.8408)" class="st5" cx="-288" cy="-2153" rx="23.6" ry="18"/>
			<g id="Group_73">
				<g>
					<defs>
						
							<ellipse id="SVGID_1_" transform="matrix(0.217 -0.9762 0.9762 0.217 1876.162 -1966.8408)" cx="-288" cy="-2153" rx="23.6" ry="18"/>
					</defs>
					<clipPath id="SVGID_00000083053934739353325080000009082758192107725466_">
						<use xlink:href="#SVGID_1_"  style="overflow:visible;"/>
					</clipPath>
					<g id="Group_72" style="clip-path:url(#SVGID_00000083053934739353325080000009082758192107725466_);">
						<g id="Group_71">
							
								<ellipse id="Ellipse_439" transform="matrix(0.9322 -0.3618 0.3618 0.9322 751.3496 -249.4627)" class="st7" cx="-290.4" cy="-2130.9" rx="13.1" ry="11.6"/>
							<g id="Group_70">
								<path id="Path_162" class="st8" d="M-294.4-2137.1c3,3,8.1,1.4,7.8-1.5c-0.1-1.4-1.3-5.4-0.1-4.9c3.4,0.7,7.6-3.9,7-11.9
									s-3.5-6.5-3.5-6.5l-7.3,2.6l-2.4,8.3c0.3,1.3-0.1,5.8-0.7,9.4C-293.8-2139.6-294.8-2137.5-294.4-2137.1z"/>
								<path id="Path_163" class="st9" d="M-295.9-2154.8c-0.1,2,0.3,6.5,1.9,8.7c0.6,0.8,1.6,0.2,1.7-0.9c0.2-1.6,0.3-3.5,0.3-3.5
									l2.2-1.5c0.5-0.1,0.8-0.5,0.8-0.9l0.1-1.2c0,0,7.3-0.6,8-6.2l0,0c1.2,2.5,1.2,7.6,1.2,8c0,0,0,0,0,0
									c0.9-0.6,1.7-3.8,1.3-7.5c-0.5-4.2-2.1-7.5-6.4-8.2C-287.9-2168.5-295.1-2165.5-295.9-2154.8z"/>
								
									<ellipse id="Ellipse_440" transform="matrix(0.217 -0.9762 0.9762 0.217 1870.9501 -1968.9326)" class="st8" cx="-291.9" cy="-2150.8" rx="2.7" ry="2.1"/>
								
									<ellipse id="Ellipse_441" transform="matrix(0.217 -0.9762 0.9762 0.217 1879.2632 -1983.522)" class="st9" cx="-296.9" cy="-2163.3" rx="6.1" ry="4.6"/>
							</g>
							<path id="Path_164" class="st10" d="M-286.7-2143.6c0.3,0.1,0.5,0.1,0.8,0.1c0,0,0,0,0,0c-1.7-0.4-4.4-2.3-4.7-3.3
								c-0.3,1.9,3.3,4.9,3.3,3.8C-287.2-2143.5-287-2143.7-286.7-2143.6z"/>
						</g>
					</g>
				</g>
			</g>
		</g>
	</g>
</g>
</svg>
