<?xml version="1.0" encoding="utf-8"?>
<!-- Generator: Adobe Illustrator 26.0.1, SVG Export Plug-In . SVG Version: 6.00 Build 0)  -->
<svg version="1.1" id="products" xmlns="http://www.w3.org/2000/svg" xmlns:xlink="http://www.w3.org/1999/xlink" x="0px" y="0px"
	 viewBox="0 0 460 460" style="enable-background:new 0 0 460 460;" xml:space="preserve">
<style type="text/css">
	.st0{opacity:0.2;fill:#BABAB2;}
	.st1{fill:url(#SVGID_1_);}
	.st2{fill:#BCDD6B;}
	.st3{fill:none;stroke:#373754;stroke-width:1.9642;stroke-linecap:round;stroke-linejoin:round;}
	.st4{fill:url(#SVGID_00000125572154017858727170000011214166488405191100_);}
	.st5{fill:url(#SVGID_00000171708447231175653960000008105778374761988486_);}
	.st6{fill:#FF5C74;}
	.st7{fill:url(#SVGID_00000174576353352599407010000016763775837137357999_);}
	.st8{fill:url(#SVGID_00000135685614762762389650000002601257277805674913_);}
	.st9{fill:url(#SVGID_00000010272038189598562760000016160055644388635554_);}
	.st10{fill:url(#SVGID_00000170250088432377329290000005188053242853000377_);}
	
		.st11{clip-path:url(#SVGID_00000108268359606252459000000010866065492905169035_);fill:none;stroke:#373754;stroke-width:1.9642;stroke-linejoin:round;}
	.st12{fill:url(#SVGID_00000146494892701210888790000007911908959980168377_);}
	.st13{fill:url(#SVGID_00000010306587292875687120000008524801064655319733_);}
	.st14{fill:url(#SVGID_00000155825991298160604130000015614099099727184562_);}
	.st15{fill:url(#SVGID_00000016064454037445117550000009512708716395589042_);}
	.st16{fill:url(#SVGID_00000170253775565962695620000000461852518577886355_);}
	.st17{fill:url(#SVGID_00000090978785059784479560000017662408421201244588_);}
	
		.st18{clip-path:url(#SVGID_00000160178039068860727890000006207305069013403556_);fill:none;stroke:#373754;stroke-width:1.9642;stroke-linejoin:round;}
	.st19{fill:url(#SVGID_00000075151531564026575770000015550948053528558475_);}
	.st20{fill:url(#SVGID_00000114061418421321635770000017089609997919411873_);}
	.st21{fill:url(#SVGID_00000043425297351513400350000005914231964464955304_);}
	.st22{fill:url(#SVGID_00000123408409988702371370000016068912394012140197_);}
	.st23{fill:url(#SVGID_00000057854959338765435840000009309085874561987243_);}
	
		.st24{clip-path:url(#SVGID_00000099629158679925779090000004526473308629755837_);fill:none;stroke:#373754;stroke-width:1.9642;stroke-linejoin:round;}
	.st25{fill:url(#SVGID_00000078047168662830183750000001534072865887577008_);}
	.st26{fill:url(#SVGID_00000144317244837587381160000009287421463962726312_);}
	.st27{fill:url(#SVGID_00000152231898824696520320000005167031595257507231_);}
	.st28{fill:#FFFFFF;}
	.st29{opacity:0.4;fill:#FFFFFF;}
	.st30{opacity:0.2;fill:#FFFFFF;}
	.st31{opacity:0.1;fill:#FFFFFF;}
	.st32{fill:none;stroke:#FF5C74;stroke-width:2.0776;stroke-linecap:round;stroke-linejoin:round;stroke-miterlimit:10;}
	.st33{fill:none;stroke:#FFD93B;stroke-width:2;stroke-linecap:round;stroke-linejoin:round;stroke-miterlimit:10;}
	.st34{fill:#FFD93B;}
	.st35{fill:#232424;}
	.st36{fill:url(#SVGID_00000157292018254231150770000006747511523372193172_);}
	.st37{fill:url(#SVGID_00000013194050441548371810000002605708746533212087_);}
	.st38{fill:#6D6D6D;}
	.st39{fill:url(#SVGID_00000000199771656977480230000000941365095647756428_);}
	.st40{fill:url(#SVGID_00000061469313898488206880000004498179233974859689_);}
	.st41{fill:url(#SVGID_00000147933405357442555450000000940743186223274173_);}
	.st42{fill:url(#SVGID_00000164505356062228011390000003837721089017913235_);}
	.st43{fill:#CACAC4;}
	.st44{opacity:0.75;fill:url(#SVGID_00000136394248750666557840000001000765129090371739_);}
	.st45{opacity:0.75;fill:url(#SVGID_00000080908904940428210800000001277105038397391749_);}
	.st46{opacity:0.75;fill:url(#SVGID_00000093889101680998808790000002760460177426784394_);}
	.st47{opacity:0.75;fill:url(#SVGID_00000072249851889749850190000014831635139243081662_);}
	.st48{opacity:0.75;fill:url(#SVGID_00000103264199026480003360000005599852490629801147_);}
	.st49{fill:url(#SVGID_00000075154414176948330000000003170816872201923227_);}
	.st50{fill:url(#SVGID_00000097490121783121904190000011415927908636607621_);}
	.st51{opacity:0.5;fill:url(#SVGID_00000172434596785792882530000017685369157744631173_);}
	.st52{opacity:0.8;fill:url(#SVGID_00000080173214116828773120000004573854516296532904_);}
	.st53{fill:none;stroke:#FFFFFF;stroke-width:0.3391;stroke-miterlimit:10;}
	.st54{fill:#FAFCFC;}
	.st55{fill:#9E9FA1;}
	.st56{fill:none;stroke:#D3E3E5;stroke-width:0.3212;stroke-miterlimit:10;}
	.st57{fill:none;stroke:#D3E3E5;stroke-width:1.2653;stroke-miterlimit:10;}
	.st58{fill:none;stroke:#D3E3E5;stroke-width:0.4218;stroke-miterlimit:10;}
	.st59{fill:none;stroke:#D3E3E5;stroke-width:0.4218;stroke-miterlimit:10;stroke-dasharray:0.4216,0.8431;}
	.st60{fill:#5B5C5F;}
	.st61{fill:#383834;}
	.st62{fill:none;stroke:#898A8C;stroke-width:0.8435;stroke-miterlimit:10;}
	.st63{fill:none;stroke:#E7E9E9;stroke-width:0.8435;stroke-linecap:round;stroke-linejoin:round;stroke-miterlimit:10;}
	.st64{fill:#4B4B65;}
	.st65{fill:#55556E;}
	.st66{fill:none;stroke:#000000;stroke-width:0.3212;stroke-miterlimit:10;}
	.st67{fill:#69697F;}
	.st68{fill:#5F5F76;}
	.st69{fill:#373754;}
	.st70{fill:none;stroke:#C8CDD3;stroke-width:0.5;stroke-linecap:round;stroke-linejoin:round;}
	.st71{fill:none;stroke:#C8CDD3;stroke-width:0.5;stroke-linecap:round;stroke-linejoin:round;stroke-dasharray:1.9601,3.9201;}
	.st72{fill:none;stroke:#C8CDD3;stroke-width:0.5;stroke-linecap:round;stroke-linejoin:round;stroke-dasharray:1.9658,3.9315;}
	
		.st73{fill:none;stroke:#C8CDD3;stroke-width:0.5;stroke-linecap:round;stroke-linejoin:round;stroke-miterlimit:10;stroke-dasharray:2,4;}
	.st74{fill:#C9E489;}
	.st75{fill:#CC8E56;}
	.st76{fill:#D7EBA6;}
	.st77{fill:#BB7842;}
	.st78{fill:url(#SVGID_00000148619096692696085850000010257402622676413346_);}
	.st79{opacity:0.75;}
	.st80{fill:url(#SVGID_00000105388462802315368480000011785631473331542179_);}
	.st81{fill:url(#SVGID_00000076596761328815433340000008602860296298626484_);}
</style>
<ellipse class="st0" cx="376.1" cy="428.1" rx="10.9" ry="0.9"/>
<ellipse class="st0" cx="418.8" cy="428.9" rx="28.5" ry="1.3"/>
<radialGradient id="SVGID_1_" cx="384.5124" cy="75.8173" r="51.2709" gradientUnits="userSpaceOnUse">
	<stop  offset="0" style="stop-color:#FFD93B"/>
	<stop  offset="0.2805" style="stop-color:#FFE57A;stop-opacity:0.7187"/>
	<stop  offset="0.6244" style="stop-color:#FFF3C1;stop-opacity:0.3738"/>
	<stop  offset="0.8723" style="stop-color:#FFFCEE;stop-opacity:0.1252"/>
	<stop  offset="0.9971" style="stop-color:#FFFFFF;stop-opacity:0"/>
</radialGradient>
<circle class="st1" cx="384.5" cy="75.8" r="51.3"/>
<path class="st2" d="M382.9,135.9c-10.2,6.8-21.1,31.6-26.6,34.3c-3.7,1.8-29.9-19.9-35-22.7l-7.4,8.4c0,0,35.4,35.1,45.3,38.7
	c9.9,3.6,32.3-39.6,35-44.3C397.8,143.7,391.1,130.4,382.9,135.9z"/>
<g>
	<path class="st3" d="M208.1,154.2c0-3.9,3.2-7.1,7.1-7.1"/>
	<path class="st3" d="M247.6,141.6c0-3.9,3.2-7.1,7.1-7.1"/>
	<path class="st3" d="M284.8,130.5c0-3.9,3.2-7.1,7.1-7.1"/>
	<g>
		
			<linearGradient id="SVGID_00000030488103556699105410000006225226469743783835_" gradientUnits="userSpaceOnUse" x1="312.4805" y1="124.1975" x2="109.6824" y2="184.3495">
			<stop  offset="0" style="stop-color:#FFFFFF"/>
			<stop  offset="1" style="stop-color:#BABABA"/>
		</linearGradient>
		<path style="fill:url(#SVGID_00000030488103556699105410000006225226469743783835_);" d="M116.5,186.3c-1,0-1.9-0.6-2.2-1.7
			c-0.4-1.2,0.3-2.6,1.5-3l194.6-61c1.2-0.4,2.6,0.3,3,1.5c0.4,1.2-0.3,2.6-1.5,3l-194.6,61C117,186.3,116.7,186.3,116.5,186.3z"/>
	</g>
	<g>
		
			<radialGradient id="SVGID_00000109028563818615107170000003633905807400473748_" cx="292.5479" cy="150.3409" r="26.8556" gradientUnits="userSpaceOnUse">
			<stop  offset="0.4641" style="stop-color:#A0D7FF"/>
			<stop  offset="1" style="stop-color:#6F82BA"/>
		</radialGradient>
		<path style="fill:url(#SVGID_00000109028563818615107170000003633905807400473748_);" d="M292.1,154c-7,0-13.5-1.3-18.7-3.6
			c0,10.2,8.3,18.5,18.6,18.5c10.2,0,18.5-8.3,18.6-18.5C305.3,152.6,299,154,292.1,154z"/>
		<path class="st3" d="M292,123.4c3.9,0,7.1,3.2,7.1,7.1c0,4.7-7.5,11.5-7.5,17.4"/>
		<path class="st6" d="M273,150.5h-3.6c-8,0-15.7,3.1-21.4,8.7l-26.6,23.2l18.5,18.9l17.7-13.7v71.1h68v-71.1l17.7,13.7
			c0,0,19.7-17.7,18.5-18.9c0,0,0,0,0,0l-26.6-23.2c-5.8-5.5-13.4-8.6-21.4-8.6h-3.6c0,0-3.2,14-18.5,14S273,150.5,273,150.5z"/>
		
			<radialGradient id="SVGID_00000065775180169468616930000015630064213520344499_" cx="292.131" cy="150.341" r="26.8306" gradientUnits="userSpaceOnUse">
			<stop  offset="0.4156" style="stop-color:#FF9BAA"/>
			<stop  offset="1" style="stop-color:#FF5C74"/>
		</radialGradient>
		<path style="fill:url(#SVGID_00000065775180169468616930000015630064213520344499_);" d="M291.7,154c-7,0-13.5-1.3-18.7-3.6
			c0,10.2,8.3,18.5,18.5,18.5c10.2,0,18.4-8.3,18.5-18.5C304.9,152.6,298.6,154,291.7,154z"/>
		
			<radialGradient id="SVGID_00000163751700281177468740000004361851409025941160_" cx="575.4203" cy="505.3131" r="23.124" gradientTransform="matrix(0.4466 0.4371 -0.1588 0.1619 49.569 -138.7283)" gradientUnits="userSpaceOnUse">
			<stop  offset="0.2938" style="stop-color:#CDEAFF"/>
			<stop  offset="1" style="stop-color:#A0D7FF"/>
		</radialGradient>
		<path style="fill:url(#SVGID_00000163751700281177468740000004361851409025941160_);" d="M239.9,201.2c-1.1,1.1-6.1-2.3-11.3-7.5
			c-5.1-5.2-8.4-10.3-7.3-11.4s6.1,2.3,11.3,7.5C237.7,195,241,200.2,239.9,201.2z"/>
		
			<radialGradient id="SVGID_00000113325315367778840790000016596081639754402739_" cx="692.0861" cy="387.1919" r="29.3824" gradientTransform="matrix(-0.4372 0.4465 0.1267 0.124 607.7932 -163.3125)" gradientUnits="userSpaceOnUse">
			<stop  offset="0" style="stop-color:#FF5C74"/>
			<stop  offset="1" style="stop-color:#D9034E"/>
		</radialGradient>
		<path style="fill:url(#SVGID_00000113325315367778840790000016596081639754402739_);" d="M343.2,201.2c1.1,1.1,6.1-2.3,11.3-7.5
			c5.1-5.2,8.4-10.3,7.3-11.4c-1.1-1.1-6.1,2.3-11.3,7.5C345.4,195,342.1,200.2,343.2,201.2z"/>
		<g id="tanktop_00000121254459264049777880000009294876218532564110_">
			
				<radialGradient id="SVGID_00000168090568709949328090000003750287916125433515_" cx="287.917" cy="260.8438" r="47.9343" gradientTransform="matrix(0.9529 0 0 0.2388 18.0808 198.5659)" gradientUnits="userSpaceOnUse">
				<stop  offset="0" style="stop-color:#FF5C74"/>
				<stop  offset="1" style="stop-color:#D9034E"/>
			</radialGradient>
			
				<ellipse style="fill:url(#SVGID_00000168090568709949328090000003750287916125433515_);" cx="291.7" cy="258.7" rx="34.2" ry="3.5"/>
		</g>
		<g>
			<defs>
				<path id="SVGID_00000085221840207798557850000016993482212162728374_" d="M273,150.5c0,10.2,8.3,18.5,18.5,18.5
					c10.2,0,18.4-8.3,18.5-18.5v-5.5h-36.7L273,150.5z"/>
			</defs>
			<clipPath id="SVGID_00000127025507393649664220000009093738729742174143_">
				<use xlink:href="#SVGID_00000085221840207798557850000016993482212162728374_"  style="overflow:visible;"/>
			</clipPath>
			
				<path style="clip-path:url(#SVGID_00000127025507393649664220000009093738729742174143_);fill:none;stroke:#373754;stroke-width:1.9642;stroke-linejoin:round;" d="
				M311.9,156.4l-13.7-7c-3.9-2-8.5-2-12.4,0l-14.2,7.3"/>
		</g>
	</g>
	<g>
		
			<radialGradient id="SVGID_00000063633170361885247300000004493587254812215478_" cx="255.3291" cy="161.4184" r="26.8556" gradientUnits="userSpaceOnUse">
			<stop  offset="0.4641" style="stop-color:#A0D7FF"/>
			<stop  offset="1" style="stop-color:#6F82BA"/>
		</radialGradient>
		<path style="fill:url(#SVGID_00000063633170361885247300000004493587254812215478_);" d="M254.9,165.1c-7,0-13.5-1.3-18.7-3.6
			c0,10.2,8.3,18.5,18.6,18.5c10.2,0,18.5-8.3,18.6-18.5C268.1,163.7,261.8,165.1,254.9,165.1z"/>
		<path class="st3" d="M254.7,134.4c3.9,0,7.1,3.2,7.1,7.1c0,4.7-7.5,11.5-7.5,17.4"/>
		
			<linearGradient id="SVGID_00000055665624096223334610000018124150411371921307_" gradientUnits="userSpaceOnUse" x1="295.6143" y1="147.8954" x2="225.3853" y2="246.8545">
			<stop  offset="0" style="stop-color:#A0D7FF"/>
			<stop  offset="1" style="stop-color:#B8E1FF"/>
		</linearGradient>
		<path style="fill:url(#SVGID_00000055665624096223334610000018124150411371921307_);" d="M235.8,161.5h-3.6
			c-8,0-15.7,3.1-21.4,8.7l-26.6,23.2l18.5,18.9l17.7-13.7v71.1h68v-71.1l17.7,13.7c0,0,19.7-17.7,18.5-18.9c0,0,0,0,0,0l-26.6-23.2
			c-5.8-5.5-13.4-8.6-21.4-8.6h-3.6c0,0-3.2,14-18.5,14S235.8,161.5,235.8,161.5z"/>
		
			<radialGradient id="SVGID_00000067228029715425488880000001637687278170056630_" cx="254.9122" cy="161.4185" r="26.8306" gradientUnits="userSpaceOnUse">
			<stop  offset="0.4641" style="stop-color:#A0D7FF"/>
			<stop  offset="1" style="stop-color:#6F82BA"/>
		</radialGradient>
		<path style="fill:url(#SVGID_00000067228029715425488880000001637687278170056630_);" d="M254.5,165.1c-7,0-13.5-1.3-18.7-3.6
			c0,10.2,8.3,18.5,18.5,18.5c10.2,0,18.4-8.3,18.5-18.5C267.7,163.7,261.3,165.1,254.5,165.1z"/>
		
			<radialGradient id="SVGID_00000054226882956411350290000000389915735946683776_" cx="546.4188" cy="558.8869" r="23.124" gradientTransform="matrix(0.4466 0.4371 -0.1588 0.1619 33.8088 -123.6461)" gradientUnits="userSpaceOnUse">
			<stop  offset="0" style="stop-color:#A0D7FF"/>
			<stop  offset="1" style="stop-color:#6F82BA"/>
		</radialGradient>
		<path style="fill:url(#SVGID_00000054226882956411350290000000389915735946683776_);" d="M202.7,212.3c-1.1,1.1-6.1-2.3-11.3-7.5
			c-5.1-5.2-8.4-10.3-7.3-11.4s6.1,2.3,11.3,7.5C200.5,206.1,203.8,211.2,202.7,212.3z"/>
		
			<radialGradient id="SVGID_00000170251445762421470460000017159243207721731471_" cx="744.5809" cy="361.5971" r="23.124" gradientTransform="matrix(-0.4466 0.4371 0.1588 0.1619 594.6752 -178.3312)" gradientUnits="userSpaceOnUse">
			<stop  offset="0" style="stop-color:#A0D7FF"/>
			<stop  offset="1" style="stop-color:#6F82BA"/>
		</radialGradient>
		<path style="fill:url(#SVGID_00000170251445762421470460000017159243207721731471_);" d="M306,212.3c1.1,1.1,6.1-2.3,11.3-7.5
			c5.1-5.2,8.4-10.3,7.3-11.4c-1.1-1.1-6.1,2.3-11.3,7.5C308.1,206.1,304.9,211.2,306,212.3z"/>
		<g id="tanktop_00000170959698986819519800000001917271512097456548_">
			
				<radialGradient id="SVGID_00000175304811115318042390000008523129222439816322_" cx="247.7599" cy="271.5617" r="47.5578" gradientTransform="matrix(0.9529 0 0 0.1995 18.0808 217.3921)" gradientUnits="userSpaceOnUse">
				<stop  offset="0.2938" style="stop-color:#A0D7FF"/>
				<stop  offset="1" style="stop-color:#6F82BA"/>
			</radialGradient>
			
				<ellipse style="fill:url(#SVGID_00000175304811115318042390000008523129222439816322_);" cx="254.5" cy="269.7" rx="34.2" ry="3.5"/>
		</g>
		<g>
			<defs>
				<path id="SVGID_00000020375065384262551550000016770779775564927104_" d="M235.8,161.5c0,10.2,8.3,18.5,18.5,18.5
					c10.2,0,18.4-8.3,18.5-18.5V156h-36.7L235.8,161.5z"/>
			</defs>
			<clipPath id="SVGID_00000168097469461890742640000012378671678130625941_">
				<use xlink:href="#SVGID_00000020375065384262551550000016770779775564927104_"  style="overflow:visible;"/>
			</clipPath>
			
				<path style="clip-path:url(#SVGID_00000168097469461890742640000012378671678130625941_);fill:none;stroke:#373754;stroke-width:1.9642;stroke-linejoin:round;" d="
				M274.7,167.5l-13.7-7c-3.9-2-8.5-2-12.4,0l-14.2,7.3"/>
		</g>
	</g>
	<g>
		
			<radialGradient id="SVGID_00000002360317734622620120000009625688780272477568_" cx="215.8301" cy="174.0092" r="26.8556" gradientUnits="userSpaceOnUse">
			<stop  offset="0.4641" style="stop-color:#A0D7FF"/>
			<stop  offset="1" style="stop-color:#6F82BA"/>
		</radialGradient>
		<path style="fill:url(#SVGID_00000002360317734622620120000009625688780272477568_);" d="M215.4,177.7c-7,0-13.5-1.3-18.7-3.6
			c0,10.2,8.3,18.5,18.6,18.5c10.2,0,18.5-8.3,18.6-18.5C228.6,176.3,222.3,177.7,215.4,177.7z"/>
		<path class="st3" d="M215.2,147c3.9,0,7.1,3.2,7.1,7.1c0,4.7-7.5,11.5-7.5,17.4"/>
		<path class="st6" d="M196.3,174.1h-3.6c-8,0-15.7,3.1-21.4,8.7L144.6,206l18.5,18.9l17.7-13.7v71.1h68v-71.1l17.7,13.7
			c0,0,19.7-17.7,18.5-18.9c0,0,0,0,0,0l-26.6-23.2c-5.8-5.5-13.4-8.6-21.4-8.6h-3.6c0,0-3.2,14-18.5,14S196.3,174.1,196.3,174.1z"
			/>
		
			<radialGradient id="SVGID_00000096743128809939881000000011962502606337024692_" cx="215.4133" cy="174.0092" r="26.8306" gradientUnits="userSpaceOnUse">
			<stop  offset="0.4156" style="stop-color:#FF9BAA"/>
			<stop  offset="1" style="stop-color:#FF5C74"/>
		</radialGradient>
		<path style="fill:url(#SVGID_00000096743128809939881000000011962502606337024692_);" d="M215,177.7c-7,0-13.5-1.3-18.7-3.6
			c0,10.2,8.3,18.5,18.5,18.5c10.2,0,18.4-8.3,18.5-18.5C228.2,176.3,221.8,177.7,215,177.7z"/>
		
			<radialGradient id="SVGID_00000172404559559583330780000012588307741600337334_" cx="516.5948" cy="616.6539" r="23.124" gradientTransform="matrix(0.4466 0.4371 -0.1588 0.1619 16.8015 -107.3699)" gradientUnits="userSpaceOnUse">
			<stop  offset="0.2938" style="stop-color:#CDEAFF"/>
			<stop  offset="1" style="stop-color:#A0D7FF"/>
		</radialGradient>
		<path style="fill:url(#SVGID_00000172404559559583330780000012588307741600337334_);" d="M163.2,224.9c-1.1,1.1-6.1-2.3-11.3-7.5
			c-5.1-5.2-8.4-10.3-7.3-11.4c1.1-1.1,6.1,2.3,11.3,7.5C161,218.7,164.3,223.8,163.2,224.9z"/>
		
			<radialGradient id="SVGID_00000130607510340802675080000003760236784339117235_" cx="805.0395" cy="327.5098" r="29.3824" gradientTransform="matrix(-0.4372 0.4465 0.1267 0.124 588.0146 -182.6774)" gradientUnits="userSpaceOnUse">
			<stop  offset="0" style="stop-color:#FF5C74"/>
			<stop  offset="1" style="stop-color:#D9034E"/>
		</radialGradient>
		<path style="fill:url(#SVGID_00000130607510340802675080000003760236784339117235_);" d="M266.5,224.9c1.1,1.1,6.1-2.3,11.3-7.5
			c5.1-5.2,8.4-10.3,7.3-11.4c-1.1-1.1-6.1,2.3-11.3,7.5C268.7,218.7,265.4,223.8,266.5,224.9z"/>
		<g id="tanktop_00000040564705615754951730000015416603312476969864_">
			
				<radialGradient id="SVGID_00000067946438638859518650000005025597961000232865_" cx="207.4083" cy="284.512" r="47.9343" gradientTransform="matrix(0.9529 0 0 0.2388 18.0808 216.5832)" gradientUnits="userSpaceOnUse">
				<stop  offset="0" style="stop-color:#FF5C74"/>
				<stop  offset="1" style="stop-color:#D9034E"/>
			</radialGradient>
			
				<ellipse style="fill:url(#SVGID_00000067946438638859518650000005025597961000232865_);" cx="215" cy="282.3" rx="34.2" ry="3.5"/>
		</g>
		<g>
			<defs>
				<path id="SVGID_00000088813717272792498090000012145918119141959086_" d="M196.3,174.1c0,10.2,8.3,18.5,18.5,18.5
					c10.2,0,18.4-8.3,18.5-18.5v-5.5h-36.7L196.3,174.1z"/>
			</defs>
			<clipPath id="SVGID_00000108309380876951385260000001039510480467490440_">
				<use xlink:href="#SVGID_00000088813717272792498090000012145918119141959086_"  style="overflow:visible;"/>
			</clipPath>
			
				<path style="clip-path:url(#SVGID_00000108309380876951385260000001039510480467490440_);fill:none;stroke:#373754;stroke-width:1.9642;stroke-linejoin:round;" d="
				M235.2,180.1l-13.7-7c-3.9-2-8.5-2-12.4,0l-14.2,7.3"/>
		</g>
	</g>
</g>
<g>
	
		<linearGradient id="SVGID_00000153702340187882860780000017301969198480684676_" gradientUnits="userSpaceOnUse" x1="85.0822" y1="130.6378" x2="56.7549" y2="333.148" gradientTransform="matrix(0.9996 -2.917653e-02 2.917653e-02 0.9996 -10.8954 4.2922)">
		<stop  offset="0" style="stop-color:#DBDBDB"/>
		<stop  offset="0.4261" style="stop-color:#FFFFFF"/>
		<stop  offset="1" style="stop-color:#BABABA"/>
	</linearGradient>
	<path style="fill:url(#SVGID_00000153702340187882860780000017301969198480684676_);" d="M56.1,328.7
		c-25.9-13.1-42.5-47.2-39.7-87.7c3.6-52.4,38.5-95.4,77.8-96.2c3.4-0.1,6.8,0.2,10.1,0.8l21.3,6.3L81.1,337.4L56.1,328.7z"/>
	
		<linearGradient id="SVGID_00000147222652205129301810000009475861844526457234_" gradientUnits="userSpaceOnUse" x1="109.1667" y1="242.8938" x2="305.8663" y2="138.4353" gradientTransform="matrix(0.9996 -2.917653e-02 2.917653e-02 0.9996 -10.8954 4.2922)">
		<stop  offset="0" style="stop-color:#FFFFFF"/>
		<stop  offset="1" style="stop-color:#BABABA"/>
	</linearGradient>
	<path style="fill:url(#SVGID_00000147222652205129301810000009475861844526457234_);" d="M175,243.3c-3.6,52.4-38.5,95.4-77.8,96.2
		s-68.3-41-64.6-93.4s38.5-95.4,77.8-96.2S178.7,191,175,243.3z"/>
	
		<linearGradient id="SVGID_00000182500918156469210470000016707519217965825211_" gradientUnits="userSpaceOnUse" x1="144.2331" y1="170.2683" x2="80.2615" y2="302.864" gradientTransform="matrix(0.9996 -2.917653e-02 2.917653e-02 0.9996 -10.8954 4.2922)">
		<stop  offset="0" style="stop-color:#535047"/>
		<stop  offset="1" style="stop-color:#212223"/>
	</linearGradient>
	<path style="fill:url(#SVGID_00000182500918156469210470000016707519217965825211_);" d="M166.5,243.5
		c-3.1,46.2-33.2,84.2-67.2,84.8s-59-36.2-55.9-82.4c3.1-46.2,33.2-84.2,67.2-84.8S169.6,197.3,166.5,243.5z"/>
	
		<ellipse transform="matrix(0.1652 -0.9863 0.9863 0.1652 -153.714 307.8048)" class="st28" cx="105" cy="244.7" rx="6.7" ry="4.9"/>
	<path class="st28" d="M105,244.7L105,244.7c-1.2,0.3-2.3-0.7-2.5-2.3l-4.8-62.8c-0.1-1.6,0.8-3.2,2-3.6l0,0
		c1.2-0.3,2.3,0.7,2.5,2.3l4.8,62.8C107.1,242.8,106.2,244.4,105,244.7z"/>
	<path class="st28" d="M107.7,245L107.7,245c0.6-1.5,2-2.3,3.1-1.6l29.2,17.8c1.1,0.7,1.4,2.4,0.8,4l0,0c-0.6,1.5-2,2.3-3.1,1.6
		l-29.2-17.8C107.5,248.3,107.1,246.5,107.7,245z"/>
	<path class="st29" d="M105,244.7L105,244.7c-1.1,0.8-2.5,0.2-2.9-1.2l-17.8-56.5c-0.5-1.5,0.1-3.3,1.2-4.1v0
		c1.1-0.8,2.5-0.2,2.9,1.2l17.8,56.5C106.7,242.1,106.1,243.9,105,244.7z"/>
	<path class="st30" d="M105,244.7L105,244.7c-0.9,1.3-2.3,1.4-3.2,0.3l-32.5-41.8c-0.8-1.1-0.8-3,0.1-4.3l0,0
		c0.9-1.3,2.3-1.4,3.2-0.3l32.5,41.8C105.9,241.5,105.9,243.4,105,244.7z"/>
	<path class="st31" d="M105,244.7L105,244.7c-0.6,1.5-2,2.2-3.1,1.5l-41-26.2c-1.1-0.7-1.4-2.5-0.8-4h0c0.6-1.5,2-2.2,3.1-1.5
		l41,26.2C105.2,241.4,105.6,243.2,105,244.7z"/>
	<g>
		<line class="st32" x1="108.3" y1="250.4" x2="73.5" y2="191"/>
		
			<ellipse transform="matrix(0.1652 -0.9863 0.9863 0.1652 -153.7417 307.7982)" class="st6" cx="105" cy="244.7" rx="3.7" ry="2.7"/>
	</g>
	<path class="st33" d="M68.2,245.4C70.1,218,88,195.4,108.2,195"/>
	<path class="st34" d="M64,240.1l2.9,14.7c0.2,0.8,1,0.8,1.3,0.1l6-14.9c0.4-0.9-0.3-1.7-0.9-1.2l-4.2,3.6c-0.3,0.2-0.6,0.2-0.8,0
		l-3.1-3.4C64.6,238.5,63.8,239.3,64,240.1z"/>
	<path class="st35" d="M110.6,161.1c-22.1,0.4-42.5,16.6-55,40.6c12.7-21.4,32.2-35.6,53.1-36c34.4-0.6,59.9,36.4,56.8,82.6
		c-0.3,3.9-0.7,7.7-1.3,11.5c1.1-5.3,1.9-10.7,2.3-16.3C169.6,197.3,144.6,160.4,110.6,161.1z"/>
</g>
<g>
	
		<radialGradient id="SVGID_00000121247024810819405240000005656818133275674250_" cx="170.6545" cy="274.6536" r="56.1149" gradientUnits="userSpaceOnUse">
		<stop  offset="0" style="stop-color:#FFD93B"/>
		<stop  offset="0.2805" style="stop-color:#FFE57A;stop-opacity:0.7187"/>
		<stop  offset="0.6244" style="stop-color:#FFF3C1;stop-opacity:0.3738"/>
		<stop  offset="0.8723" style="stop-color:#FFFCEE;stop-opacity:0.1252"/>
		<stop  offset="0.9971" style="stop-color:#FFFFFF;stop-opacity:0"/>
	</radialGradient>
	<circle style="fill:url(#SVGID_00000121247024810819405240000005656818133275674250_);" cx="170.7" cy="274.7" r="56.1"/>
	
		<radialGradient id="SVGID_00000000192084370063126150000012921978094154330789_" cx="173.0213" cy="324.0463" r="3.084" gradientUnits="userSpaceOnUse">
		<stop  offset="0" style="stop-color:#F0F0EE"/>
		<stop  offset="1" style="stop-color:#BABAB2"/>
	</radialGradient>
	<path style="fill:url(#SVGID_00000000192084370063126150000012921978094154330789_);" d="M174.7,320.8c-0.4,1.9-2.1,3.3-4,3.3
		c-2,0-3.6-1.4-4-3.3H174.7z"/>
	<path class="st38" d="M170.7,323.9c-0.6,0-1.1-0.1-1.6-0.2c0.5,0.5,1,0.8,1.6,0.8c0.6,0,1.2-0.3,1.6-0.8
		C171.8,323.8,171.3,323.9,170.7,323.9z"/>
	<g>
		
			<linearGradient id="SVGID_00000168083538002278324980000010277495719579384242_" gradientUnits="userSpaceOnUse" x1="162.4394" y1="311.5065" x2="178.5688" y2="311.5065">
			<stop  offset="0" style="stop-color:#EBEBE9"/>
			<stop  offset="0.1784" style="stop-color:#BABAB2"/>
			<stop  offset="0.7641" style="stop-color:#F0F0EE"/>
			<stop  offset="1" style="stop-color:#BABAB2"/>
		</linearGradient>
		<polygon style="fill:url(#SVGID_00000168083538002278324980000010277495719579384242_);" points="178.1,311.5 178,311.5 
			178.1,311.5 		"/>
		
			<linearGradient id="SVGID_00000171708360631730728670000009226332731702509487_" gradientUnits="userSpaceOnUse" x1="162.4394" y1="311.5065" x2="178.5688" y2="311.5065">
			<stop  offset="0" style="stop-color:#EBEBE9"/>
			<stop  offset="0.1784" style="stop-color:#BABAB2"/>
			<stop  offset="0.7641" style="stop-color:#F0F0EE"/>
			<stop  offset="1" style="stop-color:#BABAB2"/>
		</linearGradient>
		<polygon style="fill:url(#SVGID_00000171708360631730728670000009226332731702509487_);" points="163.4,311.5 163.4,311.5 
			163.4,311.5 		"/>
		
			<linearGradient id="SVGID_00000057119354901426573230000015953980789819150506_" gradientUnits="userSpaceOnUse" x1="162.4394" y1="316.735" x2="178.5688" y2="316.735">
			<stop  offset="0" style="stop-color:#EBEBE9"/>
			<stop  offset="0.1784" style="stop-color:#BABAB2"/>
			<stop  offset="0.7641" style="stop-color:#F0F0EE"/>
			<stop  offset="1" style="stop-color:#BABAB2"/>
		</linearGradient>
		<path style="fill:url(#SVGID_00000057119354901426573230000015953980789819150506_);" d="M178.1,316.2c0.6-0.3,0.9-0.5,0.9-0.8
			c0-0.3-0.3-0.6-0.9-0.8c-0.3-0.1-0.3-0.6,0-0.7c0.6-0.2,0.9-0.5,0.9-0.8c0-0.3-0.3-0.6-0.9-0.8c-0.3-0.1-0.3-0.6,0-0.7
			c-1.4,0.6-4.1,1-7.3,1c-3.2,0-5.9-0.4-7.3-1c0.3,0.1,0.3,0.6,0,0.7c-0.6,0.3-0.9,0.5-0.9,0.8c0,0.3,0.3,0.6,0.9,0.8
			c0.3,0.1,0.3,0.6,0,0.7c-0.6,0.2-0.9,0.5-0.9,0.8c0,0.3,0.3,0.6,0.9,0.8c0.3,0.1,0.3,0.6,0,0.7c-0.6,0.3-0.9,0.5-0.9,0.8
			c0,0.3,0.3,0.6,1,0.8h0c0.3,0.1,0.3,0.6,0,0.7c-0.6,0.3-0.9,0.5-0.9,0.8c0,1,3.7,1.8,8.3,1.8c4.6,0,8.3-0.8,8.3-1.8
			c0-0.3-0.3-0.6-0.9-0.8c-0.3-0.1-0.3-0.6,0-0.7h0c0.6-0.3,1-0.5,1-0.8c0-0.3-0.3-0.6-0.9-0.8C177.7,316.8,177.7,316.4,178.1,316.2
			z"/>
	</g>
	
		<radialGradient id="SVGID_00000029048136155774295240000006176481194310937023_" cx="177.5689" cy="263.8416" r="23.0318" gradientUnits="userSpaceOnUse">
		<stop  offset="0" style="stop-color:#FFFFFF"/>
		<stop  offset="1" style="stop-color:#FFE26C"/>
	</radialGradient>
	<path style="fill:url(#SVGID_00000029048136155774295240000006176481194310937023_);" d="M179,310.7c0-10.8,14.7-21.7,14.7-34.3
		s-10.3-22.9-22.9-22.9c-12.7,0-22.9,10.3-22.9,22.9s14.7,23.6,14.7,34.3H179z"/>
	<polygon class="st43" points="178.1,311.5 178,311.5 178.1,311.5 	"/>
	<polygon class="st43" points="163.4,311.5 163.4,311.5 163.4,311.5 	"/>
	
		<linearGradient id="SVGID_00000178916558943703916640000017061742593186559631_" gradientUnits="userSpaceOnUse" x1="163.1702" y1="315.7546" x2="178.7052" y2="315.7546">
		<stop  offset="0" style="stop-color:#BABAB2"/>
		<stop  offset="1" style="stop-color:#595959"/>
	</linearGradient>
	<path style="opacity:0.75;fill:url(#SVGID_00000178916558943703916640000017061742593186559631_);" d="M171.2,317.2
		c3.5-0.5,6.5-1.4,7.5-2.3c-0.2-0.1-0.4-0.2-0.6-0.3c-0.3-0.1-0.3-0.4-0.1-0.6c0,0,0,0,0,0c-1.4,0.8-3.8,1.6-6.5,2.1
		c-3.5,0.7-6.5,0.8-7.8,0.3c0.1,0.2,0.1,0.5-0.2,0.6c-0.1,0-0.2,0.1-0.3,0.1C164.3,317.6,167.5,317.7,171.2,317.2z"/>
	
		<linearGradient id="SVGID_00000041264588624723411390000017438070780267003801_" gradientUnits="userSpaceOnUse" x1="163.517" y1="320.3146" x2="178.6698" y2="320.3146">
		<stop  offset="0" style="stop-color:#BABAB2"/>
		<stop  offset="1" style="stop-color:#595959"/>
	</linearGradient>
	<path style="opacity:0.75;fill:url(#SVGID_00000041264588624723411390000017438070780267003801_);" d="M171,321.9
		c3.6-0.2,6.6-1.4,7.7-2.2c-0.2-0.1-0.4-0.2-0.6-0.3c-0.3-0.1-0.3-0.4-0.1-0.6c0,0,0,0,0,0c-1.4,0.8-3.8,1.6-6.5,2.1
		c-3.5,0.7-6.6,0.7-7.8,0.2C163.7,321.2,167.2,322.1,171,321.9z"/>
	
		<linearGradient id="SVGID_00000114768278985568958990000002022134292887013526_" gradientUnits="userSpaceOnUse" x1="163.1312" y1="313.3924" x2="178.6778" y2="313.3924">
		<stop  offset="0" style="stop-color:#BABAB2"/>
		<stop  offset="1" style="stop-color:#595959"/>
	</linearGradient>
	<path style="opacity:0.75;fill:url(#SVGID_00000114768278985568958990000002022134292887013526_);" d="M171.2,314.8
		c3.5-0.5,6.5-1.4,7.5-2.3c-0.2-0.1-0.4-0.2-0.6-0.3c-0.3-0.1-0.3-0.4-0.1-0.6c0,0,0,0,0,0c-1.4,0.8-3.8,1.6-6.5,2.1
		c-3.5,0.7-6.5,0.7-7.8,0.3c0.1,0.2,0.1,0.5-0.1,0.6c-0.1,0-0.2,0.1-0.3,0.1C164.2,315.3,167.4,315.4,171.2,314.8z"/>
	
		<linearGradient id="SVGID_00000075162118082062618800000014719844875939327160_" gradientUnits="userSpaceOnUse" x1="163.1312" y1="311.0663" x2="178.6778" y2="311.0663">
		<stop  offset="0" style="stop-color:#BABAB2"/>
		<stop  offset="1" style="stop-color:#595959"/>
	</linearGradient>
	<path style="opacity:0.75;fill:url(#SVGID_00000075162118082062618800000014719844875939327160_);" d="M171.2,312.5
		c3.5-0.5,6.5-1.4,7.5-2.3c-0.2-0.1-0.4-0.2-0.6-0.3c-0.3-0.1-0.3-0.4-0.1-0.6c0,0,0,0,0,0c-1.4,0.8-3.8,1.6-6.5,2.1
		c-3.5,0.7-6.5,0.7-7.8,0.3c0.1,0.2,0.1,0.5-0.1,0.6c-0.1,0-0.2,0.1-0.3,0.1C164.2,313,167.4,313,171.2,312.5z"/>
	
		<linearGradient id="SVGID_00000059309290421991315070000007785472366026086067_" gradientUnits="userSpaceOnUse" x1="163.1639" y1="318.124" x2="178.6778" y2="318.124">
		<stop  offset="0" style="stop-color:#BABAB2"/>
		<stop  offset="1" style="stop-color:#595959"/>
	</linearGradient>
	<path style="opacity:0.75;fill:url(#SVGID_00000059309290421991315070000007785472366026086067_);" d="M178.1,316.9
		c-0.3-0.1-0.3-0.4-0.1-0.6c0,0,0,0,0,0c-1.4,0.8-3.8,1.6-6.5,2.1c-3.5,0.7-6.5,0.7-7.8,0.3c0.1,0.2,0.1,0.5-0.1,0.6
		c-0.1,0-0.2,0.1-0.3,0.1c1.1,0.6,4.3,0.7,8,0.1c3.5-0.5,6.5-1.4,7.5-2.3C178.5,317.1,178.3,317,178.1,316.9z"/>
	
		<linearGradient id="SVGID_00000039120163559291857840000007743639623637130941_" gradientUnits="userSpaceOnUse" x1="162.4394" y1="310.7359" x2="178.5688" y2="310.7359">
		<stop  offset="0" style="stop-color:#EBEBE9"/>
		<stop  offset="0.1784" style="stop-color:#BABAB2"/>
		<stop  offset="0.7641" style="stop-color:#F0F0EE"/>
		<stop  offset="1" style="stop-color:#BABAB2"/>
	</linearGradient>
	<path style="fill:url(#SVGID_00000039120163559291857840000007743639623637130941_);" d="M162.3,308.9c0.1,0.7,0.1,1.4,0.1,1.8
		c0,1,3.7,1.8,8.3,1.8h0c4.6,0,8.3-0.8,8.3-1.8c0-0.4,0-1.1,0.1-1.8H162.3z"/>
	<path class="st43" d="M170.7,311.6"/>
	
		<linearGradient id="SVGID_00000030479969807332873140000013526374050480081055_" gradientUnits="userSpaceOnUse" x1="177.5369" y1="308.0124" x2="164.2007" y2="309.5546">
		<stop  offset="0" style="stop-color:#EBEBE9"/>
		<stop  offset="0.1784" style="stop-color:#BABAB2"/>
		<stop  offset="0.7641" style="stop-color:#F0F0EE"/>
		<stop  offset="1" style="stop-color:#BABAB2"/>
	</linearGradient>
	
		<ellipse style="fill:url(#SVGID_00000030479969807332873140000013526374050480081055_);" cx="170.7" cy="308.8" rx="8.4" ry="1.9"/>
	
		<radialGradient id="SVGID_00000017492343096075437930000016374762523265402011_" cx="183.3761" cy="336.3682" r="5.6394" gradientTransform="matrix(0.9354 0 0 0.83 1.6649 29.4795)" gradientUnits="userSpaceOnUse">
		<stop  offset="0" style="stop-color:#BABAB2"/>
		<stop  offset="1" style="stop-color:#595959"/>
	</radialGradient>
	
		<ellipse style="opacity:0.5;fill:url(#SVGID_00000017492343096075437930000016374762523265402011_);" cx="170.7" cy="308.7" rx="7.3" ry="1.3"/>
	
		<linearGradient id="SVGID_00000180362007528623810210000008378490312676096438_" gradientUnits="userSpaceOnUse" x1="170.7002" y1="295.0775" x2="170.7002" y2="308.789">
		<stop  offset="0" style="stop-color:#FFD93B;stop-opacity:0"/>
		<stop  offset="1" style="stop-color:#FFE26C"/>
	</linearGradient>
	<path style="opacity:0.8;fill:url(#SVGID_00000180362007528623810210000008378490312676096438_);" d="M193.6,276.4
		c0-12.7-45.8-12.7-45.8,0c0,11.9,13,22.2,14.5,32.4c0,0,0,0,0,0c0,1.1,3.8,1.9,8.4,1.9c4.6,0,8.3-0.8,8.4-1.9l0,0
		C180.6,298.7,193.6,288.3,193.6,276.4z"/>
	<path class="st53" d="M172.8,310.3c0-25.3,4.7-37.3,8.3-34.9c3.1,2.1-3.8,8.3-10.3,8.3h0c-6.5,0-13.4-6.2-10.3-8.3
		c3.5-2.4,8.3,9.6,8.3,34.9"/>
</g>
<ellipse class="st0" cx="95.9" cy="402.4" rx="43" ry="9.6"/>
<g>
	<g>
		<polygon class="st6" points="377.7,382.8 377.1,406.8 362.2,409.5 362.9,385.7 		"/>
		<g>
			<g>
				<g>
					<path class="st54" d="M379.5,421.6v1.3h-52.5c0-0.4,0-0.9,0.1-1.3H379.5z"/>
					<path class="st54" d="M379.5,428.9H327c0,0,0-6,0-6h52.5V428.9z"/>
					<path class="st55" d="M379,410.9c0.3,2.1,0.5,4.9,0.5,8.6v2.1h-10.7c0,0,0,0,0,0C368.9,415.8,373.4,411.2,379,410.9z"/>
				</g>
				<g>
					<g>
						<path class="st56" d="M379.6,428.9H327V423h52.6C379.6,423,379.5,428.9,379.6,428.9z"/>
						<line class="st57" x1="375.6" y1="426.1" x2="379.5" y2="426.1"/>
						<g>
							<g>
								<line class="st58" x1="336.9" y1="426.1" x2="337.1" y2="426.1"/>
								<line class="st59" x1="338" y1="426.1" x2="374.2" y2="426.1"/>
								<line class="st58" x1="374.7" y1="426.1" x2="374.9" y2="426.1"/>
							</g>
						</g>
					</g>
					<g>
						<line class="st56" x1="329" y1="424.4" x2="329" y2="429"/>
						<line class="st56" x1="330.9" y1="424.4" x2="330.9" y2="429"/>
						<line class="st56" x1="332.7" y1="424.4" x2="332.7" y2="429"/>
						<line class="st56" x1="334.6" y1="424.4" x2="334.6" y2="429"/>
					</g>
				</g>
			</g>
			<g>
				<path class="st60" d="M361.2,406.4c13.1,1.4,16.3-1.6,16.3-1.6s1,1.4,1.6,6c-5.7,0.3-10.2,4.9-10.2,10.7c0,0,0,0,0,0h-30.2v-7.9
					C347.6,412.3,354.8,409.4,361.2,406.4z"/>
				<path class="st61" d="M334.6,414.3c0,0,1.5-0.2,4-0.6v7.9h-11.4C327.8,417.9,330.8,414.9,334.6,414.3z"/>
			</g>
			<g>
				<g>
					<circle class="st62" cx="343.4" cy="415.1" r="0.8"/>
					<line class="st63" x1="343.4" y1="415.1" x2="342.8" y2="412.8"/>
				</g>
				<g>
					<circle class="st62" cx="347.3" cy="414" r="0.8"/>
					<line class="st63" x1="347.3" y1="414" x2="346.6" y2="411.7"/>
				</g>
				<g>
					<circle class="st62" cx="351.3" cy="412.8" r="0.8"/>
					<line class="st63" x1="351.3" y1="412.8" x2="350.6" y2="410.5"/>
				</g>
				<g>
					<circle class="st62" cx="355.2" cy="411.8" r="0.8"/>
					<line class="st63" x1="355.2" y1="411.8" x2="354.4" y2="409.1"/>
				</g>
			</g>
		</g>
	</g>
	<g>
		<polygon class="st6" points="432,375.6 437.1,399.1 423.2,405.1 418.3,381.8 		"/>
		<g>
			<g>
				<g>
					<path class="st54" d="M441.6,415l0.2,1.3l-52.1,6.3c0-0.4-0.1-0.9,0-1.3L441.6,415z"/>
					<path class="st54" d="M442.5,422.3l-52.1,6.3c0,0-0.7-5.9-0.7-6l52.1-6.3L442.5,422.3z"/>
					<path class="st55" d="M439.8,404.4c0.5,2.1,1.1,4.8,1.5,8.5l0.3,2.1l-10.6,1.3c0,0,0,0,0,0
						C430.3,410.6,434.2,405.4,439.8,404.4z"/>
				</g>
				<g>
					<g>
						<path class="st56" d="M442.5,422.2l-52.2,6.4l-0.7-5.9l52.2-6.4C441.8,416.4,442.4,422.3,442.5,422.2z"/>
						<line class="st57" x1="438.2" y1="419.9" x2="442.1" y2="419.5"/>
						<g>
							<g>
								<line class="st58" x1="399.8" y1="424.6" x2="400" y2="424.6"/>
								<line class="st59" x1="400.9" y1="424.5" x2="436.8" y2="420.1"/>
								<line class="st58" x1="437.3" y1="420.1" x2="437.5" y2="420"/>
							</g>
						</g>
					</g>
					<g>
						<line class="st56" x1="391.8" y1="423.9" x2="392.3" y2="428.5"/>
						<line class="st56" x1="393.6" y1="423.6" x2="394.2" y2="428.3"/>
						<line class="st56" x1="395.4" y1="423.4" x2="396" y2="428.1"/>
						<line class="st56" x1="397.3" y1="423.2" x2="397.8" y2="427.8"/>
					</g>
				</g>
			</g>
			<g>
				<path class="st60" d="M421.5,402.2c13.2-0.2,16-3.5,16-3.5s1.1,1.3,2.3,5.8c-5.6,0.9-9.5,6.1-8.8,11.8c0,0,0,0,0,0l-30,3.7
					l-1-7.8C408.7,409.6,415.5,405.9,421.5,402.2z"/>
				<path class="st61" d="M396.1,413.2c0,0,1.5-0.4,3.9-1.1l1,7.8l-11.3,1.4C389.8,417.6,392.4,414.3,396.1,413.2z"/>
			</g>
			<g>
				<g>
					<circle class="st62" cx="404.9" cy="412.9" r="0.8"/>
					<line class="st63" x1="404.9" y1="412.9" x2="404" y2="410.7"/>
				</g>
				<g>
					<circle class="st62" cx="408.6" cy="411.4" r="0.8"/>
					<line class="st63" x1="408.6" y1="411.4" x2="407.7" y2="409.2"/>
				</g>
				<g>
					<circle class="st62" cx="412.5" cy="409.7" r="0.8"/>
					<line class="st63" x1="412.5" y1="409.7" x2="411.5" y2="407.5"/>
				</g>
				<g>
					<circle class="st62" cx="416.2" cy="408.2" r="0.8"/>
					<line class="st63" x1="416.2" y1="408.2" x2="415.1" y2="405.7"/>
				</g>
			</g>
		</g>
	</g>
	<path class="st64" d="M383.8,234.3c0,0,12.4,77,13.3,80.9c0.8,3.9,20.4,69.5,20.4,69.5l16.6-4.4l-12.5-65.2c0,0-2.4-48.4,2.6-60.6
		c3.6-13.9-0.4-21.5-0.4-21.5L383.8,234.3z"/>
	<path class="st65" d="M423,226.7c0.5,12.9-3.1,23.1-6.6,28c-3.5,4.9-14.8,15.8-14.8,15.8L382,326.5l-3.1,62.1l-19.2,0l-1.2-68.4
		c0-0.6,0-1.1,0.1-1.7l15.4-84.4L423,226.7z"/>
	<path class="st66" d="M377.7,347.1"/>
	<polygon class="st67" points="358.4,392.8 380.3,392.8 381.1,376.2 358.4,376.2 	"/>
	<polygon class="st68" points="415.5,388.5 436.9,383.9 434.2,367.4 412,372.3 	"/>
	<polygon class="st69" points="422.2,387 424.1,386.6 421.4,370.2 419,370.7 	"/>
	<polygon class="st64" points="374.2,392.8 376.2,392.8 376.8,376.1 374.3,376.1 	"/>
	<g>
		<g>
			<path class="st70" d="M405.4,230.4c0.1,0.3,0.1,0.7,0.2,1"/>
			<path class="st71" d="M406,235.2c0.2,8.1-3.1,16.1-6.6,21.3c-2.5,3.6-5.5,6-7.6,7.4"/>
			<path class="st70" d="M390.1,264.9c-0.6,0.3-0.9,0.4-0.9,0.4l-0.3,1"/>
			<polyline class="st72" points="387.7,270.1 370.9,322.5 370,371.6 			"/>
			<line class="st70" x1="370" y1="373.6" x2="369.9" y2="374.6"/>
		</g>
	</g>
	<polyline class="st73" points="422.1,365 409.4,313.3 407.3,264.3 	"/>
	<g>
		<path class="st74" d="M428,236.8c-4.9,8.9-62,5.8-60.5-3.4c1.2-7.2,6.7-35.4,7.1-62.5c0.3-16.8-9.5-34.9,23.1-45.8
			C425.2,116,435.6,208.7,428,236.8z"/>
		<path class="st75" d="M384.7,124.6c0.8,6.6-1.5,10.6-0.7,12.1c2.6,5,14.5-2.2,18.9-10.4c0.8-1.5-1.7-3.3-2.5-5.9
			c-1.4-5.1-0.8-11.7-0.8-11.7S384.4,122.2,384.7,124.6z"/>
		<path class="st75" d="M313.1,186.2c-3.4-0.1-11.7-6.1-13.8-9.1c-2.1-2.9-3.7-3.7-2.8,0c1.2,4.7,4.2,5.5,1.5,6.7s-8.3-0.1-10.5-1
			c-1.9-0.8-4-0.4-0.7,2.1c2.4,1.7,8.7,3.2,8.7,3.2c-4.9,0.7-9.9-1.8-11.3-2.6c-2.1-1.2-2.5-0.2-1.1,1.6c1.2,1.6,4,3.8,10.4,4.2
			c-4.6,0.9-6.3,0.4-8.8-0.5c-2.5-0.9-1.8,1.2,2.4,2.8c3.7,1.4,7.6,0.7,7.6,0.7c-2.9,1.4-5.7,0.8-6.7,0.6c-2-0.4-0.8,1.6,2.9,2.1
			c3,0.4,17.1-2.1,21.3-3.5L313.1,186.2z"/>
		<path class="st76" d="M401.6,132.4c9.2,0,14.8,11.6,10.5,31.4c-4.2,19.7-27.4,52.3-37.3,50.1s-69.1-16.4-69.1-16.4l2.8-18.3
			c29.6,5.6,58.1,10.7,63,7.2C376.6,182.9,395.3,133.1,401.6,132.4z"/>
		<path class="st77" d="M399.7,108.6c0,0-15.2,13.6-14.9,16c0.3,2.4,0.2,4.5,0,6.2C397.7,123.1,399.7,108.6,399.7,108.6z"/>
		<g>
			
				<linearGradient id="SVGID_00000019678485340379394630000010186445713374836913_" gradientUnits="userSpaceOnUse" x1="383.6051" y1="77.507" x2="407.4041" y2="77.507" gradientTransform="matrix(0.9833 -0.182 0.182 0.9833 -17.2024 63.5134)">
				<stop  offset="1.189721e-02" style="stop-color:#F3BF0F"/>
				<stop  offset="0.4876" style="stop-color:#FFD93B"/>
				<stop  offset="1" style="stop-color:#F3BF0F"/>
			</linearGradient>
			<polygon style="fill:url(#SVGID_00000019678485340379394630000010186445713374836913_);" points="372.2,59.6 376.2,77.3 
				389.8,79.8 396.5,60.4 388.6,65.9 385.6,54.9 379.4,64.8 			"/>
			<path class="st75" d="M366.8,93.2c-0.5,4.5,1.1,9.4,0.9,12.3c-0.3,3.6-1.1,6.5-1.1,7.1c0,0.9,2.4,1.7,3.8,1s2.1,12.3,5.2,12.4
				c3.1,0.1,11.6,1.1,20.2-11.6c0,0,4.8-21.2-3.5-26.5S367.5,87.7,366.8,93.2z"/>
			<path d="M401.6,84.5c-0.6-4.5-3.1-5.2-5.8-4.9c-1.8,0.2-1.8-1.6-3.1-4c-1.3-2.4-4.3-3-8-1c-1.3,0.7-1.6-2.9-4.7-3.7
				c-1.4-0.4-2.2-0.2-3.3,0c-0.9,0.2-3.2,1.7-3.5,2c-2.4,2.1-3.2,0.1-7.7,0.2c-2.4,0.1-5,1.2-5.9,3.3c-0.9,2.1-0.7,3.2-0.4,4.9
				c0.3,1.8,1.3,3.3,2.7,4.2c1.6,1.6,2.4,2.7,1.2,3.6c-1.9,1.3-2.2,3.3-0.7,5.9c2.1,4,9.4,3,13-0.9c1.2-1.5,5.3-2.1,6.9-0.4
				c3.2,3.3,3.5,4.4,3.1,6.7c-0.4,2.3,0.9,6,1.5,9.1c0.6,3.1-6.1,5.6-8.3,5.5c-2.8-2.2-8.3-1.4-8.3-1.4s-1.2,13.6,5.9,13.5
				c7.1-0.1,15.1-3.9,13.8-10.8c-1.3-6.9-3.7-15.3-1.8-16.4l5.1,5.3c0,0,1.2,8.1,2.9,8.8c0,0,2.2-1.2,3.6-2.9c6.5-8.1,5-12,5-15.1
				C405,92.1,402.2,88.8,401.6,84.5z"/>
			<circle class="st75" cx="391.9" cy="102.2" r="4.3"/>
		</g>
	</g>
</g>
<path class="st75" d="M320,148.9c-4.4-2.9-4.3,1.6-10.5,1.6c-2,0-1.3,1.9,1.1,2.2c2,0.3,7.4-1.1,7.4-1.1L320,148.9z"/>
<g class="st79">
	<g>
		
			<linearGradient id="SVGID_00000043426426197606267450000012623688716930940576_" gradientUnits="userSpaceOnUse" x1="205.3115" y1="464.9323" x2="205.3115" y2="356.6469" gradientTransform="matrix(1 0 0 1 90.5714 -273.6549)">
			<stop  offset="0.2549" style="stop-color:#FFFFFF;stop-opacity:0"/>
			<stop  offset="0.4874" style="stop-color:#DDF1FF;stop-opacity:0.3872"/>
			<stop  offset="0.8552" style="stop-color:#A0D7FF"/>
		</linearGradient>
		<path style="fill:url(#SVGID_00000043426426197606267450000012623688716930940576_);" d="M351.3,131c-1.1,0-2.2,0.1-3.2,0.2
			c-2.9-19.5-19.7-34.5-40-34.5c-15.8,0-29.4,9-36.1,22.2c-5.7-5-13.2-8-21.3-8c-18,0-32.5,14.6-32.5,32.5s14.6,32.5,32.5,32.5
			c10.7,0,20.1-5.1,26.1-13.1c7.4,9.1,18.7,14.9,31.4,14.9c10,0,19.2-3.6,26.2-9.6c4.1,4.8,10.2,7.9,17.1,7.9
			c12.4,0,22.5-10.1,22.5-22.5C373.7,141,363.7,131,351.3,131z"/>
	</g>
</g>
<g class="st79">
	<g>
		
			<linearGradient id="SVGID_00000038409547285641527890000011572439284141793703_" gradientUnits="userSpaceOnUse" x1="360.5558" y1="177.6119" x2="360.5558" y2="43.4336" gradientTransform="matrix(-1 0 0 1 514.699 0)">
			<stop  offset="0.2549" style="stop-color:#FFFFFF;stop-opacity:0"/>
			<stop  offset="0.4874" style="stop-color:#DDF1FF;stop-opacity:0.3872"/>
			<stop  offset="0.8552" style="stop-color:#A0D7FF"/>
		</linearGradient>
		<path style="fill:url(#SVGID_00000038409547285641527890000011572439284141793703_);" d="M210.3,78c-10.1,0-19.3,3.7-26.4,9.9
			c-8.3-16.3-25.2-27.5-44.7-27.5c-25.2,0-46,18.6-49.6,42.8c-1.3-0.2-2.6-0.3-4-0.3c-15.4,0-27.8,12.5-27.8,27.8
			c0,15.4,12.5,27.8,27.8,27.8c8.5,0,16-3.8,21.1-9.7c8.8,7.5,20.1,12,32.5,12c15.7,0,29.6-7.2,38.8-18.4
			c7.3,9.8,19.1,16.2,32.3,16.2c22.2,0,40.3-18,40.3-40.3C250.6,96,232.5,78,210.3,78z"/>
	</g>
</g>
</svg>
