<?xml version="1.0" encoding="utf-8"?>
<!-- Generator: Adobe Illustrator 26.0.0, SVG Export Plug-In . SVG Version: 6.00 Build 0)  -->
<svg version="1.1" xmlns="http://www.w3.org/2000/svg" xmlns:xlink="http://www.w3.org/1999/xlink" x="0px" y="0px"
	 viewBox="0 0 425 428" style="enable-background:new 0 0 425 428;" xml:space="preserve">
<style type="text/css">
	.st0{fill:url(#SVGID_1_);}
	.st1{fill:url(#SVGID_00000002349686409454683590000007240920815139174794_);}
	.st2{fill:url(#SVGID_00000032646648216388491500000007350691349144443788_);}
	.st3{fill:url(#SVGID_00000060711519050449702120000018284092410650059445_);}
	.st4{fill:url(#SVGID_00000005987843758536165570000007675605051856792218_);}
	.st5{fill:url(#SVGID_00000078031193793540205060000001655231112495278995_);}
	.st6{fill:url(#SVGID_00000067222587313184056250000010174033494390039438_);}
	.st7{fill:url(#SVGID_00000127042469914417738790000017789440213388590249_);}
	.st8{fill:url(#SVGID_00000153676501500088145330000000243989750714561961_);}
	.st9{fill:url(#SVGID_00000021082523256668681700000012605320312770505650_);}
	.st10{fill:url(#SVGID_00000171699977760441711430000012370356701210411415_);}
	.st11{fill:url(#SVGID_00000170957876298813043090000016336000552232174997_);}
	.st12{fill:url(#SVGID_00000176017310065676363980000011136057314562182575_);}
	.st13{fill:url(#SVGID_00000121261907954884608660000013073894927990662791_);}
	.st14{fill:url(#SVGID_00000152241924187093134270000018086794216527743147_);}
	.st15{fill:url(#SVGID_00000147210250229185818340000000394692111533438645_);}
	.st16{fill:url(#SVGID_00000131336520695937417430000012219795020743237546_);}
	.st17{fill:url(#SVGID_00000103951120188949398030000012017080934882170302_);}
	.st18{fill:url(#SVGID_00000103950746919692307410000010029350475508646537_);}
	.st19{fill:url(#SVGID_00000109013569165973847590000003553007022543556530_);}
	.st20{opacity:0.4;fill:#373754;enable-background:new    ;}
	.st21{fill:url(#Path_133_00000016791610699888485160000001885496688195311282_);}
	.st22{fill:url(#Path_134_00000157302096397815454380000013949158995021827496_);}
	.st23{fill:url(#Path_135_00000177445322865926678970000012619105721870105019_);}
	.st24{fill:#FFFFFF;}
	.st25{fill:#9D58D4;}
	.st26{clip-path:url(#SVGID_00000061433789026971554820000005512651382699342730_);}
	.st27{fill:#FFD93B;}
	.st28{fill:#D67D67;}
	.st29{fill:#434344;}
	.st30{fill:#B86247;}
	.st31{opacity:0.3;fill:#373754;enable-background:new    ;}
	.st32{fill:url(#Path_153_00000128458859167831102220000008204386224222179755_);}
	.st33{fill:url(#Union_2_00000021102003059168428610000011374368843531472007_);}
	.st34{clip-path:url(#SVGID_00000106125715453268008620000014091903157963858111_);}
	.st35{fill:#A0D7FF;}
	.st36{fill:#FF8597;}
	.st37{fill:#E46C82;}
</style>
<g id="earth">
	<g>
		<radialGradient id="SVGID_1_" cx="294.4384" cy="155.8051" r="249.8242" gradientUnits="userSpaceOnUse">
			<stop  offset="0" style="stop-color:#A0D7FF"/>
			<stop  offset="0.6184" style="stop-color:#69A5D0"/>
			<stop  offset="0.8402" style="stop-color:#5B7FBA"/>
			<stop  offset="1" style="stop-color:#69A5D0"/>
		</radialGradient>
		<circle class="st0" cx="231" cy="212.4" r="166.4"/>
		<g>
			
				<radialGradient id="SVGID_00000072969016631839034040000009844371653818181535_" cx="313.2759" cy="102.0298" r="270.3496" gradientUnits="userSpaceOnUse">
				<stop  offset="0" style="stop-color:#DBEDB1"/>
				<stop  offset="0.6406" style="stop-color:#BCDD6B"/>
				<stop  offset="1" style="stop-color:#8FCB2B"/>
			</radialGradient>
			<path style="fill:url(#SVGID_00000072969016631839034040000009844371653818181535_);" d="M359.7,116.2c0.4,0.6,1.4,0.3,1.4-0.4
				c0-2.4,0-4.8,0-7.1c-1.9-2.4-4-4.8-6-7.2c-0.6,1.7-1.9,3.7-1.3,4.8C355.4,109.7,357.6,112.9,359.7,116.2z"/>
			
				<radialGradient id="SVGID_00000005244962211570034790000018415644565883994545_" cx="313.2759" cy="102.0298" r="270.3496" gradientUnits="userSpaceOnUse">
				<stop  offset="0" style="stop-color:#DBEDB1"/>
				<stop  offset="0.6406" style="stop-color:#BCDD6B"/>
				<stop  offset="1" style="stop-color:#8FCB2B"/>
			</radialGradient>
			<path style="fill:url(#SVGID_00000005244962211570034790000018415644565883994545_);" d="M226.9,46.6c8.3,0.5,16.6,1.2,24.9,1.8
				c0-0.3,0-0.8,0-1.1C245,46.4,238,46,231,46c-2.2,0-4.3,0.1-6.5,0.1c-1.4,0.3-2.9,0.9-4.4,1.3C222.4,47.1,224.7,46.5,226.9,46.6z"
				/>
			
				<radialGradient id="SVGID_00000122679442243308936870000017470174323757556667_" cx="114.6755" cy="110.5168" r="1.700837e-02" gradientUnits="userSpaceOnUse">
				<stop  offset="0" style="stop-color:#DBEDB1"/>
				<stop  offset="0.6406" style="stop-color:#BCDD6B"/>
				<stop  offset="1" style="stop-color:#8FCB2B"/>
			</radialGradient>
			<path style="fill:url(#SVGID_00000122679442243308936870000017470174323757556667_);" d="M114.7,110.5
				C114.7,110.5,114.7,110.5,114.7,110.5C114.7,110.5,114.7,110.5,114.7,110.5L114.7,110.5z"/>
			
				<radialGradient id="SVGID_00000023996642989554864030000003855929590646283926_" cx="313.2759" cy="102.0298" r="270.3496" gradientUnits="userSpaceOnUse">
				<stop  offset="0" style="stop-color:#DBEDB1"/>
				<stop  offset="0.6406" style="stop-color:#BCDD6B"/>
				<stop  offset="1" style="stop-color:#8FCB2B"/>
			</radialGradient>
			<path style="fill:url(#SVGID_00000023996642989554864030000003855929590646283926_);" d="M296.8,83.6c0,0-0.4,0.1-0.4,0.2
				c0,0.3,0,0.5,0,0.8c0.3-0.1,0.5-0.3,0.8-0.4C297.1,84,297,83.8,296.8,83.6z"/>
			
				<radialGradient id="SVGID_00000047760199081402105380000001574940866152461751_" cx="313.2759" cy="102.0298" r="270.3496" gradientUnits="userSpaceOnUse">
				<stop  offset="0" style="stop-color:#DBEDB1"/>
				<stop  offset="0.6406" style="stop-color:#BCDD6B"/>
				<stop  offset="1" style="stop-color:#8FCB2B"/>
			</radialGradient>
			<path style="fill:url(#SVGID_00000047760199081402105380000001574940866152461751_);" d="M229.6,77.6c-1.9,1.1-3.5,2-6.4,3.7
				c6.1,5.1,11.2,9.5,17.4,14.7c0.2-2.7,0.2-3.5,0.3-4.3c0.4-4.5,0.5-9.3,6.7-9.9c0.6-0.1,1.1-1.8,1.7-2.8c0.3-0.6,0.5-1.6,0.9-1.7
				c5.9-1.1,2.5-3.3-0.5-5.8c2.7,0,4.3,0,5.9,0c-3.9-1-3.9-3.4-3-5.2c-3-3-5.1-6.3-8.1-7.8c-3.1-1.7-7.1-1.7-10.7-2.5
				c-0.3,0.2-0.6,0.2-0.9,0.2c-2.6,0.9-5.3,1.7-7.9,2.7c-3.8,1.4-8.1,2.3-10.4,6.7c3.3,0.5,7-0.1,8.4,1.4
				C225.9,70,227.6,74.1,229.6,77.6z"/>
			
				<radialGradient id="SVGID_00000170237409941222321870000001846713652249910147_" cx="313.2759" cy="102.0298" r="270.3496" gradientUnits="userSpaceOnUse">
				<stop  offset="0" style="stop-color:#DBEDB1"/>
				<stop  offset="0.6406" style="stop-color:#BCDD6B"/>
				<stop  offset="1" style="stop-color:#8FCB2B"/>
			</radialGradient>
			<path style="fill:url(#SVGID_00000170237409941222321870000001846713652249910147_);" d="M147.6,186.6c3.3,1.2,5.4,1.8,7.5,2.6
				c2.8,1.1,6.5,1.5,8.2,3.6c2.9,3.5,5.9,2.7,9.5,2.4C167.5,188.2,155.3,183.5,147.6,186.6z"/>
			
				<radialGradient id="SVGID_00000107575761907683282040000016840036872939753102_" cx="313.2759" cy="102.0298" r="270.3496" gradientUnits="userSpaceOnUse">
				<stop  offset="0" style="stop-color:#DBEDB1"/>
				<stop  offset="0.6406" style="stop-color:#BCDD6B"/>
				<stop  offset="1" style="stop-color:#8FCB2B"/>
			</radialGradient>
			<path style="fill:url(#SVGID_00000107575761907683282040000016840036872939753102_);" d="M188.9,200.4c-4.8-1.4-8.6-2.4-11-3.1
				c-2.5,2.1-4.3,3.5-6,4.9c0,0,0,0.2,0,0.2C177.3,202.2,182.9,203.8,188.9,200.4z"/>
			
				<radialGradient id="SVGID_00000098199607231872101040000009930597858250791588_" cx="313.2759" cy="102.0298" r="270.3496" gradientUnits="userSpaceOnUse">
				<stop  offset="0" style="stop-color:#DBEDB1"/>
				<stop  offset="0.6406" style="stop-color:#BCDD6B"/>
				<stop  offset="1" style="stop-color:#8FCB2B"/>
			</radialGradient>
			<path style="fill:url(#SVGID_00000098199607231872101040000009930597858250791588_);" d="M272.2,81.4c-0.9-1-1.8-2.9-2.7-2.9
				c-2.8,0.1-5.6,0.9-8.4,1.4c0,0.7,0,1.3-0.1,2c2.5,0.8,5,2.1,7.6,2.3C269.7,84.4,271,82.4,272.2,81.4z"/>
			
				<radialGradient id="SVGID_00000029746319716157058870000015520130657247487891_" cx="313.2759" cy="102.0298" r="270.3496" gradientUnits="userSpaceOnUse">
				<stop  offset="0" style="stop-color:#DBEDB1"/>
				<stop  offset="0.6406" style="stop-color:#BCDD6B"/>
				<stop  offset="1" style="stop-color:#8FCB2B"/>
			</radialGradient>
			<path style="fill:url(#SVGID_00000029746319716157058870000015520130657247487891_);" d="M258.9,49.1c-0.7-0.3-1.4-0.7-2-1
				c-0.7,0.1-1.4,0.2-2.1,0.3c0,0.3,0,0.5,0.1,0.8C256.2,49.1,257.5,49.1,258.9,49.1z"/>
			
				<radialGradient id="SVGID_00000005227583184347318510000003987628832750575265_" cx="313.2759" cy="102.0298" r="270.3496" gradientUnits="userSpaceOnUse">
				<stop  offset="0" style="stop-color:#DBEDB1"/>
				<stop  offset="0.6406" style="stop-color:#BCDD6B"/>
				<stop  offset="1" style="stop-color:#8FCB2B"/>
			</radialGradient>
			<path style="fill:url(#SVGID_00000005227583184347318510000003987628832750575265_);" d="M185,53.7c0.2-0.1,0.3-0.5,0.4-0.8
				c-0.3-0.1-0.6-0.4-0.8-0.3c-0.2,0.1-0.3,0.5-0.4,0.8C184.4,53.5,184.8,53.7,185,53.7z"/>
			
				<radialGradient id="SVGID_00000150061265964244016780000005700341133344527245_" cx="313.2759" cy="102.0298" r="270.3496" gradientUnits="userSpaceOnUse">
				<stop  offset="0" style="stop-color:#DBEDB1"/>
				<stop  offset="0.6406" style="stop-color:#BCDD6B"/>
				<stop  offset="1" style="stop-color:#8FCB2B"/>
			</radialGradient>
			<path style="fill:url(#SVGID_00000150061265964244016780000005700341133344527245_);" d="M217.2,92c0.1,0.3,0.2,0.7,0.4,0.8
				c0.2,0.1,0.5-0.2,0.8-0.3c-0.1-0.3-0.2-0.7-0.4-0.8C217.9,91.7,217.5,91.9,217.2,92z"/>
			
				<radialGradient id="SVGID_00000043427718951876086940000010112842184108848809_" cx="313.2759" cy="102.0298" r="270.3496" gradientUnits="userSpaceOnUse">
				<stop  offset="0" style="stop-color:#DBEDB1"/>
				<stop  offset="0.6406" style="stop-color:#BCDD6B"/>
				<stop  offset="1" style="stop-color:#8FCB2B"/>
			</radialGradient>
			<path style="fill:url(#SVGID_00000043427718951876086940000010112842184108848809_);" d="M95,166c0.3,0,0.7,0,1,0
				c0-1.6,0-3.2,0-4.8c-0.3,0-0.7,0-1,0C95,162.8,95,164.4,95,166z"/>
			
				<radialGradient id="SVGID_00000133517607248377619510000002675511361986666925_" cx="313.2759" cy="102.0298" r="270.3496" gradientUnits="userSpaceOnUse">
				<stop  offset="0" style="stop-color:#DBEDB1"/>
				<stop  offset="0.6406" style="stop-color:#BCDD6B"/>
				<stop  offset="1" style="stop-color:#8FCB2B"/>
			</radialGradient>
			<path style="fill:url(#SVGID_00000133517607248377619510000002675511361986666925_);" d="M119.3,93.2c-0.6-0.3-1.1-0.8-1.3-0.7
				c-0.4,0.2-0.7,0.7-1,1.1c0.4,0.2,0.8,0.5,1.2,0.4C118.6,94,118.9,93.6,119.3,93.2z"/>
			
				<radialGradient id="SVGID_00000024693222185268461620000003530177154857397652_" cx="313.2759" cy="102.0298" r="270.3496" gradientUnits="userSpaceOnUse">
				<stop  offset="0" style="stop-color:#DBEDB1"/>
				<stop  offset="0.6406" style="stop-color:#BCDD6B"/>
				<stop  offset="1" style="stop-color:#8FCB2B"/>
			</radialGradient>
			<path style="fill:url(#SVGID_00000024693222185268461620000003530177154857397652_);" d="M138.8,75.8c0.2-0.1,0.3-0.5,0.4-0.8
				c-0.3-0.1-0.6-0.4-0.8-0.3c-0.2,0.1-0.3,0.5-0.4,0.8C138.3,75.6,138.6,75.8,138.8,75.8z"/>
			
				<radialGradient id="SVGID_00000082344958625064657090000004587100964909510048_" cx="313.2759" cy="102.0298" r="270.3496" gradientUnits="userSpaceOnUse">
				<stop  offset="0" style="stop-color:#DBEDB1"/>
				<stop  offset="0.6406" style="stop-color:#BCDD6B"/>
				<stop  offset="1" style="stop-color:#8FCB2B"/>
			</radialGradient>
			<path style="fill:url(#SVGID_00000082344958625064657090000004587100964909510048_);" d="M313.1,101.4c-1.5-1.1-3.1-2.2-4.6-3.4
				c-0.3-0.3-0.4-0.9-0.6-1.3c-0.3-0.3-0.7-0.6-1-0.9c-4.7-3.3-9.5-6.6-14.2-9.9c-0.4,1.8-0.8,3.6-1.1,5.1c1.1,1.6,3.4,3.5,3.2,5
				c-0.6,4.5,2.5,6.2,4.9,8.7c4-4.9,4.6-4.8,8.6,0.6C309.8,104,311.4,102.7,313.1,101.4z"/>
			
				<radialGradient id="SVGID_00000116212567568504726890000000987522854469031325_" cx="313.2759" cy="102.0298" r="270.3496" gradientUnits="userSpaceOnUse">
				<stop  offset="0" style="stop-color:#DBEDB1"/>
				<stop  offset="0.6406" style="stop-color:#BCDD6B"/>
				<stop  offset="1" style="stop-color:#8FCB2B"/>
			</radialGradient>
			<path style="fill:url(#SVGID_00000116212567568504726890000000987522854469031325_);" d="M307.4,89c-0.1,0.4-0.3,0.9-0.4,1.3
				c0,0,0,0,0,0c0.2-0.4,0.5-0.7,0.7-1.1C307.6,89.1,307.5,89.1,307.4,89z"/>
			
				<radialGradient id="SVGID_00000078752237356982471220000015836106506429125778_" cx="313.2759" cy="102.0298" r="270.3496" gradientUnits="userSpaceOnUse">
				<stop  offset="0" style="stop-color:#DBEDB1"/>
				<stop  offset="0.6406" style="stop-color:#BCDD6B"/>
				<stop  offset="1" style="stop-color:#8FCB2B"/>
			</radialGradient>
			<path style="fill:url(#SVGID_00000078752237356982471220000015836106506429125778_);" d="M371.4,123.1v7.1
				c-1.2,0.4-2.8,0.8-4.4,1.3c0.2,6.9-0.3,7.2-7.1,5.3c-1.3-0.3-2.9,0.6-4.6,1.1c-0.4-1.2-0.4-2.7-1.2-3.6c-1.4-1.7-2.9-4-4.8-4.5
				c-3-0.8-6.3-0.8-7.6,3.7c-0.8,2.8-1,7-5.8,6.9c-1,0.5-1.9,0.9-2.9,1.4c0,0,0,0,0,0c-1.9,0.5-4.7,0.3-5.7,1.5
				c-2.2,2.8-0.2,9.4,3.2,11.2c3.5,1.9,2.8,3.6,0.4,5.6c-3,2.6-6.4,4.8-9.1,7.7c-1.8,1.9-4,4.9-3.7,7.1c0.7,5,2.8,9.8,4.4,14.6
				c1.1,3.1,2.7,6,3.5,9.2c0.6,2.5,0.2,5.3,0.2,8c0,5.5,1.4,10,6.7,12.8c3.6,2,6.7,4.8,10.1,7.3c1.3,0.4,2.7,0.8,4,1.1
				c5.8,2,7.2-3.5,10.7-6.2c2.8,1.8,4.7,0.9,6.3-2.4c0.7-1.6,3.4-3.7,4.5-3.4c1.9,0.6,3.2,2.9,4.8,4.5l0.7-0.2
				c2.2-0.6,4.4,1,4.6,3.2c0.4,4.4,0.8,8.9,1.2,13.3c4.3,12,3.4,23.8-0.9,35.6c-3.2,9-7.7,17.7-6.5,27.7c15.8-25.5,25-55.5,25-87.8
				C397.4,179.5,387.8,148.9,371.4,123.1z"/>
			
				<radialGradient id="SVGID_00000161593534936603690340000003014551728908287370_" cx="313.2759" cy="102.0298" r="270.3496" gradientUnits="userSpaceOnUse">
				<stop  offset="0" style="stop-color:#DBEDB1"/>
				<stop  offset="0.6406" style="stop-color:#BCDD6B"/>
				<stop  offset="1" style="stop-color:#8FCB2B"/>
			</radialGradient>
			<path style="fill:url(#SVGID_00000161593534936603690340000003014551728908287370_);" d="M326.6,136.5c0.2-3.8,3-2.8,5.1-2.9
				c-0.9-3-1.9-6-2.8-9c1.4-4.2,2.9-8.5,4.7-14.1c4.9,3.2,9.2,5.9,13.5,8.7c0.7,0.4,1.3,0.8,2.2,1.3c-0.2-2.2-0.3-4-0.4-5.8
				c-2.7-0.7-5.4-1.2-7.9-2.3c-1.4-0.6-2.5-2.1-4.5-3.8c3,0.5,4.8,0.8,6.6,1.1c0.2-0.4,0.5-0.9,0.8-1.3c1.8,2.1,3.5,4.1,5.3,6.2
				c1.6,0.7,3.2,1.4,4.8,2.1c0.3-0.4,0.6-0.8,0.9-1.3c-0.8-1.3-1.8-2.6-2.5-4c-2.3-4.7-4.7-9.3-6.7-14.2c-0.3-0.8,1.1-2.4,1.7-3.7
				c-17-16.6-37.5-29.6-60.4-37.8c-1.1-0.3-2.3-0.7-3.4-1.2c-0.1,0-0.1,0-0.2-0.1c2.2,2.1,4.2,2.8,6.4,4.9c0,0.4-0.8,0.2-1.3,0.2
				c-2.2,0.1-3.2,0-5.8,0.1c0.1,1.2,0.2,2.8,0.3,4.4c0,0-0.1,0.1-0.1,0.1c0.3,0.3,0.6,0.6,1,0.9c1.6,1.5,3.3,3,4.9,4.5
				c0.7,0.6,1.3,1.1,2,1.7c0,0,0,0,0,0c0.9,1.7,6.4,0.8,2.9,5c0,0.3,0.1,0.7,0.1,1c0.4,0.6,0.9,1.2,1.3,1.8c2.5,1.9,5.1,3.7,7.6,5.6
				c0.9-0.9,1.7-1.8,3-3.2c1.7,2.6,3.7,5.5,5.6,8.4c0.8-0.7,1.5-1.4,2.3-2.1c-0.9-4.7-3.5-8.3-7.8-11c-4.9-3.1-9.6-6.5-14.4-9.8
				c0.4-0.6,0.8-1.1,1.1-1.7c5,3.4,10,6.7,15,10.1c0.3-0.3,0.7-0.6,1-1c-0.3-1.2-0.7-2.5-1.4-4.8c4.5,5.5,8.4,10.3,12.6,15.5
				c-3.3,3.3-6.2,8-5,14.1c-0.3,0-0.6,0.1-0.9,0.2c0.2,1.5,0.5,3,0.7,4.7c-2.2,1-4.5,1.9-7.3,3.2c2.7,1.7,4.6,2.9,6.5,4.1
				c0.1,2-2.1,4.4,1.1,5.8c0.2,0.1-0.1,1.4-0.2,2.2c-1,1.4-3,3.6-2.7,4.1c3.2,4.6,6.6,9,10.3,13.1
				C323.1,137.5,326.6,136.7,326.6,136.5z"/>
			
				<radialGradient id="SVGID_00000055677132947949617850000016199960139200388224_" cx="313.2759" cy="102.0298" r="270.3496" gradientUnits="userSpaceOnUse">
				<stop  offset="0" style="stop-color:#DBEDB1"/>
				<stop  offset="0.6406" style="stop-color:#BCDD6B"/>
				<stop  offset="1" style="stop-color:#8FCB2B"/>
			</radialGradient>
			<path style="fill:url(#SVGID_00000055677132947949617850000016199960139200388224_);" d="M277.5,269c-1.6-1-3.7-1.3-5.5-1.9l0,0
				c-3-1-6.1-2.2-9.2-2.9c-2.7-0.7-6.5,0.1-8.1-1.5c-3.3-3.2-6.3-4.7-10.9-4c-1.3,0.2-3.5-1.1-4.1-2.4c-2-3.7-3.3-7.7-5.1-11.5
				c-0.7-1.3-2-2.8-3.4-3.2c-4.4-1.1-8.9-1.7-13.4-2.5c-3.2-3-6.3-6-9.6-8.9c-2.3-2-4.7-3.8-7.1-5.6c-0.5-0.4-1.3-0.6-1.9-0.5
				c-9.2,1.6-13.7,0.6-20.6-5c-5.4,3.8-13.4,3.2-17.1,10.9c-2.3-4.4-4.9-7.5-9.4-3.3c-1.5-1.4-2.8-2.5-4-3.7c-2.5-2.2-3.1-4.7-1.8-8
				c0.8-2.1,0.9-4.5,1.1-6.8c0.1-1-0.5-1.9-1.5-2.2c-3.4-1-6.8-1.9-9.9-2.8c2-4.9,3.8-9.5,6-14.9c0.3-0.6-0.3-1.3-1-1.3
				c-2.9,0.3-4.8,0.5-6.1,0.6c-2.3,3.2-4.1,5.8-6.8,9.7c-3.4-3.9-6-6.9-8.6-9.8c-2.8-8.1,2.4-14.6,5.3-21.1
				c1.2-2.6,6.5-3.8,10.2-4.8c2.7-0.7,5.9-0.3,8.7,0.4c4,0.9,8.2,1.9,11.8,3.9c3.1,1.7,2.2,5,1,8.1c-0.3,0.8,1.3,2.3,2,3.5
				c0.8-1,2-1.9,2.2-2.9c0.4-2,0.4-4.2,0-6.2c-1.2-6.2,1.6-10.9,7.7-12.5c6.6-1.8,7.5-3.1,8.4-10.3c0.1-1.2,1.8-2.3,2.8-3.4
				c6.7-4.3,13.3-8.6,20.2-13c0.4,1.5,0.7,2.4,0.9,3.3c4.8-2.2,9.3-4.2,13.8-6.3c-0.4-1-0.2-0.6-0.6-1.5c-2.8,0.9-5.7,1.8-9.6,3
				c0.7-3.8,1.2-6.4,1.7-8.9c-2.2,0.2-4.3,0.3-6.4,0.5c0.7-0.9,1.4-1.9,2.1-2.8c6.2-0.6,12.5-1.1,18.4-1.7c-1.2,1.7-2.7,3.8-4.4,6.3
				c4.2,1.1,7.8,2,11.6,2.9c1.9-3.4,0.3-5.9-5.3-7.3c2.4-7.2,2-7.9-4.9-11.8c-1.2-0.7-1.8-2.5-2.5-3.9c-1.1-2.2-2.1-4.6-3.3-7
				c-5.1,4.9-5.2,4.7-7.4-0.9c-1.2-3-4.4-4.6-7.6-4.4c-1,0.1-1.8,2.4-2.7,3.7c-0.9,1.3-1.9,2.5-2.9,3.8c2.5,5.1-0.9,6.8-6.6,8.7
				c-0.8,2.3,1.3,6.5-5.1,6.4c0.5-3.2,0.9-6,1.4-8.9l-0.3,0c0,0-0.3-0.2-0.3-0.2c-3.3-2.2-6.7-4.4-10.2-6.8
				c1.3-10.9,11.3-9.5,18.3-13.6c-0.4,1.8-0.6,2.9-0.9,4.4c2.3-0.6,4-1,6.1-1.5c-0.7-1.2-1.2-2.1-1.5-2.7c2.7-2.1,5-4.2,7.7-5.9
				c1.1-0.7,3.3-0.7,4.3-0.1c1.1,0.8,2.4,3.1,2,4c-0.6,1.4-2.6,2.2-4,3.3c2.6,4.2,4.5,8.4,9.3,7.1c1.3-0.3,1.6-4.3,2.1-5.6
				c1.6-1.4,2.7-2.4,3.8-3.4c-1.5-1.5-3-3-4.6-4.6c0.6-0.4,1.4-0.9,2.4-1.6c-2.2-1.2-5.1-1.8-6-3.5c-2.5-4.9-6.5-3.6-10.4-3.5
				c0,0-0.3-0.3-0.3-0.3c-2.2,0.2-4.4,0-6.4,0.5c-2.3,0.6-4.4,1.8-6.6,2.8c-0.4-0.7-0.3-0.5-0.8-1.2c1.3-1.2,2.6-2.4,4.4-4.1
				c-1.9-0.6-3.2-1.1-4.5-1.5c0.3-1.3,0.5-2.3,1-4.5c-4.1,2.4-7.2,4.2-9.7,5.6c-2.5-1.2-4.6-2.2-6.8-3.3c1.8-1.7,4.6-3,4-5.8
				c-9.9,3.7-19.4,8.4-28.3,13.9c0.4,0.1,0.9,0.1,1.5,0.2c-3.1,4.2-5.7,7.7-8.3,11.2c0,0,0,0,0,0c-6.9,9.4-13.8,18.9-20.7,28.3
				c0,0,0,0,0,0c-0.6,0.1-1.2,0.2-1.7,0.3c-1.8,1.5-3.9,2.7-5.2,4.5c-2.5,3.6-5.7,7.2-6.6,11.3c-2.4,11-3.8,22.3-5.2,33.5
				c-0.5,4-1.1,8.4,2.6,11.7c-0.2-4.7-0.8-9.1-0.5-13.5c0.2-4,1.3-7.9,2-11.8c0.3-0.1,0.5-0.2,0.8-0.3c0.4,2.7,0.9,5.3,1,8
				c0.2,4.4-0.1,8.8,0.2,13.1c0.3,4.1,2.5,8.5,1.5,12.1c-1.3,4.5-0.5,7.9,1.5,11.6c3.7,5.3,8.4,8.6,15.2,8.3c0.7,0,1.6,1.7,2.3,2.7
				c2.6,3.5,4,8.5,9.2,8.9c2.9,0.2,4.5,1.4,5.3,4c0.8,2.3,1.6,4.6,2,5.9c4.5,4.3,8.4,8.1,12.3,11.9c1.3-2.4,2.1-4,2.7-5.1
				c2.8,2,4.8,3.4,6.9,4.9c0.1,5.8,0.2,12.2-5,16.3c-3.8,3-4.8,6.5-5.3,11.1c-0.7,5.6,1,9.8,3.6,14.5c6,10.7,11.8,21.3,22.8,27.9
				c0.5,0.3,0.6,1.4,0.9,2.1c4.3-0.7,6.5,1.7,6.6,5.5c0.3,6.4-0.1,12.9-0.2,19.3c0.1,0.7,0.2,1.8,0.3,2.5c1.3,4.5,2.7,8.9,0.5,13.8
				c-0.9,1.9,0.8,5.1,0.7,7.4c1.1,3,2.1,5.8,3.3,8.8c0.4,0.4,0.7,0.8,1.1,1.2c0.2,0.3,0.5,0.6,0.7,0.8c0,0,0.1,0.1,0.1,0.1l0,0
				c2.5,3.2,7.8,5.7,12.7,6.4c1.4,0.2,2.2-1.4,1.4-2.5c-1.2-1.7-0.5-4.1,0.6-6.7c-0.6-0.8-1.3-1.5-1.9-2.3c1.2-0.7,2.1-1.2,3-1.8
				c1.4-2.5,2.8-5,4-7.2c3.7-0.9,7.3-1.7,12.2-2.8c-3.6-3.4-6-5.6-8.4-7.8c9.2,4.9,11.8,5.1,17.9-2.6c1.5-1.9,3.6-3.4,5.4-5.1
				c1-1.7,2-3.3,3-5c1-1.7,1.5-4.2,3-5c3-1.8,6.6-2.7,9.9-3.9c1.5-0.4,3.6-0.2,4.5-1.2c6.3-6.9,10.9-14.6,9.7-24.5
				c2.4-2.7,4.7-5.4,7.1-8.2c1-1.3,2-2.2,3-4c0.5-0.7,1-1.4,1.4-2.1l0,0c0-1.3,0-2.6,0-3.9C280.2,271.7,279.1,270,277.5,269z
				 M118.1,192.5c-0.3-0.1-0.6-0.2-0.8-0.4C117.6,192.2,117.9,192.3,118.1,192.5C118.1,192.5,118.1,192.5,118.1,192.5z"/>
		</g>
	</g>
</g>
<g id="chat__x26__avatars">
	<g id="bubble_avatar-1" transform="translate(537.222 2417.55)">
		<g id="bubble-1">
			<path id="Path_132" class="st20" d="M-389.9-2388.4L-389.9-2388.4c0.8,0.8-10.5-12.1-10.5-12.1c-2.8-3.1-6.4-2.8-9-2.2
				l-122.6,25.3c-2.6,0.5-5.3,4-5.3,8.9v49c0,3.2,1.5,5.6,3.2,8.2l7.9,13c0.6,1.8,2.4,2.8,4.2,2.5l111.9-23.1l16.4,18.1l0.1-0.2
				l2.9,3.1c0.8,0.8,2.1-0.2,2.1-1.6v-84.9C-388.4-2386-388.9-2387.4-389.9-2388.4z"/>
			<g id="Group_33">
				<g id="Group_32">
					
						<linearGradient id="Path_133_00000106837127606623139840000012082960577554025621_" gradientUnits="userSpaceOnUse" x1="-895.9714" y1="-2833.457" x2="-894.9313" y2="-2833.0042" gradientTransform="matrix(147.3806 0 0 -104.9953 131445.8281 -299825.1875)">
						<stop  offset="0" style="stop-color:#6F82BA"/>
						<stop  offset="1" style="stop-color:#A0D7FF"/>
					</linearGradient>
					<path id="Path_133" style="fill:url(#Path_133_00000106837127606623139840000012082960577554025621_);" d="M-525.3-2383v49
						c0,3.2,1.5,5.6,3.2,8.2l8.1,13.3l136-90.3c0.8,0.8-10.5-12.1-10.5-12.1c-2.8-3.1-6.4-2.8-9-2.2l-122.6,25.3
						C-522.6-2391.4-525.3-2388-525.3-2383z"/>
				</g>
			</g>
			<g id="Group_38">
				<g id="Group_34">
					
						<radialGradient id="Path_134_00000056410932982081285070000007754049798445866670_" cx="-893.3275" cy="-2833.6116" r="0.64" gradientTransform="matrix(93.7027 0 0 -91.2684 83288.4141 -260983.6406)" gradientUnits="userSpaceOnUse">
						<stop  offset="0" style="stop-color:#D3EDFF"/>
						<stop  offset="1" style="stop-color:#A0D7FF"/>
					</radialGradient>
					<path id="Path_134" style="fill:url(#Path_134_00000056410932982081285070000007754049798445866670_);" d="M-514.6-2370.5v55.3
						c0,3.2,2.1,5.4,4.6,4.9l111.9-23.1l19.3,21c0.8,0.8,2.1-0.2,2.1-1.6v-84.9c0-3.2-2.1-5.4-4.6-4.9l-128.7,26.6
						C-512.5-2376.7-514.6-2373.7-514.6-2370.5z"/>
					
						<linearGradient id="Path_135_00000178181449343157347220000014709632537453492905_" gradientUnits="userSpaceOnUse" x1="-880.1329" y1="-2847.894" x2="-881.0269" y2="-2847.106" gradientTransform="matrix(21.468 0 0 -22.518 18517.1875 -66453.9531)">
						<stop  offset="0" style="stop-color:#FBFBFD;stop-opacity:0"/>
						<stop  offset="1.000000e-03" style="stop-color:#A0D7FF;stop-opacity:0"/>
						<stop  offset="1" style="stop-color:#6F82BA;stop-opacity:0.4"/>
					</linearGradient>
					<path id="Path_135" style="fill:url(#Path_135_00000178181449343157347220000014709632537453492905_);" d="M-398.1-2333.4
						l21.5-4.4l-5.1,22.5L-398.1-2333.4z"/>
				</g>
				<g id="Group_37">
					<g id="Group_35">
						<path id="Path_136" class="st24" d="M-397-2373.8l-97.2,20.1c-0.9,0.2-1.6-0.6-1.6-1.7c0-1,0.6-2,1.6-2.3l97.2-20.1
							c0.9-0.2,1.6,0.6,1.6,1.7C-395.4-2375.1-396-2374.2-397-2373.8z"/>
					</g>
					<g id="Group_36">
						<path id="Path_137" class="st24" d="M-397-2355.7l-97.2,20.1c-0.9,0.2-1.6-0.6-1.6-1.7c0-1,0.6-2,1.6-2.3l97.2-20.1
							c0.9-0.2,1.6,0.6,1.6,1.7C-395.4-2357-396-2356.1-397-2355.7z"/>
					</g>
				</g>
			</g>
		</g>
		<g id="avatar-1" transform="translate(-197.567 -237.895)">
			
				<ellipse id="Ellipse_438" transform="matrix(0.217 -0.9762 0.9762 0.217 1876.162 -1966.8408)" class="st25" cx="-288" cy="-2153" rx="23.6" ry="18"/>
			<g id="Group_73">
				<g>
					<defs>
						
							<ellipse id="SVGID_00000004508877556035351470000017027457677797827492_" transform="matrix(0.217 -0.9762 0.9762 0.217 1876.162 -1966.8408)" cx="-288" cy="-2153" rx="23.6" ry="18"/>
					</defs>
					<clipPath id="SVGID_00000145755014389923591160000000548188330939871141_">
						<use xlink:href="#SVGID_00000004508877556035351470000017027457677797827492_"  style="overflow:visible;"/>
					</clipPath>
					<g id="Group_72" style="clip-path:url(#SVGID_00000145755014389923591160000000548188330939871141_);">
						<g id="Group_71">
							
								<ellipse id="Ellipse_439" transform="matrix(0.9322 -0.3618 0.3618 0.9322 751.3496 -249.4627)" class="st27" cx="-290.4" cy="-2130.9" rx="13.1" ry="11.6"/>
							<g id="Group_70">
								<path id="Path_162" class="st28" d="M-294.4-2137.1c3,3,8.1,1.4,7.8-1.5c-0.1-1.4-1.3-5.4-0.1-4.9c3.4,0.7,7.6-3.9,7-11.9
									s-3.5-6.5-3.5-6.5l-7.3,2.6l-2.4,8.3c0.3,1.3-0.1,5.8-0.7,9.4C-293.8-2139.6-294.8-2137.5-294.4-2137.1z"/>
								<path id="Path_163" class="st29" d="M-295.9-2154.8c-0.1,2,0.3,6.5,1.9,8.7c0.6,0.8,1.6,0.2,1.7-0.9
									c0.2-1.6,0.3-3.5,0.3-3.5l2.2-1.5c0.5-0.1,0.8-0.5,0.8-0.9l0.1-1.2c0,0,7.3-0.6,8-6.2l0,0c1.2,2.5,1.2,7.6,1.2,8
									c0,0,0,0,0,0c0.9-0.6,1.7-3.8,1.3-7.5c-0.5-4.2-2.1-7.5-6.4-8.2C-287.9-2168.5-295.1-2165.5-295.9-2154.8z"/>
								
									<ellipse id="Ellipse_440" transform="matrix(0.217 -0.9762 0.9762 0.217 1870.9501 -1968.9326)" class="st28" cx="-291.9" cy="-2150.8" rx="2.7" ry="2.1"/>
								
									<ellipse id="Ellipse_441" transform="matrix(0.217 -0.9762 0.9762 0.217 1879.2632 -1983.522)" class="st29" cx="-296.9" cy="-2163.3" rx="6.1" ry="4.6"/>
							</g>
							<path id="Path_164" class="st30" d="M-286.7-2143.6c0.3,0.1,0.5,0.1,0.8,0.1c0,0,0,0,0,0c-1.7-0.4-4.4-2.3-4.7-3.3
								c-0.3,1.9,3.3,4.9,3.3,3.8C-287.2-2143.5-287-2143.7-286.7-2143.6z"/>
						</g>
					</g>
				</g>
			</g>
		</g>
	</g>
	<g id="bubble_avatar-2" transform="translate(541.227 2435.007)">
		<g id="bubble-2">
			<path id="Path_152" class="st31" d="M-158.2-2081.9c-1.7-1.8-11.2-11.8-11.2-11.8c-2.8-3.1-6.4-2.8-9-2.2l-47.4,13l-25.9-23.3
				c-0.9-0.9-2.3-0.9-3.2,0c-0.4,0.4-0.7,1-0.7,1.6v74.3c0,3.2,1.5,5.6,3.2,8.2l8.1,13.3l0.1-0.1c0.7,1.5,2.3,2.3,3.9,1.9l78.6-20.4
				c2.9-0.6,5-3.2,5-6.2v-44.7C-156.5-2079.7-157.1-2081-158.2-2081.9z"/>
			
				<linearGradient id="Path_153_00000112623828582436339010000001421581507827339938_" gradientUnits="userSpaceOnUse" x1="-898.2565" y1="-2850.9214" x2="-897.5715" y2="-2850.3655" gradientTransform="matrix(97.6619 0 0 -98.0038 87477.4062 -281464.8438)">
				<stop  offset="2.000000e-03" style="stop-color:#C5295E"/>
				<stop  offset="1" style="stop-color:#FF5C74"/>
			</linearGradient>
			<path id="Path_153" style="fill:url(#Path_153_00000112623828582436339010000001421581507827339938_);" d="M-156.7-2108.9
				c-2.8-3.1-6.4-2.8-9-2.2l-47.4,13l-25.9-23.3c-0.9-0.9-2.3-0.9-3.2,0c-0.4,0.4-0.7,1-0.7,1.6v74.3c0,3.2,1.5,5.6,3.2,8.2
				l8.1,13.3l86.3-72.7C-144.4-2096-156.7-2108.9-156.7-2108.9z"/>
			<g id="Group_60">
				
					<radialGradient id="Union_2_00000018206384903752001900000005661191022306771840_" cx="-897.1127" cy="-2851.0359" r="0.501" gradientTransform="matrix(89.8782 0 0 -89.8683 80467.2109 -258301.2344)" gradientUnits="userSpaceOnUse">
					<stop  offset="0" style="stop-color:#FFADB9"/>
					<stop  offset="1" style="stop-color:#FF5C74"/>
				</radialGradient>
				<path id="Union_2" style="fill:url(#Union_2_00000018206384903752001900000005661191022306771840_);" d="M-232.1-2027.2v-44.2
					c0-0.4,0-0.9,0.1-1.3v-37.2c0-1.2,1-2.2,2.2-2.2c0.6,0,1.2,0.2,1.6,0.7l29.1,25.7l32.5-8.7l17.1-3.7c2.5-0.5,5,1.1,5.5,3.6
					c0.1,0.3,0.1,0.6,0.1,1v44.7c0,3-2.1,5.6-5,6.2l-78.6,20.4c-0.2,0.1-0.5,0.1-0.8,0.1C-230.5-2022.2-232.1-2024.3-232.1-2027.2z"
					/>
			</g>
			<g id="Group_64">
				<g id="Group_61">
					<path id="Path_156" class="st24" d="M-191.4-2061.4c0-2.5,1.8-4.7,4.3-5.1l0,0c2-0.3,3.9,1,4.3,3.1c0,0.3,0.1,0.5,0,0.8l0,0
						c0,2.5-1.8,4.7-4.3,5.1l0,0c-2,0.3-3.9-1-4.3-3.1C-191.4-2060.9-191.4-2061.1-191.4-2061.4z"/>
				</g>
				<g id="Group_62">
					<path id="Path_157" class="st24" d="M-210-2058.1c0-2.5,1.8-4.7,4.3-5.1l0,0c2-0.3,3.9,1,4.3,3.1c0,0.3,0.1,0.5,0,0.8l0,0
						c0,2.5-1.8,4.7-4.3,5.1l0,0c-2,0.3-3.9-1-4.3-3.1C-210-2057.6-210-2057.9-210-2058.1z"/>
				</g>
				<g id="Group_63">
					<path id="Path_158" class="st24" d="M-172.1-2064.4c0-2.5,1.8-4.7,4.3-5.1l0,0c2-0.3,3.9,1,4.3,3.1c0,0.3,0.1,0.5,0,0.8l0,0
						c0,2.5-1.8,4.7-4.3,5.1l0,0c-2,0.3-3.9-1-4.3-3.1C-172.1-2063.9-172.1-2064.1-172.1-2064.4z"/>
				</g>
			</g>
		</g>
		<g id="avatar-2" transform="translate(-45.981 51.923)">
			
				<ellipse id="Ellipse_443" transform="matrix(0.1582 -0.9874 0.9874 0.1582 1997.452 -1859.3986)" class="st27" cx="-91.7" cy="-2101.1" rx="23.6" ry="18"/>
			<g id="Group_77">
				<g>
					<defs>
						
							<ellipse id="SVGID_00000124883350467284062960000013074059591952076215_" transform="matrix(0.1582 -0.9874 0.9874 0.1582 1997.452 -1859.3986)" cx="-91.7" cy="-2101.1" rx="23.6" ry="18"/>
					</defs>
					<clipPath id="SVGID_00000078027705978222460710000009834369581212090769_">
						<use xlink:href="#SVGID_00000124883350467284062960000013074059591952076215_"  style="overflow:visible;"/>
					</clipPath>
					<g id="Group_76" style="clip-path:url(#SVGID_00000078027705978222460710000009834369581212090769_);">
						<g id="Group_75">
							
								<ellipse id="Ellipse_444" transform="matrix(0.9462 -0.3236 0.3236 0.9462 667.7875 -141.9268)" class="st35" cx="-92.9" cy="-2078.9" rx="12.9" ry="11.7"/>
							<g id="Group_74">
								<path id="Path_165" class="st36" d="M-87.9-2085.2c-3.5,3-8.2,1.3-7.5-1.6c0.3-1.4,2.2-5.4,0.9-5c-3.5,0.7-6.9-3.9-5.1-11.9
									s4.5-6.5,4.5-6.5l6.8,2.6l1,8.3c-0.5,1.3-0.8,5.8-0.9,9.5C-88.1-2087.7-87.5-2085.6-87.9-2085.2z"/>
								<path id="Path_166" class="st29" d="M-90.3-2101.1c0,0.5,0.3,0.9,0.7,1l2,1.5l-0.4,5.9c0,0,0,0,0,0c2.5-0.5,4-3.9,4.3-6.4
									c0,0,0,0,0,0l-0.1-0.8c0,0,0,0,0,0c1.5-0.3,2.7-2.1,2.6-4.2c-0.1-1.8-1.3-3.1-2.7-3.1c-0.1,0-0.1,0-0.2,0c0,0,0,0,0,0
									c0.7-0.7,0.8-1.6,0.9-2.9c0.2-3.1-1.5-5.3-3.9-5.3c-1.2,0-2.2,0.9-3,2.5c0-0.1,0,0.1,0,0c0.2-2.4-1.2-4.4-3.1-4.4
									c-1.9,0-3.5,1.9-3.7,4.4c0,0.2,0,0.5,0,0.7c0,0,0,0,0,0c-1.2-1.1-2.9-0.7-3.9,0.9c-0.8,1.4-0.9,3.1-0.2,4.5c0,0,0,0,0,0
									c-0.7,2.5-0.9,5.7,0.8,6.2c0,0,0,0,0,0c0-0.3,0.9-5.5,2.5-8c0,0,0,0,0,0c0,0,0,0,0,0c-0.2,5.6,7.3,6.3,7.3,6.3L-90.3-2101.1
									z"/>
								
									<ellipse id="Ellipse_445" transform="matrix(0.1582 -0.9874 0.9874 0.1582 1998.2238 -1854.0364)" class="st36" cx="-88.2" cy="-2098.9" rx="2.7" ry="2.1"/>
							</g>
							<path id="Path_167" class="st37" d="M-94.5-2091.7c-0.3,0.1-0.5,0.1-0.8,0.1c0,0,0,0,0,0c1.8-0.4,4.7-2.3,5.1-3.2
								c0,1.9-4,4.9-3.9,3.8C-94.1-2091.6-94.2-2091.8-94.5-2091.7z"/>
						</g>
					</g>
				</g>
			</g>
		</g>
	</g>
</g>
</svg>
