<?xml version="1.0" encoding="utf-8"?>
<!-- Generator: Adobe Illustrator 26.0.0, SVG Export Plug-In . SVG Version: 6.00 Build 0)  -->
<svg version="1.1" id="telescope" xmlns="http://www.w3.org/2000/svg" xmlns:xlink="http://www.w3.org/1999/xlink" x="0px" y="0px"
	 viewBox="0 0 374.1 255.2" style="enable-background:new 0 0 374.1 255.2;" xml:space="preserve">
<style type="text/css">
	.st0{fill:#586393;}
	.st1{fill:none;stroke:#D5EDFF;stroke-width:0.8847;stroke-miterlimit:10;}
	.st2{fill:url(#SVGID_1_);}
	.st3{fill:url(#SVGID_00000075133562383940654430000014723116993966609337_);}
	.st4{fill:url(#SVGID_00000008862639103836555820000001169120086895295616_);}
	.st5{fill:url(#SVGID_00000017500670703291799710000009943657307878982045_);}
	.st6{fill:url(#SVGID_00000076595861873701873580000009983686590441045148_);}
	.st7{fill:url(#SVGID_00000119090521805932247050000005874597825679689869_);}
	.st8{fill:url(#SVGID_00000069357870296750097400000005668077122058896026_);}
	.st9{fill:#A0D7FF;}
	.st10{fill:url(#SVGID_00000096762172200219555760000015980712371155639973_);}
	.st11{fill:url(#SVGID_00000100354841697535586900000005936922113982760366_);}
	.st12{fill:url(#SVGID_00000063609855409355864000000002491433112961245367_);}
	.st13{fill:#6F82BA;}
	.st14{fill:url(#SVGID_00000066506057778293954780000015666266965286567333_);}
	.st15{fill:url(#SVGID_00000007427479154468659300000017912898503653710001_);}
	.st16{fill:#373754;}
	.st17{opacity:0.2;fill:#373754;}
	.st18{fill:url(#SVGID_00000147936732303938591980000014912230396224423859_);}
	.st19{opacity:0.3;fill:#373754;}
	.st20{fill:#D8A583;}
	.st21{fill:#EFBC93;}
	.st22{fill:#4B4B65;}
	.st23{fill:#53536C;}
	.st24{fill:#F1F3EC;}
	.st25{fill:none;stroke:#D5EDFF;stroke-width:0.9152;stroke-miterlimit:10;}
</style>
<path class="st0" d="M129.3,134.6c-15.3,25.7-21,35.1-28,35.4c-4.9,0.2-28.7-16.1-35.1-25c-2.7-3.7-2.1-8.9,1.4-11.9h0
	c3.8-3.2,9.4-2.8,12.6,1c6,7.1,20,18.6,20,18.6c8.7-8.9,22.4-21.3,22.4-21.3L129.3,134.6z"/>
<path class="st1" d="M113.4,121.4c-1.6,2.8-3.9,4.5-5.1,3.8c-1.2-0.7-0.9-3.5,0.8-6.4c1.6-2.8,3.9-4.5,5.1-3.8
	C115.3,115.7,115,118.6,113.4,121.4z"/>
<g>
	
		<linearGradient id="SVGID_1_" gradientUnits="userSpaceOnUse" x1="238.7077" y1="73.0284" x2="231.1114" y2="53.2119" gradientTransform="matrix(0.9986 -5.233596e-02 5.233596e-02 0.9986 -4.3701 46.1491)">
		<stop  offset="0" style="stop-color:#6F82BA"/>
		<stop  offset="1" style="stop-color:#434344"/>
	</linearGradient>
	<path class="st2" d="M224.1,94.9l14.2-6.6l6.6,14.9c1.8,3.9,0.1,8.6-3.8,10.4l0,0c-3.9,1.8-8.6,0.1-10.4-3.8L224.1,94.9z"/>
	<g>
		
			<linearGradient id="SVGID_00000047781386581623434440000012644428029807293354_" gradientUnits="userSpaceOnUse" x1="234.7712" y1="191.5745" x2="245.7942" y2="191.5745">
			<stop  offset="0" style="stop-color:#6F82BA"/>
			<stop  offset="1" style="stop-color:#434344"/>
		</linearGradient>
		
			<rect x="234.4" y="134.1" style="fill:url(#SVGID_00000047781386581623434440000012644428029807293354_);" width="6.8" height="114.9"/>
		
			<linearGradient id="SVGID_00000076603276808941536170000004788599337211326595_" gradientUnits="userSpaceOnUse" x1="190.5858" y1="190.4254" x2="201.6087" y2="196.0273">
			<stop  offset="0" style="stop-color:#6F82BA"/>
			<stop  offset="1" style="stop-color:#434344"/>
		</linearGradient>
		<polygon style="fill:url(#SVGID_00000076603276808941536170000004788599337211326595_);" points="166,249 159.2,249 219.6,134.1 
			226.5,134.1 		"/>
		
			<linearGradient id="SVGID_00000109711119520708058800000008492946048620558998_" gradientUnits="userSpaceOnUse" x1="275.9578" y1="195.0204" x2="291.679" y2="187.0695">
			<stop  offset="0" style="stop-color:#6F82BA"/>
			<stop  offset="1" style="stop-color:#434344"/>
		</linearGradient>
		<polygon style="fill:url(#SVGID_00000109711119520708058800000008492946048620558998_);" points="309.6,249 316.4,249 256,134.1 
			249.1,134.1 		"/>
		
			<linearGradient id="SVGID_00000079450570961500045610000010747836106402444928_" gradientUnits="userSpaceOnUse" x1="237.5043" y1="130.4737" x2="279.6119" y2="130.4737">
			<stop  offset="0" style="stop-color:#6F82BA"/>
			<stop  offset="1" style="stop-color:#A0D7FF"/>
		</linearGradient>
		<path style="fill:url(#SVGID_00000079450570961500045610000010747836106402444928_);" d="M256,134.1h-36.3v-5.3
			c0-1.1,0.9-1.9,1.9-1.9H254c1.1,0,1.9,0.9,1.9,1.9V134.1z"/>
		
			<linearGradient id="SVGID_00000158010671363384948800000007232205237695920013_" gradientUnits="userSpaceOnUse" x1="231.0078" y1="123.2076" x2="254.9517" y2="123.2076">
			<stop  offset="0" style="stop-color:#6F82BA"/>
			<stop  offset="1" style="stop-color:#A0D7FF"/>
		</linearGradient>
		<path style="fill:url(#SVGID_00000158010671363384948800000007232205237695920013_);" d="M249.8,126.8h-23.9v-5.3
			c0-1.1,0.9-1.9,1.9-1.9h20c1.1,0,1.9,0.9,1.9,1.9V126.8z"/>
		
			<linearGradient id="SVGID_00000054975785134796715050000006359883231702826151_" gradientUnits="userSpaceOnUse" x1="233.8984" y1="115.0039" x2="253.0699" y2="97.0786">
			<stop  offset="0" style="stop-color:#6F82BA"/>
			<stop  offset="1" style="stop-color:#A0D7FF"/>
		</linearGradient>
		<path style="fill:url(#SVGID_00000054975785134796715050000006359883231702826151_);" d="M230,119.6h15.7v-13.1
			c0-4.3-3.5-7.8-7.8-7.8h0c-4.3,0-7.8,3.5-7.8,7.8V119.6z"/>
		<circle class="st9" cx="237.8" cy="106.5" r="2.7"/>
	</g>
	<g>
		
			<linearGradient id="SVGID_00000083054801586635650360000012124760425525164716_" gradientUnits="userSpaceOnUse" x1="365.2985" y1="-0.541" x2="373.4589" y2="-16.3176" gradientTransform="matrix(0.9986 -5.233596e-02 5.233596e-02 0.9986 -4.3701 46.1491)">
			<stop  offset="0" style="stop-color:#6F82BA"/>
			<stop  offset="1" style="stop-color:#A0D7FF"/>
		</linearGradient>
		<path style="fill:url(#SVGID_00000083054801586635650360000012124760425525164716_);" d="M356.8,4.6l13.7,29.4
			c2.8-5.4,3.1-12.1,0.3-18C368,10,362.8,6,356.8,4.6z"/>
		
			<linearGradient id="SVGID_00000080910002626842443120000015966105126847552392_" gradientUnits="userSpaceOnUse" x1="317.6005" y1="246.1235" x2="317.6005" y2="272.4983" gradientTransform="matrix(0.9063 -0.4226 0.4226 0.9063 -268.3404 26.1455)">
			<stop  offset="0" style="stop-color:#6F82BA"/>
			<stop  offset="0.3823" style="stop-color:#A0D7FF"/>
			<stop  offset="0.8623" style="stop-color:#6F82BA"/>
		</linearGradient>
		<polygon style="fill:url(#SVGID_00000080910002626842443120000015966105126847552392_);" points="112.3,130.3 117.1,140.4 
			147.8,127.7 141.8,114.9 		"/>
		
			<linearGradient id="SVGID_00000148642519903057334270000017011617448759868321_" gradientUnits="userSpaceOnUse" x1="357.9677" y1="244.0255" x2="357.1549" y2="278.3636" gradientTransform="matrix(0.9063 -0.4226 0.4226 0.9063 -268.3404 26.1455)">
			<stop  offset="0" style="stop-color:#6F82BA"/>
			<stop  offset="0.3823" style="stop-color:#A0D7FF"/>
			<stop  offset="0.8623" style="stop-color:#6F82BA"/>
		</linearGradient>
		<path style="fill:url(#SVGID_00000148642519903057334270000017011617448759868321_);" d="M192,112.1L151,129.6
			c-1.1,0.5-2.4,0-2.9-1.1l-6.7-14.3c-0.5-1.1-0.1-2.4,1-3l39.7-20.1L192,112.1z"/>
		<path class="st13" d="M117.1,140.4l-0.4,0.2c-0.6,0.3-1.4,0-1.7-0.6l-3.6-7.8c-0.3-0.6,0-1.4,0.6-1.7l0.4-0.2L117.1,140.4z"/>
		
			<linearGradient id="SVGID_00000006669189419627369290000011976869407893745821_" gradientUnits="userSpaceOnUse" x1="436.639" y1="237.8293" x2="436.639" y2="281.665" gradientTransform="matrix(0.9063 -0.4226 0.4226 0.9063 -268.3404 26.1455)">
			<stop  offset="0" style="stop-color:#6F82BA"/>
			<stop  offset="0.3823" style="stop-color:#A0D7FF"/>
			<stop  offset="0.8623" style="stop-color:#6F82BA"/>
		</linearGradient>
		<path style="fill:url(#SVGID_00000006669189419627369290000011976869407893745821_);" d="M195.3,113.9L295,69l-13.6-29.2
			l-98.5,47.5c-1.1,0.5-1.6,1.9-1.1,3l10.5,22.4C192.8,113.9,194.1,114.4,195.3,113.9z"/>
		
			<linearGradient id="SVGID_00000088831649489762142180000009502067894049966472_" gradientUnits="userSpaceOnUse" x1="531.7349" y1="231.2365" x2="531.7349" y2="284.2072" gradientTransform="matrix(0.9063 -0.4226 0.4226 0.9063 -268.3404 26.1455)">
			<stop  offset="0" style="stop-color:#6F82BA"/>
			<stop  offset="0.3823" style="stop-color:#A0D7FF"/>
			<stop  offset="0.8623" style="stop-color:#6F82BA"/>
		</linearGradient>
		<path style="fill:url(#SVGID_00000088831649489762142180000009502067894049966472_);" d="M368.2,39.9l-69.9,31
			c-1.1,0.5-2.4,0-3-1.1L281,39.2c-0.5-1.1-0.1-2.4,1-3l68.7-33.6L368.2,39.9z"/>
		<path class="st16" d="M368.2,39.9l4.7-2.2c0.9-0.4,1.3-1.5,0.9-2.4l-15.9-34c-0.4-0.9-1.5-1.3-2.4-0.9l-4.7,2.2L368.2,39.9z"/>
		<polygon class="st17" points="289.8,71.4 295,69 281.4,39.9 276.2,42.4 		"/>
		<polygon class="st17" points="186.7,114.4 192,112.1 182.2,91.1 177.1,93.7 		"/>
		<polygon class="st17" points="142.6,129.9 147.8,127.7 141.8,114.9 136.8,117.5 		"/>
		<g>
			<g>
				<g>
					
						<linearGradient id="SVGID_00000172414029780737726400000000026229755008752559_" gradientUnits="userSpaceOnUse" x1="109.4198" y1="124.8037" x2="126.6097" y2="124.8037" gradientTransform="matrix(0.6385 -0.2977 0.4611 0.9888 -17.3343 36.5979)">
						<stop  offset="0" style="stop-color:#6F82BA"/>
						<stop  offset="0.3823" style="stop-color:#A0D7FF"/>
						<stop  offset="0.7254" style="stop-color:#7D9ACE"/>
						<stop  offset="0.8623" style="stop-color:#6F82BA"/>
					</linearGradient>
					<path style="fill:url(#SVGID_00000172414029780737726400000000026229755008752559_);" d="M117.3,128l-3.3-7l-4.3,2l3.3,7
						c0.1,0.3,1.2,0.1,2.4-0.5C116.6,129,117.4,128.3,117.3,128z"/>
				</g>
			</g>
			
				<ellipse transform="matrix(0.9063 -0.4226 0.4226 0.9063 -41.0763 58.7082)" class="st13" cx="111.9" cy="122" rx="2.4" ry="0.4"/>
			<path class="st16" d="M113.5,121.6C113.5,121.6,113.5,121.5,113.5,121.6c-0.1-0.2-0.8,0-1.7,0.4c-0.9,0.4-1.5,0.9-1.4,1
				c0,0,0,0,0,0c0.4-0.1,1-0.3,1.6-0.6C112.6,122.1,113.2,121.8,113.5,121.6z"/>
		</g>
	</g>
</g>
<text transform="matrix(1 0 0 1 474.3162 -332.3761)" style="font-family:'MohrAlt-Medium'; font-size:108.3107px;">25ยบ</text>
<g>
	
		<ellipse transform="matrix(9.276838e-03 -1 1 9.276838e-03 -200.954 297.3026)" class="st19" cx="49.6" cy="250.1" rx="3.7" ry="48"/>
	<path class="st20" d="M29.1,232.9c4.1,2.2,7.5,4.6,7.5,4.6l6.6-8.4c0,0-9.1-4.4-11.1-6s-3.3-5.2-6.7-4
		c-3.5,1.3-13.8,12.5-13.8,21.8s7.2,7.6,10,7.7s-1.6-7.3-0.8-10.8C21.5,234.5,26.3,231.4,29.1,232.9z"/>
	<path class="st0" d="M21.5,185.3l-4.6,9.9c-6.8-2.1-7.8-4.6-6.5-7.9S18.4,184.7,21.5,185.3z"/>
	<path class="st21" d="M18.5,232.8c4.3,2.3,7.9,4.8,7.9,4.8l6.9-8.8c0,0-9.6-4.6-11.7-6.3c-2.1-1.7-3.5-5.4-7.1-4.1
		c-3.6,1.3-14.5,13-14.5,22.8s7.6,7.9,10.6,8.1c3,0.2-1.7-7.6-0.8-11.2C10.6,234.4,15.6,231.2,18.5,232.8z"/>
	<path class="st22" d="M34.5,237.3c31.9,16.2,78,19.2,68.4-4.1c-8.3-19.9-56.3-43.8-72.2-47.5c-9.3,13.4-6.7,25.7,14.4,37.3
		C42,225,35.5,230.7,34.5,237.3z"/>
	<path class="st23" d="M23.5,237.3c31.7,17.4,78.2,21.8,69.2-2.1c-7.7-20.4-55.4-46.1-71.3-50.3c-9.8,13.3-7.6,25.8,13.3,38.2
		C31.5,225.1,24.7,230.6,23.5,237.3z"/>
	<path class="st16" d="M32.5,224.6c11.6,6.7,26.1,12.2,26.1,12.2c-8.6-4.9-16.8-9.3-23.9-13.7C34,223.6,33.4,223.9,32.5,224.6z"/>
	<path class="st13" d="M10.4,187.3c11.6-36,48.7-72.2,67.2-60c15.4,18.9,2.2,28-6.9,75.7C60.8,212.3,26.6,177.4,10.4,187.3z"/>
	<g>
		<path class="st21" d="M77.4,117.1c-1.4,3.6-0.9,6.2-9,9.2c-3.3,1.2,9.4,17.8,12.8,16.2c1.6-0.7,0.6-4.9,2.4-6.8
			c3-3.2,6.8-2.7,10-1.9L77.4,117.1z"/>
		<path class="st20" d="M68.4,126.3c8.1-3,7.6-5.6,9-9.2l12.9,17.6C80.7,133.1,73.9,129.6,68.4,126.3z"/>
		<g>
			<path class="st21" d="M114.9,106.9c-1.1,4.8-5.6,10-5.9,13.1c-0.4,3.1-1.3,6.6-1.4,7.6c-0.1,1-3.1,0.9-4.2-0.4
				c-1.1-1.3-6.1,10.9-9.3,9.9c-3.2-1-12.7-3.8-16.8-19.8c0,0,3.2-22.6,13.6-25C101.2,90,116.2,101,114.9,106.9z"/>
			<path class="st24" d="M90.2,105.8c1.8,1.9-3.7,9.6-7.5,16.2s3,13.3,10.2,16c7.2,2.7,10.4-10.8,10.4-10.8s-5.3-2.8-8.9-1.6
				c-2.3-0.7-7.7-6.6-6-9.5c1.7-3,4.4-6.2,4.8-8.7s-0.5-6.6,2.9-8.2c3.7-1.7,7.7,2.7,14.5,6.9c3.9,2.4,2.3,6,2.3,6
				c13,0.9,13.1-14,8.6-17.4C117,91.1,113,94.9,107,89c-7.4-7.4-19.7-7.6-27,1.5c-7.3,9-6.2,20.2-5.3,22.6c0.8,2.3,2.6,4.3,2.6,4.3
				c2-0.1,5.9-8.1,5.9-8.1L90.2,105.8z"/>
			<path class="st1" d="M108.2,119.4c-1.7,2.9-4.3,4.6-5.7,3.8c-1.5-0.8-1.3-3.9,0.4-6.9c1.7-2.9,4.3-4.6,5.7-3.8
				C110.1,113.3,109.9,116.4,108.2,119.4z"/>
			<line class="st25" x1="88.8" y1="105.1" x2="103.6" y2="115"/>
			<circle class="st21" cx="86" cy="107" r="4.6"/>
		</g>
	</g>
	<path class="st19" d="M81.9,159.9c-1.5-4-2.4-7.4-3.3-10.2c-3.3-10.1-10.9-15.3-18.4-11.7c-14.8,7.1,0.5,37.7,13,52.7
		C76.4,177.5,79.9,168.4,81.9,159.9z"/>
	<path class="st21" d="M116.2,144.9c1-2.4-1.2-8.3-2.6-10.7c-1.4-2.3-2.3-5.3-0.1-3.5c2.8,2.3,4.3,3.6,6,2.1
		c1.7-1.5,2.2-4.8,2.3-6.6c0.1-1.6,1-2.9,1.7,0.2c0.4,2.2-0.5,6.9-0.5,6.9c2-3.2,1.8-7.4,1.7-8.5c-0.2-1.8,0.6-1.7,1.4-0.3
		c0.7,1.4,1.3,3.9-0.4,8.4c2.1-2.9,2.2-4.2,2.4-6.2c0.2-2,1.4-0.8,1.2,2.5c-0.2,3-1.9,5.4-1.9,5.4c1.8-1.6,2.3-3.7,2.5-4.4
		c0.3-1.5,1.4,0,0.6,2.6c-0.6,2.2-6.8,11.1-9,13.5L116.2,144.9z"/>
	<path class="st13" d="M59.1,137.7c6.5-5.2,15.1-1.8,20.6,7.2s19,24.5,19,24.5s13.8-16.3,15.9-25.7c7,2.9,9.5,3.3,9.5,3.3
		c-8.4,39.5-20.5,47-35.1,38.8C74.4,177.6,44.7,149.2,59.1,137.7z"/>
</g>
</svg>
