<?xml version="1.0" encoding="utf-8"?>
<!-- Generator: Adobe Illustrator 25.4.1, SVG Export Plug-In . SVG Version: 6.00 Build 0)  -->
<svg version="1.1" id="illustration_icon" xmlns="http://www.w3.org/2000/svg" xmlns:xlink="http://www.w3.org/1999/xlink" x="0px"
	 y="0px" viewBox="0 0 422.36221 425.19684" style="enable-background:new 0 0 422.36221 425.19684;" xml:space="preserve">
<style type="text/css">
	.st0{fill:url(#SVGID_1_);}
	.st1{fill:url(#SVGID_00000119825656597338912300000005449047043912021916_);}
	.st2{fill:#FFE680;}
	.st3{fill:#C1E5FF;}
	.st4{opacity:0.3;fill:#C5CDE3;enable-background:new    ;}
	.st5{fill:#E8F5FF;}
	.st6{fill:#FFF6D0;}
	.st7{fill:url(#SVGID_00000057149018895232903930000003642109519429030822_);}
	.st8{fill:url(#SVGID_00000023241912467631132370000016004786209901231291_);}
	.st9{fill:url(#SVGID_00000085231764572165905440000006146396216630106028_);}
	.st10{fill:url(#SVGID_00000040576922014395448300000012040157754327433908_);}
	.st11{fill:url(#SVGID_00000003070091961019568810000005872673502409516966_);}
	.st12{fill:url(#correction_00000157278909041123785810000008207884484617751180_);}
	.st13{fill:#FFF0B3;}
	.st14{fill:#A0D7FF;}
	.st15{fill:#A1AED2;}
	.st16{fill:#C5CDE3;}
	.st17{fill:#8F9DC9;}
	.st18{fill:#8292C3;}
	.st19{fill:#DBE0EE;}
	.st20{fill:#D9EFFF;}
	.st21{fill:#CCE9FF;}
	.st22{fill:#FFD93B;}
	.st23{fill:url(#SVGID_00000096056825313738358360000002349949074178529963_);}
	.st24{fill:url(#SVGID_00000011008863742395605960000003473088957447821503_);}
	.st25{fill:url(#SVGID_00000025430423840825784550000012554943214276133539_);}
	.st26{fill:url(#SVGID_00000018956325437654773950000012980705916250235279_);}
	.st27{fill:url(#SVGID_00000044857998029023815730000008845315776359504522_);}
	.st28{fill:url(#SVGID_00000129169562509702326320000007719872173153960380_);}
	.st29{fill:url(#SVGID_00000126292229906588181750000003101164477885964687_);}
	.st30{fill:url(#SVGID_00000096055429067596808030000004027733162782018997_);}
	.st31{fill:url(#SVGID_00000081648565371634335520000015839828671072145332_);}
	.st32{fill:url(#SVGID_00000175307126074517666390000013493840807666854051_);}
	.st33{fill:url(#SVGID_00000071544345909071729490000010949770557989664910_);}
	.st34{fill:url(#SVGID_00000157991087953559087010000005973686695965533090_);}
	.st35{fill:url(#SVGID_00000066501340348858215930000010122628474926403257_);}
	.st36{fill:url(#SVGID_00000124156305022772738350000013908250309079709825_);}
	.st37{fill:url(#SVGID_00000179644513769022802970000017306720334808238991_);}
	.st38{fill:#6F82BA;}
	
		.st39{opacity:0.1;clip-path:url(#SVGID_00000139291161868395271820000005003294222179893427_);fill:#434344;enable-background:new    ;}
	.st40{fill:url(#SVGID_00000016795181106924605130000015328671444427752635_);}
	.st41{fill:url(#SVGID_00000168078569344675929860000013459592041037718439_);}
	.st42{fill:url(#SVGID_00000127046321013404662140000018191072477973458108_);}
	.st43{fill:url(#SVGID_00000036245903620222263810000001989294304374157958_);}
	.st44{fill:url(#SVGID_00000066474337143552910520000006549073452798000005_);}
	.st45{fill:url(#SVGID_00000134968632822075944060000000667639563066426255_);}
	.st46{fill:url(#SVGID_00000124850046026476492340000013952185850403545267_);}
	.st47{fill:url(#SVGID_00000169527778490366883940000018006620401420852886_);}
	.st48{fill:url(#SVGID_00000106134418886964248010000009149413681845513129_);}
	.st49{fill:url(#SVGID_00000096744718901084682290000007631773815025777047_);}
	.st50{fill:url(#SVGID_00000092434989391879688200000010121976546470815420_);}
	.st51{fill:url(#SVGID_00000056390215265289690630000000198283490521602966_);}
	.st52{fill:url(#SVGID_00000096772241749155306380000008221189652640510654_);}
	.st53{fill:url(#SVGID_00000163054741330403487990000013317184144833430192_);}
	.st54{fill:url(#SVGID_00000127024815894335033540000003640076663296422059_);}
	.st55{fill:url(#SVGID_00000150822882373505888380000009733064804338702225_);}
	.st56{fill:#FFFFFF;}
	.st57{fill:url(#SVGID_00000125562418923244320910000016887158897662759057_);}
	.st58{fill:url(#SVGID_00000158721998479626437720000011384065344679631532_);}
</style>
<g id="logo_icon">
	<g id="woosh__x26__stars_00000008131266689651051070000002103944109659618211_">
		
			<linearGradient id="SVGID_1_" gradientUnits="userSpaceOnUse" x1="2661.27661" y1="-407.85117" x2="2701.35352" y2="-407.85117" gradientTransform="matrix(-0.99989 0.0149 -0.0149 -0.99989 2854.37939 -403.44131)">
			<stop  offset="0" style="stop-color:#373754;stop-opacity:0"/>
			<stop  offset="1" style="stop-color:#6F82BA"/>
		</linearGradient>
		<path class="st0" d="M195.3434,38.28163c-3.24075-0.04142-6.45676,0.55088-9.59665,1.35032
			c-3.14139,0.82343-6.21895,1.88846-9.24802,3.07153c-6.05424,2.37883-11.92874,5.24199-17.62157,8.36686l-0.0085,0.0047
			c-1.00241,0.55024-2.26112,0.18368-2.81134-0.81872c-0.55031-1.00242-0.18373-2.26109,0.81868-2.81136
			c0.05183-0.02841,0.10797-0.0559,0.16101-0.07947c6.09222-2.68623,12.29845-5.07019,18.67715-6.95853
			c3.18915-0.9366,6.4205-1.74983,9.70505-2.31247c3.28279-0.53867,6.63795-0.86136,9.97147-0.52832
			c0.19717,0.01969,0.34099,0.19544,0.32124,0.39254c-0.01859,0.18618-0.17636,0.32483-0.35994,0.32303L195.3434,38.28163z"/>
		
			<linearGradient id="SVGID_00000101061430617909559410000016289724882533314204_" gradientUnits="userSpaceOnUse" x1="2468.89453" y1="-530.39673" x2="2513.41504" y2="-530.39673" gradientTransform="matrix(-1.11981 -0.09304 0.0828 -0.99657 3026.3999 -264.51331)">
			<stop  offset="0" style="stop-color:#373754;stop-opacity:0"/>
			<stop  offset="1" style="stop-color:#6F82BA"/>
		</linearGradient>
		<path style="fill:url(#SVGID_00000101061430617909559410000016289724882533314204_);" d="M213.32028,27.52447
			c-4.02193-0.43413-8.08311-0.16478-12.07265,0.34265c-3.99403,0.53377-7.93546,1.34226-11.82965,2.28704
			c-7.785,1.90405-15.40019,4.36501-22.81857,7.13704l-0.01109,0.00418c-1.30624,0.48811-2.82964-0.06791-3.4025-1.2419
			c-0.57295-1.17402,0.02158-2.52141,1.32784-3.00954c0.06754-0.0252,0.14032-0.04886,0.20883-0.06856
			c7.86613-2.2393,15.84053-4.1308,23.97446-5.45379c4.06589-0.65314,8.17055-1.16487,12.31363-1.39321
			c4.13826-0.20206,8.34256-0.1567,12.44751,0.6109c0.2428,0.04539,0.40205,0.2569,0.35576,0.4724
			c-0.04367,0.20358-0.25502,0.33793-0.48293,0.31394L213.32028,27.52447z"/>
		<path class="st2" d="M207.28125,23.57093l1.78957,1.71286l2.42555-0.50315c0.14642-0.03037,0.26411,0.12034,0.19916,0.25504
			l-1.07602,2.23128l1.22806,2.15135c0.07414,0.12987-0.03282,0.28838-0.181,0.26822l-2.45459-0.33385l-1.66656,1.83276
			c-0.1006,0.11064-0.28441,0.05789-0.31102-0.08926l-0.44099-2.43762l-2.25806-1.01864
			c-0.13632-0.06149-0.14294-0.2526-0.01123-0.32339l2.18204-1.17267l0.27101-2.46232
			C206.99352,23.53289,207.17322,23.46753,207.28125,23.57093z"/>
		<circle class="st3" cx="176.0556" cy="52.95634" r="1.62035"/>
		<circle class="st4" cx="196.49715" cy="49.28405" r="1.62824"/>
		<circle class="st5" cx="180.98019" cy="36.70383" r="0.81017"/>
		<circle class="st6" cx="172.28738" cy="60.83862" r="0.81017"/>
		<circle class="st6" cx="164.71979" cy="67.9099" r="0.81017"/>
	</g>
	<g id="planet">
		
			<radialGradient id="SVGID_00000116958458827117500810000010405557827574825655_" cx="181.49614" cy="342.20868" r="231.93613" gradientTransform="matrix(1 0 0 -1 0 426)" gradientUnits="userSpaceOnUse">
			<stop  offset="0" style="stop-color:#B0D6FD"/>
			<stop  offset="0.43802" style="stop-color:#7481B7"/>
			<stop  offset="0.74414" style="stop-color:#6B78A9"/>
			<stop  offset="0.99966" style="stop-color:#4A5877"/>
		</radialGradient>
		
			<circle style="fill:url(#SVGID_00000116958458827117500810000010405557827574825655_);" cx="222.89828" cy="202.37845" r="126.43784"/>
		
			<linearGradient id="SVGID_00000031188247842649060760000015884636327653459083_" gradientUnits="userSpaceOnUse" x1="-262.32666" y1="133.83551" x2="-137.01602" y2="125.0929" gradientTransform="matrix(0.90631 -0.42262 0.42262 0.90631 233.84822 77.2623)">
			<stop  offset="0" style="stop-color:#C3CAE2"/>
			<stop  offset="1" style="stop-color:#FFFFFF"/>
		</linearGradient>
		<path style="fill:url(#SVGID_00000031188247842649060760000015884636327653459083_);" d="M68.32858,226.39664
			c-5.30037,15.02106-5.54335,29.44388,0.27411,41.91946c10.56824,22.66367,38.91542,34.13669,74.98056,33.82718l1.55864-0.05911
			c29.25992-0.83856,66.50304-10.24365,104.36832-27.90057c1.897-0.88449,3.77177-1.7587,5.60376-2.66684
			c12.6602-5.90347,18.1555-20.95229,12.25212-33.61232c-5.90347-12.66008-20.97411-18.14534-33.63419-12.24185
			c-61.02879,28.45815-122.85381,34.16701-130.228,18.353L68.32858,226.39664z"/>
		
			<linearGradient id="SVGID_00000160164073285012623640000003260514978249585796_" gradientUnits="userSpaceOnUse" x1="1008.59161" y1="-459.24176" x2="1133.90222" y2="-467.98438" gradientTransform="matrix(-0.90631 0.42262 -0.42262 -0.90631 1113.14648 -747.1319)">
			<stop  offset="0" style="stop-color:#A0D7FF"/>
			<stop  offset="1" style="stop-color:#FFFFFF"/>
		</linearGradient>
		<path style="fill:url(#SVGID_00000160164073285012623640000003260514978249585796_);" d="M377.46799,178.36026
			c5.30035-15.02106,5.54333-29.44388-0.27411-41.91946c-10.56827-22.66367-38.91544-34.13669-74.98056-33.82719l-1.55862,0.05914
			c-29.25992,0.83854-66.50305,10.24365-104.36833,27.90057c-1.897,0.88449-3.77177,1.75867-5.60376,2.66684
			c-12.66019,5.90344-18.15549,20.95227-12.25211,33.61232c5.90349,12.66006,20.97411,18.14532,33.63419,12.24184
			c61.02879-28.45815,122.85381-34.16701,130.22801-18.353L377.46799,178.36026z"/>
		
			<linearGradient id="SVGID_00000026136316572319051660000003609321915493077889_" gradientUnits="userSpaceOnUse" x1="185.24725" y1="512.28247" x2="299.64023" y2="504.30161" gradientTransform="matrix(0.93969 0.34202 -0.34202 0.93969 71.15332 -354.34613)">
			<stop  offset="0" style="stop-color:#A0D7FF"/>
			<stop  offset="1" style="stop-color:#6F82BA"/>
		</linearGradient>
		<path style="fill:url(#SVGID_00000026136316572319051660000003609321915493077889_);" d="M212.53419,197.03079
			c-62.84627,29.30569-121.15387,37.27774-130.23367,17.80605c-3.56566-7.64658,0.99404-18.38898,11.64906-30.39043
			c1.38519-1.86,2.96797-3.76497,4.72783-5.69133c0.4195-1.13643,2.58427-11.16173,3.94503-15.35707
			c-29.00665,25.85892-43.26419,52.59486-34.58263,71.21252c14.36794,30.81213,85.9481,27.80313,159.9014-6.68185
			c1.89691-0.88455,3.77162-1.75874,5.60378-2.66685c12.66006-5.90349,18.15556-20.9523,12.25208-33.61238
			c-1.55316-3.33073-3.74522-6.15898-6.35657-8.41978C230.98064,187.99226,221.9769,192.62758,212.53419,197.03079z"/>
		
			<linearGradient id="SVGID_00000096778960822615263220000015255545877822272662_" gradientUnits="userSpaceOnUse" x1="491.57513" y1="460.16357" x2="378.06894" y2="435.33411" gradientTransform="matrix(0.93969 0.34202 -0.34202 0.93969 71.15332 -354.34613)">
			<stop  offset="0" style="stop-color:#373754"/>
			<stop  offset="0.75607" style="stop-color:#6F82BA"/>
			<stop  offset="1" style="stop-color:#6F82BA"/>
		</linearGradient>
		<path style="fill:url(#SVGID_00000096778960822615263220000015255545877822272662_);" d="M233.26236,207.72612
			c62.84628-29.30571,121.15387-37.27776,130.23367-17.80606c3.56567,7.64658-0.99405,18.38898-11.64905,30.39044
			c-1.38519,1.85999-2.96799,3.76495-4.72784,5.69131c-0.41949,1.13644-2.58426,11.16173-3.94504,15.35707
			c29.00665-25.8589,43.26419-52.59486,34.58264-71.21251c-14.36792-30.81213-85.94809-27.80315-159.9014,6.68184
			c-1.89691,0.88455-3.77162,1.75874-5.60378,2.66685c-12.66006,5.90349-18.15555,20.95232-12.25206,33.61238
			c1.55315,3.33073,3.74521,6.159,6.35655,8.4198C214.81592,216.76465,223.81966,212.12932,233.26236,207.72612z"/>
		
			<radialGradient id="correction_00000124151209500485403210000018274680391739530624_" cx="218.38263" cy="201.40808" r="45.77943" gradientTransform="matrix(0.93923 -0.3433 0.30957 0.84695 -49.07786 105.79507)" gradientUnits="userSpaceOnUse">
			<stop  offset="0.48751" style="stop-color:#6F82BA"/>
			<stop  offset="1" style="stop-color:#6F82BA;stop-opacity:0"/>
		</radialGradient>
		<path id="correction" style="fill:url(#correction_00000124151209500485403210000018274680391739530624_);" d="M196.23633,240.414
			c12.20679-3.95135,24.86755-8.86285,37.49561-14.7514c8.42529-3.92877,17.91492-2.80835,25.06299,2.10883
			c4.2597-6.77692,6.73236-14.79053,6.73236-23.38586c0-16.24841-8.81055-30.4303-21.90833-38.05621
			c-10.34979,3.57471-20.96368,7.82654-31.55426,12.76495c-8.4071,3.92029-17.87427,2.81366-25.01697-2.07642
			c-5.97577,7.51477-9.55518,17.02051-9.55518,27.36768C177.49255,219.28754,184.90497,232.45032,196.23633,240.414z"/>
	</g>
	<g id="stars_on_planet">
		<path class="st13" d="M292.06686,231.23465l3.90698,3.73953l5.29547-1.0985c0.31967-0.06631,0.57663,0.26273,0.43481,0.55679
			l-2.34918,4.87135l2.68112,4.69684c0.16183,0.28354-0.07169,0.62958-0.3952,0.58559l-5.35886-0.72888l-3.63843,4.0013
			c-0.21967,0.24155-0.62094,0.12639-0.67905-0.19489l-0.9628-5.32181l-4.92978-2.22391
			c-0.29761-0.13425-0.31207-0.55148-0.02451-0.70602l4.76382-2.5602l0.59167-5.37573
			C291.43866,231.1516,291.83099,231.0089,292.06686,231.23465z"/>
		<path class="st2" d="M309.6731,202.43999l2.18884,2.09503l2.96674-0.6154c0.17911-0.03716,0.32306,0.14719,0.24359,0.31194
			l-1.3161,2.72913l1.50208,2.63135c0.09067,0.15884-0.04016,0.35272-0.22141,0.32806l-3.00223-0.40834l-2.03842,2.24168
			c-0.12305,0.13533-0.34787,0.07082-0.38043-0.10918l-0.53937-2.98149l-2.76187-1.24593
			c-0.16675-0.07521-0.17484-0.30896-0.01373-0.39554l2.66888-1.43433l0.33148-3.0117
			C309.32117,202.39346,309.54095,202.31352,309.6731,202.43999z"/>
		<path class="st13" d="M142.92105,134.25685l4.7787,4.5739l6.47699-1.34358c0.39101-0.08112,0.70528,0.32133,0.53183,0.68102
			l-2.87332,5.95824l3.27931,5.7448c0.19797,0.3468-0.08766,0.77005-0.48335,0.71623l-6.55452-0.89149l-4.45026,4.89406
			c-0.26865,0.29544-0.75946,0.15459-0.83055-0.23836l-1.1776-6.50922l-6.02972-2.72009
			c-0.364-0.16422-0.3817-0.67453-0.02995-0.86356l5.82672-3.13142l0.72368-6.57516
			C142.15269,134.15527,142.63257,133.98074,142.92105,134.25685z"/>
		<path class="st2" d="M155.99864,107.52081l2.18884,2.09503l2.96674-0.61542c0.17909-0.03715,0.32304,0.14719,0.24361,0.31194
			l-1.31612,2.72912l1.50208,2.63136c0.09067,0.15884-0.04016,0.35271-0.22141,0.32806l-3.00224-0.40834l-2.03841,2.24168
			c-0.12305,0.13532-0.34787,0.0708-0.38043-0.10918l-0.53938-2.98149l-2.76187-1.24592
			c-0.16673-0.07522-0.17484-0.30896-0.01372-0.39555l2.66888-1.43432l0.33148-3.01171
			C155.6467,107.47427,155.8665,107.39433,155.99864,107.52081z"/>
		<circle class="st3" cx="130.32658" cy="132.50215" r="1.62035"/>
		<circle class="st3" cx="157.06171" cy="162.44717" r="1.62035"/>
		<circle class="st3" cx="218.4679" cy="216.58597" r="1.62035"/>
		<circle class="st14" cx="170.23265" cy="228.58717" r="0.81017"/>
		<circle class="st3" cx="158.46364" cy="244.79608" r="1.62035"/>
		<circle class="st3" cx="277.01199" cy="224.5363" r="1.62035"/>
		<circle class="st3" cx="258.89145" cy="240.7888" r="1.62035"/>
		<circle class="st3" cx="327.81641" cy="242.40915" r="1.62035"/>
		<circle class="st15" cx="118.7282" cy="181.46864" r="1.62035"/>
		<circle class="st16" cx="154.64017" cy="196.57095" r="2.81004"/>
		<circle class="st17" cx="185.34755" cy="231.92545" r="2.00938"/>
		<circle class="st18" cx="319.59512" cy="170.68575" r="2.00939"/>
		<circle class="st17" cx="299.24948" cy="165.30128" r="1.0047"/>
		<circle class="st16" cx="229.61894" cy="244.0295" r="2.81004"/>
		<circle class="st19" cx="222.32748" cy="272.22391" r="2.23925"/>
		<circle class="st19" cx="227.3797" cy="159.66556" r="2.23924"/>
		<circle class="st15" cx="278.21439" cy="266.35175" r="2.82275"/>
		<circle class="st20" cx="208.55693" cy="142.03807" r="2.82274"/>
		<circle class="st5" cx="332.741" cy="226.15665" r="0.81017"/>
		<circle class="st5" cx="321.60452" cy="224.5363" r="0.81017"/>
		<circle class="st21" cx="275.39166" cy="176.20557" r="0.81017"/>
		<circle class="st22" cx="248.85002" cy="239.97864" r="0.81017"/>
		<circle class="st5" cx="297.27087" cy="262.71884" r="0.81018"/>
		<circle class="st5" cx="247.35933" cy="251.10161" r="0.81017"/>
		<circle class="st3" cx="191.68318" cy="166.30598" r="1.62035"/>
		<circle class="st22" cx="206.57576" cy="167.92633" r="0.81017"/>
		<circle class="st5" cx="205.76558" cy="158.85538" r="0.81017"/>
		<circle class="st6" cx="309.11581" cy="269.1745" r="0.81018"/>
		<circle class="st6" cx="324.04819" cy="250.29144" r="0.81017"/>
		<circle class="st6" cx="154.26064" cy="125.18816" r="0.81017"/>
		<circle class="st6" cx="301.06436" cy="219.01649" r="0.81017"/>
		<circle class="st5" cx="166.20729" cy="177.01573" r="0.81017"/>
		<circle class="st5" cx="282.74768" cy="167.11615" r="0.81017"/>
		<circle class="st5" cx="134.53065" cy="154.74811" r="0.81017"/>
		<circle class="st6" cx="134.53065" cy="169.87558" r="0.81017"/>
		<circle class="st6" cx="201.62524" cy="226.96683" r="0.81017"/>
		<path class="st6" d="M256.76144,169.87558c0.44745,0,0.81018,0.36272,0.81018,0.81017s-0.36273,0.81017-0.81018,0.81017
			s-0.81017-0.36272-0.81017-0.81017S256.314,169.87558,256.76144,169.87558z"/>
	</g>
	<g id="glasses">
		
			<linearGradient id="SVGID_00000007413804697946731400000005746348977385632946_" gradientUnits="userSpaceOnUse" x1="34.11469" y1="-346.8111" x2="97.36483" y2="-311.23291" gradientTransform="matrix(1 0 0 1 0 414)">
			<stop  offset="0" style="stop-color:#373754"/>
			<stop  offset="0.5739" style="stop-color:#6F82BA"/>
			<stop  offset="0.96043" style="stop-color:#373754"/>
		</linearGradient>
		<path style="fill:url(#SVGID_00000007413804697946731400000005746348977385632946_);" d="M49.62445,78.87783l6.12144-2.69074
			c1.35225-0.59439,2.90382-0.52726,4.19968,0.1817l27.42822,15.00602v4.27295l-28.114-17.37957
			c-0.73525-0.45451-1.68861-0.33025-2.28278,0.29755l-3.91439,4.13596c-0.40137,0.42409-1.07067,0.44211-1.49428,0.04023
			l-2.24585-2.13068C48.77471,80.09157,48.93322,79.18166,49.62445,78.87783z"/>
		
			<linearGradient id="SVGID_00000034048212773268800440000008768938280941731474_" gradientUnits="userSpaceOnUse" x1="85.78" y1="-375.55557" x2="140.97763" y2="-339.09946" gradientTransform="matrix(1 0 0 1 0 414)">
			<stop  offset="0" style="stop-color:#373754"/>
			<stop  offset="0.5739" style="stop-color:#6F82BA"/>
			<stop  offset="0.96043" style="stop-color:#373754"/>
		</linearGradient>
		<path style="fill:url(#SVGID_00000034048212773268800440000008768938280941731474_);" d="M97.69511,51.42414l6.12144-2.69074
			c1.35225-0.59439,2.90382-0.52726,4.19968-0.2034l27.42822,15.00602v4.65804l-28.114-17.37956
			c-0.73525-0.45452-1.68861-0.33025-2.28278,0.29755l-3.91438,4.13596c-0.40137,0.42409-1.07068,0.44211-1.49428,0.04023
			l-2.24586-2.13068C96.84538,52.63788,97.00389,51.72798,97.69511,51.42414z"/>
		
			<linearGradient id="SVGID_00000113318035464564455650000013781119251501472935_" gradientUnits="userSpaceOnUse" x1="195.08452" y1="-393.6051" x2="17.60922" y2="-256.77411" gradientTransform="matrix(1 0 0 1 0 414)">
			<stop  offset="0" style="stop-color:#373754"/>
			<stop  offset="0.21986" style="stop-color:#474C71"/>
			<stop  offset="0.56137" style="stop-color:#5D6999"/>
			<stop  offset="0.8334" style="stop-color:#6A7BB1"/>
			<stop  offset="1" style="stop-color:#6F82BA"/>
		</linearGradient>
		<path style="fill:url(#SVGID_00000113318035464564455650000013781119251501472935_);" d="M85.30182,92.25488l-0.00001,3.03126
			c0,0.51715,1.34653,1.32004,1.81733,1.10604c0,0,0.86962-0.63421,0.89043-0.41328
			c0.17517,1.85978,0.79649,8.62347,5.09037,8.53013c4.91389-0.10683,10.36189-5.76849,11.96425-8.22543
			c1.60236-2.45695,3.86116-9.12294,4.54739-11.24531c0.69635-2.15366,2.01264-3.14322,3.08088-1.11357
			c1.06824,2.02966,4.05358,6.58352,7.64707,5.81238c3.43987-0.73817,10.53716-5.60588,12.03185-11.58465
			c0.75452-3.01807,2.11923-6.9559,2.35626-8.81182c0.02835-0.22195,2.7171-5.59134,2.7171-5.59134
			c0-0.39939-1.36842-0.7857-1.74631-0.6564c-3.17316,1.08577-6.25856,1.48845-12.6255,5.68791
			c-7.25565,4.78564-9.73773,8.6395-13.03246,10.03059c-3.30782,1.39664-7.10196,0.80538-14.35035,5.71085
			c-6.77077,4.58224-8.1606,6.20789-9.99212,7.09683C85.45484,91.73709,85.30182,91.98459,85.30182,92.25488z"/>
		
			<linearGradient id="SVGID_00000080173054022735556990000008198704242767111841_" gradientUnits="userSpaceOnUse" x1="11.62575" y1="-271.25589" x2="140.75562" y2="-344.26138" gradientTransform="matrix(1 0 0 1 0 414)">
			<stop  offset="0" style="stop-color:#A0D7FF"/>
			<stop  offset="0.97739" style="stop-color:#6F82BA"/>
		</linearGradient>
		<path style="fill:url(#SVGID_00000080173054022735556990000008198704242767111841_);" d="M86.41238,92.68728l-0.00001,3.03126
			c0,0.51714,0.53451,0.86132,1.00529,0.64732l1.22285-0.38024c0.20201-0.09183,0.43428,0.0397,0.45509,0.26062
			c0.17518,1.85978,0.82102,8.78852,5.1149,8.69518c4.91389-0.10682,10.3619-5.76848,11.96426-8.22542
			c1.60236-2.45695,3.86116-9.12294,4.54739-11.24531c0.69635-2.15366,2.01264-3.14322,3.08088-1.11357
			s3.71191,6.34736,7.3054,5.57622c3.43987-0.73817,10.87881-5.36972,12.3735-11.34849
			c0.75453-3.01807,1.70183-7.32137,1.93886-9.17729c0.02835-0.22195,0.14702-0.41837,0.32935-0.54808l1.57414-1.11991
			c0.15993-0.10833,0.25571-0.28892,0.25571-0.48208v-3.1828c0-0.39939-0.39311-0.6787-0.771-0.5494
			c-3.17316,1.08576-6.25856,1.48845-12.62549,5.68791c-7.25565,4.78564-9.73773,8.63949-13.03246,10.03059
			c-3.30782,1.39664-7.10196,0.80538-14.35035,5.71085c-6.77077,4.58224-8.1606,6.20789-9.99212,7.09683
			C86.5654,92.16949,86.41238,92.41698,86.41238,92.68728z"/>
		
			<linearGradient id="SVGID_00000062177108589695523500000005034745913367445923_" gradientUnits="userSpaceOnUse" x1="90.77126" y1="-321.02515" x2="108.65071" y2="-321.02515" gradientTransform="matrix(1 0 0 1 0 414)">
			<stop  offset="0.27658" style="stop-color:#A0D7FF"/>
			<stop  offset="1" style="stop-color:#6F82BA"/>
		</linearGradient>
		<path style="fill:url(#SVGID_00000062177108589695523500000005034745913367445923_);" d="M90.95177,93.69689
			c0.62859-4.95021,10.54272-9.65802,13.78663-11.0588s3.98116,0.44235,3.90744,2.06431s-2.10237,10.20051-4.68276,13.14952
			c-2.58038,2.94901-7.70791,6.35961-10.28829,5.91726C91.20416,103.34564,90.36196,98.34158,90.95177,93.69689z"/>
		
			<linearGradient id="SVGID_00000047759410350105980410000016751119322717270698_" gradientUnits="userSpaceOnUse" x1="110.8542" y1="-335.70761" x2="92.05079" y2="-302.72934" gradientTransform="matrix(1 0 0 1 0 414)">
			<stop  offset="0" style="stop-color:#373754"/>
			<stop  offset="0.5739" style="stop-color:#6F82BA"/>
			<stop  offset="0.96043" style="stop-color:#373754"/>
		</linearGradient>
		<path style="fill:url(#SVGID_00000047759410350105980410000016751119322717270698_);" d="M108.64753,84.70429
			c-0.07591,1.62061-2.10278,10.1969-4.68327,13.14792c-2.58046,2.94657-7.71015,6.35742-10.29063,5.91544
			c-0.50896-0.0893-0.95094-0.37056-1.32147-0.8036c0.20088,0.11608,0.41964,0.19643,0.64733,0.2366
			c2.58048,0.44201,7.71017-2.96886,10.29066-5.91544c2.58046-2.95102,4.60733-11.52728,4.68324-13.14789
			c0.02679-0.64735-0.07145-1.33044-0.40628-1.83046C108.44662,82.69975,108.6877,83.73997,108.64753,84.70429z"/>
		
			<linearGradient id="SVGID_00000003796973360024953370000015317978458171241627_" gradientUnits="userSpaceOnUse" x1="114.93336" y1="-335.79651" x2="133.43707" y2="-335.79651" gradientTransform="matrix(1 0 0 1 0 414)">
			<stop  offset="0.27658" style="stop-color:#A0D7FF"/>
			<stop  offset="1" style="stop-color:#6F82BA"/>
		</linearGradient>
		<path style="fill:url(#SVGID_00000003796973360024953370000015317978458171241627_);" d="M114.93707,81.16359
			c0.18241-4.46922,7.49029-9.64317,11.30454-11.5503c3.7354-1.86771,6.58614-3.29306,7.07764,0.4915
			c0.57141,4.39993-0.98302,9.24024-3.63712,12.7299c-2.65411,3.48966-8.04703,6.2448-10.2724,5.79972
			C116.70647,88.09377,114.83876,83.57195,114.93707,81.16359z"/>
		
			<linearGradient id="SVGID_00000003079472855588182420000015719636420152195974_" gradientUnits="userSpaceOnUse" x1="135.16327" y1="-350.47672" x2="121.56696" y2="-322.27161" gradientTransform="matrix(1 0 0 1 0 414)">
			<stop  offset="0" style="stop-color:#373754"/>
			<stop  offset="0.5739" style="stop-color:#6F82BA"/>
			<stop  offset="0.96043" style="stop-color:#373754"/>
		</linearGradient>
		<path style="fill:url(#SVGID_00000003079472855588182420000015719636420152195974_);" d="M129.68419,82.83367
			c-2.65638,3.49123-8.04948,6.24583-10.27279,5.79939c-0.17412-0.03573-0.34377-0.08483-0.50896-0.15181
			c2.42868,0.07142,7.34856-2.55814,9.84418-5.84402c2.65637-3.48676,4.21001-8.33072,3.63857-12.72823
			c-0.15627-1.20094-0.54915-1.87955-1.13399-2.18314c1.10274-0.0134,1.83939,0.62057,2.06705,2.37958
			C133.88972,74.50295,132.33609,79.34691,129.68419,82.83367z"/>
	</g>
	<g id="underwaer">
		
			<linearGradient id="SVGID_00000013877979022558459250000016789724226903209620_" gradientUnits="userSpaceOnUse" x1="194.37129" y1="185.23819" x2="323.80844" y2="185.23819" gradientTransform="matrix(0.90877 0.4173 -0.4173 0.90877 -26.96134 98.34852)">
			<stop  offset="0.14435" style="stop-color:#A0D7FF"/>
			<stop  offset="0.51132" style="stop-color:#8CB5E3"/>
			<stop  offset="1" style="stop-color:#6F82BA"/>
		</linearGradient>
		<path style="fill:url(#SVGID_00000013877979022558459250000016789724226903209620_);" d="M148.04402,406.11835l10.4597-43.48898
			l-0.02275-0.01007c0,0,1.89879-8.23282,1.89795-8.23294c-31.96957-3.97955-69.53227-22.93024-77.42161-27.77716l-4.37028,8.14154
			c0.00459,0.00278,0.00932,0.00546,0.014,0.00827l-18.85865,40.55566l36.56118,17.29227l4.3279-8.2247
			c1.1339,1.34921,2.62347,2.42841,4.40549,3.05563c1.78549,0.61731,3.6231,0.69876,5.35019,0.3476l-1.6943,8.96158
			L148.04402,406.11835z"/>
		
			<linearGradient id="SVGID_00000061454024798742170930000008538988615001777831_" gradientUnits="userSpaceOnUse" x1="186.57338" y1="170.78172" x2="340.0943" y2="149.50406" gradientTransform="matrix(0.90877 0.4173 -0.4173 0.90877 -26.96134 98.34852)">
			<stop  offset="0.28084" style="stop-color:#A0D7FF"/>
			<stop  offset="0.97739" style="stop-color:#6F82BA"/>
		</linearGradient>
		<path style="fill:url(#SVGID_00000061454024798742170930000008538988615001777831_);" d="M158.4807,362.62131
			c-28.34979-2.89905-61.78271-15.90387-79.89364-27.87061l3.69255-7.98459l78.09931,27.62024L158.4807,362.62131z"/>
		
			<linearGradient id="SVGID_00000175303411481266134170000007261196742794375559_" gradientUnits="userSpaceOnUse" x1="225.27463" y1="187.22459" x2="255.22595" y2="189.90681" gradientTransform="matrix(0.90877 0.4173 -0.4173 0.90877 -26.96134 98.34852)">
			<stop  offset="0.22306" style="stop-color:#A0D7FF"/>
			<stop  offset="1" style="stop-color:#6F82BA"/>
		</linearGradient>
		<path style="fill:url(#SVGID_00000175303411481266134170000007261196742794375559_);" d="M126.77293,355.99146l-8.78975,25.19662
			c-1.8618,5.28955-7.64636,8.08206-12.94621,6.24979l0,0c-5.28954-1.86182-8.08203-7.64636-6.24976-12.94623l8.78975-25.19662
			L126.77293,355.99146z"/>
		
			<radialGradient id="SVGID_00000093881319227049531060000008036794902284394635_" cx="222.31229" cy="-154.73064" r="22.08845" gradientTransform="matrix(0.91145 0.41111 -0.08932 0.20852 -141.97113 328.75497)" gradientUnits="userSpaceOnUse">
			<stop  offset="0" style="stop-color:#A0D7FF"/>
			<stop  offset="1" style="stop-color:#6F82BA"/>
		</radialGradient>
		<path style="fill:url(#SVGID_00000093881319227049531060000008036794902284394635_);" d="M96.27309,392.69675
			c-0.62309,1.33392-9.34239-1.42163-19.47511-6.15472s-17.84178-9.6514-17.21869-10.98532
			c0.6231-1.33392,9.3424,1.42163,19.47511,6.15472S96.89619,391.36279,96.27309,392.69675z"/>
		
			<radialGradient id="SVGID_00000147204596346949371240000015486268990355546797_" cx="439.53793" cy="41.70066" r="23.42541" gradientTransform="matrix(1.93301 0.66763 -0.13098 0.45225 -713.17285 21.6449)" gradientUnits="userSpaceOnUse">
			<stop  offset="0.27658" style="stop-color:#A0D7FF"/>
			<stop  offset="1" style="stop-color:#6F82BA"/>
		</radialGradient>
		<path style="fill:url(#SVGID_00000147204596346949371240000015486268990355546797_);" d="M160.37892,354.38635
			c-0.55791,1.57758-18.49332-3.32657-40.05984-10.9537c-21.56653-7.62711-38.59737-15.08899-38.03947-16.66653
			c0.55791-1.57758,18.49332,3.32657,40.05984,10.9537C143.90599,345.34692,160.93683,352.80881,160.37892,354.38635z"/>
		
			<radialGradient id="SVGID_00000128444053054425200060000014448755681687749551_" cx="211.88541" cy="-588.19763" r="22.08845" gradientTransform="matrix(0.97288 0.23074 -0.04803 0.22122 -107.29094 487.60623)" gradientUnits="userSpaceOnUse">
			<stop  offset="0" style="stop-color:#A0D7FF"/>
			<stop  offset="1" style="stop-color:#6F82BA"/>
		</radialGradient>
		<path style="fill:url(#SVGID_00000128444053054425200060000014448755681687749551_);" d="M147.88959,406.58157
			c-0.35796,1.42496-9.44109,0.37131-20.28774-2.35339s-19.34943-6.08868-18.99148-7.51364
			c0.35796-1.42499,9.44109-0.37134,20.28775,2.35336C139.74477,401.79263,148.24754,405.15659,147.88959,406.58157z"/>
	</g>
	<g id="stars">
		<path class="st2" d="M178.86227,391.6496l0.34715,1.90762l1.76828,0.7955c0.10674,0.048,0.11209,0.1976,0.00903,0.25311
			l-1.70697,0.91965l-0.21013,1.92755c-0.01268,0.11636-0.15329,0.16766-0.23793,0.08682l-1.40213-1.33926l-1.89813,0.39581
			c-0.11458,0.0239-0.20683-0.09396-0.1561-0.19946l0.84041-1.74734l-0.96298-1.68292
			c-0.05814-0.10159,0.02547-0.22574,0.14146-0.21008l1.92154,0.25931l1.30296-1.43591
			C178.6974,391.49332,178.84131,391.53445,178.86227,391.6496z"/>
		<circle class="st3" cx="160.45557" cy="405.15778" r="1.62035"/>
		<circle class="st15" cx="191.10104" cy="393.35251" r="1.62035"/>
		<circle class="st4" cx="196.72842" cy="384.98041" r="1.44141"/>
		<circle class="st6" cx="181.31882" cy="407.3407" r="0.81017"/>
		<circle class="st6" cx="153.65414" cy="401.30258" r="0.81017"/>
	</g>
	<g id="socks">
		<g>
			<g>
				
					<linearGradient id="SVGID_00000177458185895909704620000012642311533142225323_" gradientUnits="userSpaceOnUse" x1="374.36868" y1="-289.33105" x2="341.92004" y2="-285.49857" gradientTransform="matrix(0.93818 -0.34614 0.34614 0.93818 145.96962 721.79889)">
					<stop  offset="0.03257" style="stop-color:#A0D7FF"/>
					<stop  offset="0.97739" style="stop-color:#6F82BA"/>
				</linearGradient>
				<path style="fill:url(#SVGID_00000177458185895909704620000012642311533142225323_);" d="M351.69376,310.24728
					l20.87796,19.19348l1.28717,28.11099c0.01819,0.43259,0.06461,0.85828,0.13626,1.27438
					c0.40247,2.52048,1.65045,4.74026,3.43277,6.37878c2.02551,1.86212,4.74081,2.97391,7.70081,2.92075
					c6.23615-0.11105,11.15063-5.3497,10.86584-11.58142l-0.04639-0.96735l-1.32031-28.62854l-0.00253-0.05469l-8.3248-0.37308
					c-2.27634-0.11691-3.70837-2.50342-2.73984-4.56674c1.09723-2.33752,3.07587-6.45404,4.43738-9.29742l-20.87589-19.19162
					L351.69376,310.24728z"/>
				<path class="st38" d="M395.94818,355.5769l0.04639,0.96738c0.28479,6.23169-4.6297,11.47034-10.86584,11.58139
					c-2.95999,0.05316-5.67529-1.05862-7.70081-2.92072c-1.78232-1.63852-3.0303-3.85831-3.43277-6.37881
					C380.42169,354.22241,388.63678,353.10165,395.94818,355.5769z"/>
				<path class="st38" d="M386.30054,326.5206l8.3248,0.37308l-0.14941-3.22046c-0.15671-3.38895-1.64481-6.5737-4.13889-8.86655
					l-2.33896-2.15024c-1.36151,2.84338-3.34015,6.9599-4.43738,9.29742C382.59216,324.01718,384.0242,326.40369,386.30054,326.5206
					z"/>
			</g>
			<g>
				<g>
					<g>
						<defs>
							<path id="SVGID_00000089549631487425687490000016429780012750755981_" d="M343.72696,302.92316l28.84357,26.51645
								c0,0,1.35178,28.9693,1.42343,29.38538c0.40247,2.52051,1.65045,4.7403,3.43277,6.37881
								c2.02551,1.86212,4.74081,2.97391,7.70078,2.92075c6.23618-0.11105,11.15063-5.34967,10.86588-11.58142l-1.51865-32.871
								c-0.15671-3.38898-1.64484-6.57373-4.13892-8.86658l-31.18048-28.66479L343.72696,302.92316z"/>
						</defs>
						<clipPath id="SVGID_00000165941166150668846320000012188457464030194346_">
							<use xlink:href="#SVGID_00000089549631487425687490000016429780012750755981_"  style="overflow:visible;"/>
						</clipPath>
						
							<path style="opacity:0.1;clip-path:url(#SVGID_00000165941166150668846320000012188457464030194346_);fill:#434344;enable-background:new    ;" d="
							M337.69775,308.79825l28.23102,27.16769c0,0,0.69037,28.99261,0.7525,29.41022
							c0.34488,2.52902,1.54187,4.77673,3.28632,6.45551c1.98251,1.90781,4.67172,3.08127,7.63214,3.09567
							c6.23709,0.03128,11.26981-5.09381,11.12732-11.33044l-0.76819-32.89713c-0.07935-3.39166-1.49438-6.60953-3.93552-8.95868
							l-30.51828-29.36884L337.69775,308.79825z"/>
					</g>
				</g>
			</g>
			<g>
				
					<linearGradient id="SVGID_00000003795070491744308360000015732457810952502684_" gradientUnits="userSpaceOnUse" x1="380.00998" y1="-433.50867" x2="359.14148" y2="-427.01624" gradientTransform="matrix(0.85746 -0.51456 0.51456 0.85746 270.74741 846.59991)">
					<stop  offset="0.03477" style="stop-color:#A0D7FF"/>
					<stop  offset="1" style="stop-color:#6F82BA"/>
				</linearGradient>
				<path style="fill:url(#SVGID_00000003795070491744308360000015732457810952502684_);" d="M367.11957,293.43625
					c0.84946,0.78488-1.92517,5.16928-6.19727,9.79285c-4.27213,4.62354-8.42395,7.73538-9.27341,6.95047l0.07214,0.06656
					l-7.97989-7.30988l15.39853-16.80988L367.11957,293.43625"/>
			</g>
			
				<radialGradient id="SVGID_00000088830740902470641000000009959166206264320700_" cx="382.71082" cy="-2133.81763" r="17.185" gradientTransform="matrix(0.63275 -0.68481 0.19294 0.17827 527.27545 934.06061)" gradientUnits="userSpaceOnUse">
				<stop  offset="0.25058" style="stop-color:#A0D7FF"/>
				<stop  offset="1" style="stop-color:#6F82BA"/>
			</radialGradient>
			<path style="fill:url(#SVGID_00000088830740902470641000000009959166206264320700_);" d="M359.21658,286.18463
				c0.70779,0.65399-2.18164,4.93228-6.45377,9.55582c-4.27209,4.62354-8.30911,7.84149-9.01691,7.1875
				s2.18164-4.93228,6.45377-9.55582C354.47177,288.74857,358.50879,285.53064,359.21658,286.18463z"/>
			<g>
				
					<linearGradient id="SVGID_00000047051307854944534230000004962234336885683090_" gradientUnits="userSpaceOnUse" x1="316.41391" y1="-281.72839" x2="408.96906" y2="-281.72839" gradientTransform="matrix(0.93818 -0.34614 0.34614 0.93818 145.96962 721.79889)">
					<stop  offset="0.14532" style="stop-color:#A0D7FF"/>
					<stop  offset="0.69002" style="stop-color:#6F82BA"/>
				</linearGradient>
				<path style="fill:url(#SVGID_00000047051307854944534230000004962234336885683090_);" d="M340.76651,316.69431
					l16.98529,22.71075l-3.91284,27.86707c-0.06183,0.42856-0.0946,0.8555-0.1008,1.27768
					c-0.06873,2.55151,0.74902,4.9632,2.19904,6.90198c1.64789,2.20334,4.11191,3.79626,7.03104,4.28922
					c6.14993,1.03955,11.94525-3.20422,12.8132-9.38174l0.13263-0.95938l3.97559-28.38187l0.00757-0.0542l-8.11362-1.90012
					c-2.21585-0.53424-3.18381-3.14368-1.85178-4.99329c1.509-2.09543,4.21207-5.77704,6.07404-8.32098l-16.98364-22.70853"/>
				
					<linearGradient id="SVGID_00000002364246083904691270000017930148146871370931_" gradientUnits="userSpaceOnUse" x1="345.39844" y1="-237.7726" x2="324.52994" y2="-252.61241" gradientTransform="matrix(0.93818 -0.34614 0.34614 0.93818 145.96962 721.79889)">
					<stop  offset="0.03477" style="stop-color:#A0D7FF"/>
					<stop  offset="1" style="stop-color:#6F82BA"/>
				</linearGradient>
				<path style="fill:url(#SVGID_00000002364246083904691270000017930148146871370931_);" d="M375.91403,369.3999l-0.1326,0.95935
					c-0.86795,6.17752-6.6633,10.4213-12.8132,9.38174c-2.91913-0.49295-5.38318-2.08588-7.03104-4.28922
					c-1.45001-1.93878-2.26776-4.35046-2.19907-6.90198C360.90271,365.20865,369.18365,365.62024,375.91403,369.3999z"/>
				<path class="st38" d="M371.7836,339.06369l8.11362,1.90012l0.44638-3.19287c0.47018-3.35983-0.40582-6.76422-2.43488-9.47723
					l-1.90286-2.54428c-1.86197,2.54395-4.56503,6.22556-6.07404,8.32098
					C368.59979,335.92001,369.56775,338.52945,371.7836,339.06369z"/>
			</g>
			<g>
				
					<linearGradient id="SVGID_00000122702849166905232280000014668895544415058331_" gradientUnits="userSpaceOnUse" x1="357.73346" y1="-327.96176" x2="328.5477" y2="-318.88171" gradientTransform="matrix(0.93818 -0.34614 0.34614 0.93818 145.96962 721.79889)">
					<stop  offset="0.03477" style="stop-color:#A0D7FF"/>
					<stop  offset="1" style="stop-color:#6F82BA"/>
				</linearGradient>
				<path style="fill:url(#SVGID_00000122702849166905232280000014668895544415058331_);" d="M359.02222,303.04089
					c0.68869,0.92917-2.85278,4.72116-7.91013,8.4697c-5.05734,3.7485-9.71542,6.03406-10.40411,5.10489l0.05853,0.07883
					l-6.48145-8.66623l18.25571-13.65341L359.02222,303.04089"/>
			</g>
			
				<radialGradient id="SVGID_00000013164675264033752580000002540230248042205082_" cx="324.8147" cy="-2006.5155" r="17.185" gradientTransform="matrix(0.74906 -0.5552 0.15642 0.21104 418.091 904.45563)" gradientUnits="userSpaceOnUse">
				<stop  offset="0.25058" style="stop-color:#A0D7FF"/>
				<stop  offset="1" style="stop-color:#6F82BA"/>
			</radialGradient>
			<path style="fill:url(#SVGID_00000013164675264033752580000002540230248042205082_);" d="M352.6055,294.4462
				c0.57385,0.7742-3.06076,4.44061-8.1181,8.18912c-5.05731,3.7485-9.62228,6.15967-10.19614,5.38547
				s3.06076-4.44058,8.11807-8.18912C347.46667,296.08316,352.03165,293.672,352.6055,294.4462z"/>
		</g>
	</g>
	<g id="woosh__x26__stars">
		<circle class="st3" cx="82.26545" cy="318.27289" r="1.23553"/>
		<circle class="st5" cx="77.82755" cy="312.67221" r="0.81018"/>
		
			<linearGradient id="SVGID_00000155121001871736006120000010229383008580412346_" gradientUnits="userSpaceOnUse" x1="47.88939" y1="-135.68585" x2="58.93817" y2="-62.55341" gradientTransform="matrix(1 0 0 1 0 414)">
			<stop  offset="0" style="stop-color:#373754;stop-opacity:0"/>
			<stop  offset="1" style="stop-color:#6F82BA"/>
		</linearGradient>
		<path style="fill:url(#SVGID_00000155121001871736006120000010229383008580412346_);" d="M62.20646,345.24948
			c-2.9708-2.46384-5.65767-5.28506-7.91135-8.43484c-2.25504-3.14639-4.07073-6.62054-5.33404-10.29657
			c-1.26669-3.67426-1.9784-7.54431-2.12213-11.43552c-0.14865-3.89252,0.27546-7.8002,1.17295-11.58243
			c0.04721-0.1987,0.24282-0.32541,0.43697-0.28299c0.18799,0.04105,0.30533,0.22687,0.26992,0.41895
			c-0.70026,3.75549-0.92286,7.58002-0.59358,11.32898c0.32436,3.74838,1.19398,7.41504,2.57295,10.84433
			c1.37618,3.4314,3.25852,6.62122,5.53186,9.47324c2.27243,2.85501,4.93089,5.37259,7.839,7.54239l0.00519,0.00388
			c0.65581,0.48935,0.78236,1.43814,0.28262,2.11911c-0.49975,0.68103-1.43656,0.83643-2.09237,0.34708
			C62.24609,345.28137,62.22408,345.26389,62.20646,345.24948z"/>
		
			<linearGradient id="SVGID_00000116209693481869623400000018143010394703162295_" gradientUnits="userSpaceOnUse" x1="40.30644" y1="-152.56375" x2="65.03469" y2="-69.96087" gradientTransform="matrix(1 0 0 1 0 414)">
			<stop  offset="0" style="stop-color:#373754;stop-opacity:0"/>
			<stop  offset="1" style="stop-color:#6F82BA"/>
		</linearGradient>
		<path style="fill:url(#SVGID_00000116209693481869623400000018143010394703162295_);" d="M61.23119,327.46722
			c-2.91159-2.60342-5.49013-5.65054-7.5806-9.1214c-2.09221-3.46674-3.6899-7.35696-4.68524-11.53397
			c-0.99909-4.17462-1.39365-8.62921-1.18609-13.16098c0.20248-4.53287,1.0116-9.13632,2.30933-13.63699
			c0.06824-0.23642,0.28664-0.40253,0.48787-0.37091c0.19485,0.03061,0.30168,0.23682,0.24652,0.46442
			c-1.08686,4.4512-1.67534,8.93893-1.67371,13.28741c-0.00351,4.3483,0.57671,8.55069,1.71706,12.42883
			c1.13721,3.88083,2.83159,7.43277,4.97033,10.55405c2.1375,3.12482,4.71407,5.81985,7.58658,8.08563l0.00513,0.00403
			c0.64777,0.51099,0.69385,1.60754,0.10289,2.4491c-0.59099,0.84164-1.59524,1.10965-2.24302,0.59866
			C61.27013,327.50079,61.24848,327.48242,61.23119,327.46722z"/>
		<circle class="st21" cx="76.66296" cy="324.19467" r="0.81018"/>
	</g>
	<g id="hat">
		
			<linearGradient id="SVGID_00000074435041513955121430000013542755612034837929_" gradientUnits="userSpaceOnUse" x1="256.69247" y1="-381.03519" x2="296.91953" y2="-381.03519" gradientTransform="matrix(1 0 0 1 0 414)">
			<stop  offset="0.14435" style="stop-color:#A0D7FF"/>
			<stop  offset="0.51132" style="stop-color:#8CB5E3"/>
			<stop  offset="1" style="stop-color:#6F82BA"/>
		</linearGradient>
		<path style="fill:url(#SVGID_00000074435041513955121430000013542755612034837929_);" d="M292.10477,17.90659
			c-0.15695-0.03843-0.31073-0.08336-0.4689-0.1194c-14.50323-3.30546-29.1972,4.71054-34.26855,18.69448
			c-0.60516,1.72102-1.31845,3.54407,0.40256,4.14914c0.11938,0.04198,37.56924,8.25301,37.56924,8.25301
			C298.05176,38.45586,297.45816,26.21164,292.10477,17.90659z"/>
		
			<linearGradient id="SVGID_00000094610273316512833470000005316951440638415513_" gradientUnits="userSpaceOnUse" x1="292.10477" y1="-378.50421" x2="314.57394" y2="-378.50421" gradientTransform="matrix(1 0 0 1 0 414)">
			<stop  offset="0.28084" style="stop-color:#A0D7FF"/>
			<stop  offset="0.97739" style="stop-color:#6F82BA"/>
		</linearGradient>
		<path style="fill:url(#SVGID_00000094610273316512833470000005316951440638415513_);" d="M292.10477,17.90659
			c5.35339,8.30505,5.94699,20.54928,3.23434,30.97724l18.49142,4.20117C317.41287,37.36708,307.7048,21.72813,292.10477,17.90659z"
			/>
		
			<radialGradient id="SVGID_00000170977927437591079800000012065084373549793460_" cx="376.50305" cy="-738.14319" r="29.81356" gradientTransform="matrix(0.99574 0.24555 -0.08784 0.35619 -154.11113 227.16933)" gradientUnits="userSpaceOnUse">
			<stop  offset="0.29378" style="stop-color:#A0D7FF"/>
			<stop  offset="1" style="stop-color:#6F82BA"/>
		</radialGradient>
		<path style="fill:url(#SVGID_00000170977927437591079800000012065084373549793460_);" d="M313.89682,53.84164
			c-0.64902,2.63193-14.03061,1.59536-29.88855-2.31525c-15.85797-3.91061-28.18723-9.21439-27.53818-11.84633
			s14.03061-1.59536,29.88855,2.31525C302.21661,45.90593,314.54587,51.20971,313.89682,53.84164z"/>
		
			<linearGradient id="SVGID_00000049920509233470581130000004417518119876226982_" gradientUnits="userSpaceOnUse" x1="315.46167" y1="-347.53354" x2="275.6257" y2="-384.32196" gradientTransform="matrix(1 0 0 1 0 414)">
			<stop  offset="0.52192" style="stop-color:#A0D7FF"/>
			<stop  offset="1" style="stop-color:#6F82BA"/>
		</linearGradient>
		<path style="fill:url(#SVGID_00000049920509233470581130000004417518119876226982_);" d="M284.48865,41.52669l8.84903,14.98593
			c5.29767,8.76693,16.97946,15.83413,27.47382,14.82783c1.80334-0.1733,3.12479-1.7757,2.95148-3.57906
			c-0.04968-0.51686-0.22134-1.01455-0.50085-1.45213l-9.43948-13.2099C310.49301,48.80562,296.34952,44.2689,284.48865,41.52669z"
			/>
	</g>
	<g id="woosh__x26__stars_00000183928670647913510970000012995561343725546422_">
		
			<linearGradient id="SVGID_00000014606385933913022580000003414884494262647960_" gradientUnits="userSpaceOnUse" x1="370.67078" y1="-248.15054" x2="321.9158" y2="-361.44449" gradientTransform="matrix(1 0 0 1 0 414)">
			<stop  offset="0" style="stop-color:#373754;stop-opacity:0"/>
			<stop  offset="1" style="stop-color:#6F82BA"/>
		</linearGradient>
		<path style="fill:url(#SVGID_00000014606385933913022580000003414884494262647960_);" d="M342.87491,67.33135
			c6.0625,0.99568,12.04059,3.00304,17.31387,6.29627c1.27487,0.888,2.60254,1.69842,3.76822,2.73357
			c0.58893,0.50618,1.22424,0.95805,1.77185,1.51022l1.65775,1.63697c2.10602,2.27294,4.03769,4.73432,5.5011,7.46191
			c3.09766,5.37288,4.67239,11.45185,5.23923,17.49679c0.56122,6.067,0.07437,12.15706-1.09937,18.05643
			c-1.17688,5.90652-3.03516,11.63547-5.30701,17.16409l-0.84631,2.07642l-0.93573,2.03612
			c-0.63647,1.35089-1.21313,2.73044-1.92313,4.04382l-2.04755,3.97868l-2.20975,3.88689
			c-3.01938,5.13547-6.26056,10.13744-9.80566,14.91229c-3.47061,4.83018-7.26208,9.41179-11.09518,13.94482
			c-0.12582,0.14885-0.34857,0.1675-0.49744,0.04161c-0.14664-0.12402-0.16696-0.34209-0.04706-0.49084l0.00543-0.00668
			c3.7179-4.60681,7.38794-9.25415,10.72809-14.13498c3.41528-4.8264,6.5173-9.86458,9.3894-15.01518l2.09763-3.89392
			l1.93167-3.97484c0.67148-1.3118,1.20749-2.68451,1.80411-4.02901l0.87555-2.02499l0.78476-2.0601
			c2.10822-5.48247,3.79428-11.12827,4.80423-16.88283c1.00854-5.74737,1.33185-11.61345,0.66727-17.347
			c-0.66873-5.71518-2.27985-11.34412-5.23816-16.20265c-1.39612-2.4749-3.21597-4.67147-5.17389-6.69628l-1.54004-1.45306
			c-0.50598-0.49174-1.09909-0.88562-1.64261-1.33399c-1.07391-0.91883-2.30832-1.62258-3.47955-2.40688
			c-4.86743-2.8838-10.38495-4.60671-16.02615-5.40439l-0.0239-0.0034c-1.08325-0.15318-1.83719-1.15543-1.68405-2.23862
			c0.15326-1.08319,1.15549-1.83711,2.23865-1.68392C342.84253,67.32629,342.86356,67.32955,342.87491,67.33135z"/>
		
			<linearGradient id="SVGID_00000007414810012463632890000014453214892886537403_" gradientUnits="userSpaceOnUse" x1="366.57407" y1="-326.43036" x2="334.09598" y2="-401.90097" gradientTransform="matrix(1 0 0 1 0 414)">
			<stop  offset="0" style="stop-color:#373754;stop-opacity:0"/>
			<stop  offset="1" style="stop-color:#6F82BA"/>
		</linearGradient>
		<path style="fill:url(#SVGID_00000007414810012463632890000014453214892886537403_);" d="M341.03412,49.26988
			c3.79843,0.68414,7.52545,1.81912,11.03683,3.4532c3.51093,1.63046,6.80051,3.7624,9.7084,6.34177
			c2.91,2.57616,5.43304,5.59576,7.47198,8.91313c2.04385,3.31609,3.59647,6.92708,4.6752,10.66165
			c0.05661,0.19623-0.05136,0.40276-0.24127,0.46132c-0.18387,0.05671-0.37744-0.04737-0.44107-0.23201
			c-1.2373-3.61431-2.9245-7.05378-5.05502-10.15604c-2.12595-3.10419-4.68646-5.86902-7.57373-8.17667
			c-2.88586-2.31086-6.09366-4.16246-9.47571-5.52761c-3.38278-1.36823-6.93567-2.25277-10.53491-2.71174l-0.00641-0.00082
			c-0.81168-0.10352-1.38852-0.8674-1.28833-1.7061c0.10019-0.83876,0.83945-1.43479,1.65112-1.33126
			C340.98395,49.26161,341.01172,49.266,341.03412,49.26988z"/>
		<circle class="st3" cx="339.2988" cy="56.88317" r="1.62036"/>
		<circle class="st3" cx="367.22577" cy="92.06676" r="1.62036"/>
		<circle class="st18" cx="329.96548" cy="40.45255" r="2.0094"/>
		<circle class="st5" cx="363.54285" cy="73.45197" r="0.81018"/>
		<circle class="st6" cx="352.73615" cy="47.91355" r="0.81017"/>
	</g>
	<g id="stars_00000043425893733648672430000000059757696824665998_">
		<circle class="st4" cx="383.28113" cy="280.98477" r="1.44141"/>
		<circle class="st3" cx="392.52066" cy="274.46387" r="1.38629"/>
		<circle class="st22" cx="393.26007" cy="261.11557" r="0.81018"/>
		<circle class="st6" cx="388.73883" cy="297.41052" r="0.81018"/>
	</g>
	<g id="woosh__x26__stars_00000168088872486918667020000005864021247047667122_">
		
			<linearGradient id="SVGID_00000134963084373282368640000000714196414027236014_" gradientUnits="userSpaceOnUse" x1="38.26714" y1="-214.16643" x2="32.49878" y2="-178.78719" gradientTransform="matrix(1 0 0 1 0 414)">
			<stop  offset="0" style="stop-color:#373754;stop-opacity:0"/>
			<stop  offset="1" style="stop-color:#6F82BA"/>
		</linearGradient>
		<path style="fill:url(#SVGID_00000134963084373282368640000000714196414027236014_);" d="M40.64116,210.36168
			c-1.36683,1.98608-2.62819,4.03111-3.70559,6.16591c-1.06166,2.14212-1.97139,4.34724-2.70218,6.60309
			c-0.73178,2.25533-1.28333,4.5596-1.65845,6.88528c-0.37851,2.32991-0.57581,4.66103-0.64652,7.03966
			c-0.03115,1.04919-0.90689,1.87445-1.95608,1.84331c-1.0492-0.03116-1.87443-0.90694-1.84328-1.95615
			c0.00186-0.06258,0.00667-0.12433,0.01443-0.18518l0.00229-0.01721c0.31916-2.46185,0.78097-4.95242,1.42717-7.37045
			c0.64325-2.4225,1.46739-4.79074,2.46773-7.07217c0.99936-2.28224,2.17327-4.47607,3.48577-6.57048
			c1.32847-2.0872,2.8269-4.04776,4.4107-5.91881c0.1598-0.1888,0.44246-0.2123,0.63123-0.05246
			c0.17685,0.14963,0.20866,0.40694,0.08077,0.59409L40.64116,210.36168z"/>
		
			<linearGradient id="SVGID_00000016051797227929766500000004724299128607680441_" gradientUnits="userSpaceOnUse" x1="-243.84692" y1="-19.25937" x2="-251.13031" y2="25.41207" gradientTransform="matrix(0.75251 0.11883 -0.13609 0.86179 220.98993 225.58896)">
			<stop  offset="0" style="stop-color:#373754;stop-opacity:0"/>
			<stop  offset="1" style="stop-color:#6F82BA"/>
		</linearGradient>
		<path style="fill:url(#SVGID_00000016051797227929766500000004724299128607680441_);" d="M40.18884,189.26425
			c-1.35533,1.90694-2.64098,3.88782-3.80298,5.98409c-1.15136,2.10577-2.19875,4.29526-3.11984,6.55884
			c-0.92175,2.26292-1.71591,4.59827-2.38085,6.97688c-0.66818,2.3826-1.20019,4.78802-1.64477,7.25797
			c-0.19607,1.08949-0.99085,1.84529-1.77526,1.68816s-1.26131-1.16771-1.06524-2.25719
			c0.01169-0.06499,0.02547-0.12875,0.04133-0.19124l0.00456-0.01767c0.64523-2.52715,1.40252-5.06726,2.28664-7.50987
			c0.88263-2.44763,1.89246-4.81723,3.02059-7.07544c1.12753-2.25917,2.37186-4.4055,3.70414-6.43175
			c1.3431-2.01685,2.79326-3.88155,4.29293-5.64284c0.15131-0.17772,0.36788-0.16861,0.48363,0.02036
			c0.10846,0.17693,0.09006,0.44879-0.03696,0.62859L40.18884,189.26425z"/>
		<circle class="st3" cx="80.02208" cy="102.61162" r="1.62035"/>
		<circle class="st22" cx="63.53335" cy="113.63036" r="2.23925"/>
		<circle class="st6" cx="75.22912" cy="112.31786" r="0.81017"/>
		<circle class="st56" cx="84.8092" cy="114.8735" r="0.81017"/>
		<circle class="st14" cx="43.49916" cy="242.25056" r="0.81017"/>
		<circle class="st3" cx="44.13374" cy="169.25304" r="1.62035"/>
		<circle class="st17" cx="62.13198" cy="145.49463" r="2.00939"/>
		<circle class="st17" cx="44.54525" cy="199.3941" r="1.0047"/>
		<circle class="st4" cx="54.70286" cy="175.71399" r="1.62824"/>
		<circle class="st4" cx="46.04659" cy="235.74298" r="0.81412"/>
		<circle class="st6" cx="40.81476" cy="182.79996" r="0.81017"/>
		<circle class="st56" cx="85.63787" cy="141.35876" r="0.81017"/>
	</g>
	<g id="woosh__x26__stars_00000179627219590360627520000000598709431825052322_">
		
			<linearGradient id="SVGID_00000000200482288078154570000011003316376953553554_" gradientUnits="userSpaceOnUse" x1="266.37076" y1="-226.06421" x2="306.44775" y2="-226.06421" gradientTransform="matrix(0.96757 -0.25261 0.25261 0.96757 101.52178 649.99243)">
			<stop  offset="0" style="stop-color:#373754;stop-opacity:0"/>
			<stop  offset="1" style="stop-color:#6F82BA"/>
		</linearGradient>
		<path style="fill:url(#SVGID_00000000200482288078154570000011003316376953553554_);" d="M304.03995,369.46933
			c3.15738-0.7316,6.13977-2.07281,8.9989-3.59708c2.85489-1.54791,5.59024-3.31528,8.25034-5.18573
			c5.31348-3.75232,10.33704-7.93222,15.12177-12.323l0.00717-0.00659c0.8425-0.77316,2.15228-0.71695,2.92542,0.12558
			c0.77322,0.8425,0.71695,2.15228-0.12555,2.92545c-0.04358,0.03992-0.09155,0.07999-0.13745,0.11554
			c-5.27713,4.05991-10.73697,7.85339-16.48239,11.2066c-2.8743,1.66919-5.81897,3.22864-8.875,4.55734
			c-3.06003,1.30505-6.24179,2.41754-9.55872,2.88803c-0.19617,0.02783-0.37772-0.10861-0.40549-0.30475
			c-0.02628-0.18524,0.09393-0.35748,0.27267-0.39944L304.03995,369.46933z"/>
		
			<linearGradient id="SVGID_00000027579366453080915110000011635607677006178188_" gradientUnits="userSpaceOnUse" x1="365.9198" y1="-115.32976" x2="416.73163" y2="-115.32976" gradientTransform="matrix(1.10975 -0.17635 0.15694 0.98761 -98.6381 556.03729)">
			<stop  offset="0" style="stop-color:#373754;stop-opacity:0"/>
			<stop  offset="1" style="stop-color:#6F82BA"/>
		</linearGradient>
		<path style="fill:url(#SVGID_00000027579366453080915110000011635607677006178188_);" d="M289.10648,384.16467
			c4.00958-0.53625,7.88974-1.76511,11.64362-3.20813c3.75195-1.46967,7.38742-3.1936,10.94455-5.03867
			c7.10748-3.70343,13.91742-7.90726,20.4621-12.36633l0.0098-0.00671c1.15237-0.78516,2.76437-0.60797,3.60034,0.39578
			c0.83609,1.00378,0.57956,2.45401-0.57281,3.2392c-0.0596,0.04056-0.12466,0.08087-0.18652,0.11633
			c-7.10645,4.04831-14.40085,7.78464-21.98563,11.00681c-3.79333,1.60272-7.65799,3.07733-11.62747,4.28586
			c-3.97104,1.18185-8.06519,2.13913-12.2348,2.37128c-0.24661,0.01373-0.45169-0.15375-0.45804-0.37408
			c-0.00607-0.2081,0.16718-0.38892,0.39426-0.41992L289.10648,384.16467z"/>
		<circle class="st5" cx="311.45569" cy="359.91034" r="0.81018"/>
		<circle class="st5" cx="304.44916" cy="355.28149" r="0.81018"/>
	</g>
</g>
</svg>
